<?xml version="1.0" encoding="UTF-8"?>
<svg id="_圖層_1" data-name="圖層_1" xmlns="http://www.w3.org/2000/svg" version="1.1" viewBox="0 0 250 100">
  <!-- Generator: Adobe Illustrator 30.2.1, SVG Export Plug-In . SVG Version: 2.1.1 Build 1)  -->
  <defs>
    <style>
      .st0 {
        fill: #fff;
      }
    </style>
  </defs>
  <path class="st0" d="M69.87,55.48c-.25-.19-.48-.45-.71-.66-.56-.51-1.12-1.02-1.68-1.54-.65-.59-1.28-1.17-1.93-1.77-.66-.61-1.53-1.14-1.63-2.12-.06-.61.17-1.19.39-1.75.14-.34.23-.69.34-1.05.31-.98.6-1.97.86-2.96.41-1.52.79-3.05,1.12-4.58.43-1.97.8-3.94,1.12-5.93.37-2.32.66-4.66.85-7.01.22-2.59.34-5.18.33-7.79,0-.51.03-1.01.06-1.51.04-.8-.01-1.71-.67-2.27-.64-.55-1.55-.66-2.36-.66h-7.98c-.65,0-1.98.29-1.89-.75.03-.24.05-.49.09-.73.18-1.16.24-2.37.36-3.55.11-1.17.22-2.35.33-3.52,0,0,.95-3.33-2.36-3.45l-4.21-.13s-2.39-.43-2.66,1.44l-.48,7.13s.13,3.09-2.61,3.45h-1.09c-.55,0-1.21-.1-1.72.11-.41.18-.81.6-1.07.97-.33.45-.5.98-.5,1.53v3.92s.47,2.14,2.85,2.14h1.42s.6-.13.6,2.13c0,0-1.89,13.31-3.55,17.47,0,0-1.18,2.26,1.18,3.56l7.82,5.35s1.78,1.19,1.07,2.13c0,0-4.61,4.99-10.05,7.72,0,0-2.01,1.07-.36,3.09l3.9,4.63s1.47,1.72,3.08.11c0,0,8.45-5.41,11.08-10.55l4.52,5.56s1.66,1.79,2.96-.11c0,0,5.88-6.09,3.19-8.08h-.03ZM56,44.07s-.25.38-.76-.13c-.15-.1-.31-.2-.47-.31-.66-.43-1.32-.88-1.98-1.31-.31-.2-.61-.4-.9-.6-.25-.17-.55-.28-.65-.57-.09-.26-.06-.55-.03-.8.05-.37.13-.75.2-1.11.11-.55.19-1.11.33-1.66.14-.59.29-1.16.41-1.75.29-1.52.58-3.04.86-4.56.25-1.31.51-2.64.75-3.96.1-.56.22-1.12.32-1.68,0,0,.25-3.11,2.66-3.18h1.72c.46,0,.94.19,1.18.59.19.32.11.63.09.98-.05.59-.1,1.17-.15,1.76-.14,1.58-.31,3.18-.5,4.76-.22,1.83-.47,3.66-.8,5.48-.29,1.7-.65,3.41-1.13,5.07-.31,1.03-.65,2.08-1.18,3.02l.04-.04Z"/>
  <path class="st0" d="M104.74,31.19h-7.75c-.55,0-1.08-.08-1.61-.19-1.75-.66-1.88-3.55-.36-5.7s1.32-1.86,1.98-2.8c.85-1.21,1.72-2.41,2.57-3.62.74-1.05,1.49-2.09,2.22-3.14.32-.45.63-.89.95-1.34,0,0,1.72-2.42,1.72-5.04v-1.49s.47-3.92-3.9-3.92h-26.23s-3.15-.28-3.15,2.37v4.06s-.33,2.71,3.2,2.71h16.39s.69.09.27.74l-4.59,6.25s-2.47,2.23-2.47,5.87v1.49c0,.89.01,1.84-.46,2.62-.41.66-1.08,1.15-1.86,1.2h-9.38s-2.75-.23-2.75,2.37v4.43s-.04,2.2,2.78,2.2h9.05s2.5-.13,2.5,2.34v15.29s.33,2.39-2.47,2.39h-5.53s-2.64-.05-2.03,2.42l.93,4.34s.37,2.34,4.32,2.34c0,0,10.22.14,11.88-.98,0,0,2.73-.28,2.73-6.34v-19.02s0-2.71,2.55-2.71h9s2.61-.09,2.61-2.42v-4.06s.32-2.65-3.17-2.65h.03Z"/>
  <path class="st0" d="M173.75,36.5h-17.93c-.24,0-1.96.06-2.48-.36-.27-.22-.56-.49-.65-.83-.14-.56-.1-1.26.27-1.74.42-.56,1.17-.7,1.82-.7h14.3s3.27.27,3.27-3.1v-11.52s.88-4.07-3.27-4.07h-41.38c-.42-.03-.85-.14-1.23-.31-.6-.27-1.28-.91-1.04-1.63.28-.83,1.17-.69,1.87-.71.97-.03,1.93-.05,2.9-.08,1.31-.04,2.62-.08,3.93-.13,1.56-.05,3.14-.1,4.7-.17,1.73-.06,3.47-.13,5.21-.2,1.82-.08,3.64-.15,5.44-.24,1.8-.09,3.61-.18,5.43-.27,1.72-.1,3.43-.2,5.14-.32,1.52-.1,6.25-.5,7.09-.59.77-.09,3.21-.57,3.61-.87.39-.28.62-.54.89-.93.13-.2.19-.46.22-.7.05-.48-.17-.87-.37-1.28-.19-.37-1.07-2.08-1.32-2.58,0,0-1.23-2.22-4.94-1.51,0,0-38.03,3.1-45.97,2.48,0,0-3.27-.09-3.27,2.92,0,0,.53,28.36-.53,32.88,0,0-1.59,13.02-5.91,20.29,0,0-2.12,3.8,2.03,4.43l6.35.18s2.64,0,3.44-3.37l3.35-14s.79-2.94,3.09-2.94h7.32s1.58.23,1.61,1.25c-.11.69-.63,3.14-2.19,5.99-1.65,2.86-4.55,6.19-9.54,8.86-.09.04-.57.29-.6.31,0,0-2.71,1.26-1.11,2.63l5.64,4.58s1.5,1.77,3.76-.05c0,0,1.88-1.29,4.09-3.34,1.98-1.79,4.52-4.45,6.2-7.72,0,0,1.05-1.77,3.61-1.77h12.98s3.53-.45,3.53,2.39c0,0,.09,3.19-3.62,3.19l-7.5-.18s-3.27-.63-2.73,2.57l.71,3.54s.53,2.58,4.05,2.58c0,0,14.46.79,16.68-4.34,0,0,1.68-3.28,1.94-6.74l.7-6.47s.98-3.8-2.64-3.8h-22.5s-2.46-.27-2.03-2.13c0,0,.25-1.24,1.94-1.24h25.41s3.8.45,3.8-2.65v-2.39s.53-3.1-3.53-3.1l-.04.03ZM125.31,36.22s-.11-.09-.16-.14c-.33-.33-.52-.77-.52-1.24,0-.54.08-.96.38-1.4.56-.79,1.48-.61,2.31-.61.73,0,14.02-.11,14.63.1.52.18.9.61,1.1,1.11.25.64.1,1.56-.44,2-.61.51-1.19.45-1.94.45-1.51,0-13.48-.03-13.85-.04-.51-.03-1.06.05-1.49-.23h-.01ZM144.9,25.69h-17.16c-1.22,0-2.62.34-3.37-.92-.27-.45-.27-1.08-.22-1.6.1-1.08,1.13-1.83,2.14-1.84,2.48-.04,4.96.04,7.45.05,2.41,0,4.83.03,7.24.04h6.95c2.46,0,11.65-.1,13.78-.06,2.03.04,2.47,2.8,1.16,4.02-.23.2-.48.2-.78.26-.85.15-15.99.06-17.2.06h0Z"/>
  <path class="st0" d="M249.99,61.07V5.03c0-3.43-4.21-2.94-4.21-2.94h-33.88c-2.92,0-3,2.86-3,2.86v23.88c0,1.44-.57.57-.57.57l-1.28-4.94c-.43-1.15-1.64-.65-1.64-.65l-3.27.71c-1.28.2-.08-1.86-.08-1.86,3.57-6.07,5.63-12.52,5.63-12.52.42-.93-.43-1.51-.43-1.51l-5.77-1.43c-1.14-.36-1.56.86-1.56.86-.14,1.21-3.34,8.87-3.34,8.87-.5,1.51-1.64,0-1.64,0-.75-.75.14-1.79.14-1.79,1.64-2.58,4.56-10.66,4.56-10.66.36-.71-.15-1.35-.15-1.35l-6.18-2.55c-1.14-.43-1.28.86-1.28.86.15.23-3.72,10.38-3.72,10.38-1.65-.71-2.01.71-2.01.71-.6.98-1.21,1.97-1.8,2.95-.37.61-.83,1.2-.97,1.9-.06.32-.03.65.15.91.32.45,3.7,2.74,4.4,3.32.93.78,1.83,1.57,2.73,2.36,1.27,1.12.33,2.96-.44,4.07-.71,1.01-1.59,2.67-2.94,2.83-.69.09-1.38.06-2.07.14-2.13.24-1.42,1.79-1.42,1.79.36.96,1.18,4.76,1.18,4.76.12,1.79,1.54,1.67,1.54,1.67l4.63-.71c1.78,0,1.55,1.31,1.55,1.31l-.13,1.9c-.24,1.79-.83,1.54-.83,1.54l-5.11-.71c-1.78-.24-1.54,2.51-1.54,2.51-.12,2.26-1.31,14.89-1.31,14.89-.6,2.74,1.78,2.86,1.78,2.86l2.6.6c2.62.47,2.86-1.54,2.86-1.54l.6-7.75c.01-1.07.32-4.88.46-5.1.19-.28.47-.1.53.18.12.46.08,2.95.08,3.69v11.74c0,.79.06,1.95.81,2.44.5.31,1.34.14,1.91.14.94,0,1.87-.03,2.81-.08.66-.03,1.37-.06,1.94-.45.41-.27.67-.73.6-1.23v-16.45c0-2.63.59-1.43.59-1.43,0,0,1.42,9.76,1.42,9.78.13.87.7,1.66,1.63,1.74.48.04.95-.1,1.41-.27.47-.17.98-.2,1.48-.27,1.42,0,1.42,1.07,1.42,1.07v5.36c0,2.27,1.78,2.27,1.78,2.27h4.27c2.26,0,2.49-1.79,2.49-1.79v-23.97c0-1.67,1.79-1.54,1.79-1.54,1.42,0,1.3,1.67,1.3,1.67v8.7c0,3.82,2.97,4.17,2.97,4.17h14.83c1.54,0,1.42-1.79,1.42-1.79v-4.77c0-1.43-1.42-1.56-1.42-1.56h-7.23c-2.61,0-2.38-2.39-2.38-2.39v-2.39c0-1.79,1.89-1.67,1.89-1.67h8.67c2.62,0,2.26,2.03,2.26,2.03v15.62c-.13.97-1.95,1.11-2.64,1.19-1.46.17-2.94.15-4.4.1-.52-.03-1.16-.17-1.68-.09-1.79.26-1.84,1.86-1.84,3.32v3.23c0,2.03,1.42,2.39,1.42,2.39,1.82.65,3.81.89,5.72,1.11,2.52.29,4.98.36,7.37-.64,1.5-.63,2.87-1.6,3.71-3.01.73-1.2.81-2.73.84-4.15h-.01ZM198.78,29.61c-1.62.17-1.21-.32-1.21-.32l2.02-2.42c.65.8.65,2.03.65,2.03-.08.8-1.45.73-1.45.73h-.01ZM208.3,47.11l-.56-3.24c-.41-1.54-1.22-1.06-1.22-1.06l-4.19,1.06c-1.61.49-1.37-1.7-1.37-1.7l-.16-3c-.08-2.27.65-1.94.65-1.94,1.04,0,1.04,1.79,1.04,1.79.24,1.47,4.84.41,4.84.41,1.45-.33,1.54,1.21,1.54,1.21l.08,4.77c0,3.41-.65,1.7-.65,1.7h.01ZM224.37,32.27h-6.38s-.55.06-.55-.5v-2.64s-.13-.63.61-.63h6.46s.52-.09.52.5v2.9s.08.37-.66.37ZM232.5,12.08l-2.4,7.67c-.45,1.28-1.37,1-1.37,1h-1.78c-1.32.03-.85-.45-.85-.45l1.96-.8c1.16-.36.53-1.3.53-1.3-.28-1.2-2.66-6.06-2.66-6.06-.59-1.16-1.74-.57-1.74-.57l-4.65,2.17c-1.35.52-.77,1.61-.77,1.61,1.02,1.58,2.1,4.61,2.1,4.61.28.97-.66.78-.66.78h-1.55c-1.3,0-1.18-.86-1.18-.86v-8.73c0-1,1.41-.78,1.41-.78h21.41c1.22,0,1.22.92,1.22.92v8.61c0,1.03-.77.83-.77.83h-1.55c-.89.03-.66-.47-.66-.47l1.58-5.31c.38-1.11-.38-1.47-.38-1.47l-5.81-2.08c-1.08-.33-1.39.7-1.39.7h-.02ZM240.85,32.27h-6.37s-.55.06-.55-.5v-2.64s-.13-.63.61-.63h6.46s.52-.09.52.5v2.9s.08.37-.66.37h-.01Z"/>
  <path class="st0" d="M9.23,63.25s1.65.05,1.65,1.7v8.83s-.18,1.85,1.86,1.85h8.57s1.49-.19,1.49-1.62v-9.13s.09-1.63,1.64-1.63h7.66s1.63.05,1.63,1.65v32.24s-.18,1.48-1.66,1.48h-6.06s-1.56-.04-1.56-1.81v-6.23s.01-1.48,1.35-1.71c0,0,1.55.05.42-1.07s-7.99-7.34-7.99-7.34c0,0-1.22-1.46-2.94.27-1.72,1.72-7.18,6.71-7.18,6.71,0,0-1.7,1.37,0,1.42,0,0,1.18.05,1.36,1.56v6.52s.19,1.68-2.01,1.68H1.6s-1.39,0-1.6-1.53v-32.16s.04-1.53,1.56-1.66h7.66Z"/>
  <path class="st0" d="M70.84,72.99h6.38s1.79-.1,1.79,1.81v11.19s.08,3.08.39,3.68c.32.6.92,1.94,3.27,1.83,0,0,1.91-.1,2.77-1.58.86-1.48.92-3.5.92-3.5l.04-11.92s.14-1.39,1.5-1.51h6.61s1.41,0,1.66,1.49v22.53s-.03,1.37-1.42,1.6h-6.18s-1.51-.08-1.53-1.86c0,0,.1-1.3-.32-1.45,0,0-.28-.23-.69.33-.39.55-3.15,3.37-7.09,3.54-3.95.17-6.53-.68-8.46-3.76,0,0-.9-1.44-1.14-3.73-.24-2.28-.14-5.25-.14-5.25v-11.89s.19-1.52,1.65-1.52h-.01Z"/>
  <path class="st0" d="M193.18,72.99h6.38s1.79-.1,1.79,1.81v11.19s.09,3.08.39,3.68c.32.6.91,1.94,3.27,1.83,0,0,1.91-.1,2.77-1.58.86-1.48.91-3.5.91-3.5l.02-11.92s.15-1.39,1.5-1.51h6.61s1.41,0,1.67,1.49v22.53s-.03,1.37-1.44,1.6h-6.18s-1.51-.08-1.53-1.86c0,0,.1-1.3-.32-1.45,0,0-.28-.23-.69.33-.39.55-3.15,3.37-7.09,3.54-3.95.17-6.53-.68-8.46-3.76,0,0-.9-1.44-1.14-3.73-.24-2.28-.14-5.25-.14-5.25v-11.89s.19-1.52,1.65-1.52h.01Z"/>
  <path class="st0" d="M165.08,70.86h22.81s1.27.04,1.58,1.39v4.75s-.13,1.35-1.68,1.45c-1.56.11-12.61,0-12.61,0,0,0-1.49-.08-1.68,1.52v3.13s.04,1.52,1.84,1.52h10.23s1.4.04,1.58,1.45v4.25s-.23,1.44-1.83,1.44h-10.01s-1.46-.17-1.79,1.43v3.69s.09,1.71-2,1.71h-7.35s-1.42.15-1.59-1.85v-24.21s-.17-1.94,2.5-1.68h-.01Z"/>
  <path class="st0" d="M224.35,72.99h6.21s1.28.22,1.42,1.6v1.08s.17,1.65,1.51,0c1.35-1.65,4.42-3.96,9.89-3.06,5.46.89,6.1,5.76,6.44,8.86.34,3.1.02,15.66.02,15.66,0,0-.15,1.47-1.7,1.47h-6.68s-1.4-.04-1.42-1.93l-.03-12.34s.27-4.43-3.35-4.25c-3.62.19-3.82,3.55-3.89,4.34-.06.79-.09,12.23-.09,12.23,0,0,.1,1.95-1.59,1.95h-6.71s-1.46-.11-1.46-1.71v-22.36s.11-1.54,1.46-1.54h-.04Z"/>
  <path class="st0" d="M36.81,85.87c0-3.91,1.31-7.12,3.94-9.66,2.62-2.54,6.18-3.8,10.64-3.8,5.11,0,8.97,1.48,11.58,4.47,2.1,2.4,3.14,5.35,3.14,8.84,0,3.94-1.3,7.17-3.9,9.69-2.61,2.51-6.2,3.78-10.79,3.78-4.1,0-7.41-1.05-9.94-3.14-3.11-2.59-4.66-5.97-4.66-10.17ZM46.6,85.84c0,2.28.46,3.97,1.39,5.07.92,1.1,2.08,1.63,3.47,1.63s2.57-.54,3.47-1.62c.9-1.07,1.35-2.81,1.35-5.18,0-2.22-.44-3.88-1.37-4.95-.9-1.08-2.05-1.63-3.38-1.63-1.42,0-2.61.55-3.53,1.65-.93,1.1-1.39,2.78-1.39,5.03h0Z"/>
  <path class="st0" d="M20.16,94.47c-.89.7-2.05,1.08-3.29,1.1-1.22,0-2.39-.37-3.29-1.07-.93-.71-1.5-1.7-1.6-2.77-.04-.19.03-.36.15-.5.11-.15.28-.24.46-.24.19-.03.37.04.51.15.15.11.24.27.25.46.08.68.46,1.31,1.08,1.8.66.51,1.53.79,2.43.78.9,0,1.78-.28,2.43-.8.62-.48.99-1.12,1.05-1.81,0-.18.1-.34.23-.46.15-.11.33-.18.51-.15.19,0,.37.1.48.24.11.14.17.31.17.5-.09,1.06-.65,2.05-1.58,2.78h.01Z"/>
  <path class="st0" d="M14.02,86.15c.51,0,.93.56,1.09,1.33l-.85.47.86.49c-.1.87-.53,1.51-1.07,1.51-.65,0-1.16-.84-1.17-1.89-.01-1.05.5-1.9,1.13-1.9Z"/>
  <path class="st0" d="M19.39,86.09c.52,0,.94.56,1.09,1.33l-.84.47.86.49c-.1.86-.53,1.52-1.08,1.52-.64,0-1.14-.86-1.16-1.9,0-1.05.5-1.9,1.12-1.9Z"/>
  <path class="st0" d="M142.61,72.67c-15.3,0-14.96,12.65-14.77,15.83.12,1.89,1.25,5.44,4.35,7.99h-.03s.48.46,1.48,1.02c1.61.96,3.62,1.66,6.13,1.86,1.14.13,2.43.17,3.85.09,1.46-.05,3.53-.23,5.62-.87h.03c2.71-.82,5.43-2.39,6.8-5.33,0,0,.65-1.42-1.28-1.49-1.74-.06-3.48-.03-5.22-.03h-1.75c-.51,0-.95-.03-1.3.38-.25.29-.62.52-.95.73-.89.55-1.91.84-2.95.82-.44-.01-.89-.09-1.32-.2-3.42-.97-4.36-5.07-1.22-4.98h15.73s1.59.14,1.59-1.61.55-14.2-14.77-14.2ZM146,83.76h-6.77s-1.44-.11-1.23-1.44c.19-1.3,1.28-3.91,4.63-3.83,3.33-.09,4.42,2.51,4.63,3.83.2,1.33-1.23,1.44-1.23,1.44h-.01Z"/>
  <path class="st0" d="M98.77,90.71s.03-.03.04-.04c.28-.29.55-.32.93-.33.7-.04,1.4-.08,2.1-.11,1.21-.06,2.4-.13,3.61-.19.46-.03,1.06-.15,1.49.04.41.18.58.83.72,1.23.19.52.46,1.02.84,1.43.97,1.03,2.34,1.54,4.13,1.54,1.33,0,2.36-.27,3.09-.79.72-.52,1.08-1.14,1.08-1.84s-.34-1.25-1.03-1.77c-.69-.52-2.29-1.02-4.79-1.48-4.1-.78-7.03-1.81-8.78-3.1-1.77-1.29-2.64-2.94-2.64-4.93,0-1.31.46-2.55,1.35-3.73.9-1.16,2.26-2.08,4.07-2.76,1.81-.66,4.3-1,7.45-1,3.86,0,6.82.61,8.85,1.83.94.56,1.74,1.31,2.34,2.22.56.86,1.35,2.18.66,3.17-.36.51-.87.48-1.44.51-.83.04-1.66.08-2.5.13-.67.04-1.35.06-2.01.1-.55.03-1.5.22-1.97-.09-.41-.27-.55-.78-.77-1.19-.24-.45-.57-.83-.99-1.12-.75-.52-1.79-.78-3.11-.78-1.08,0-1.91.19-2.45.59-.55.38-.83.86-.83,1.42,0,.41.23.78.69,1.1.44.33,1.49.65,3.14.94,4.09.74,7.01,1.49,8.78,2.26,1.77.77,3.05,1.71,3.86,2.83.8,1.12,1.21,2.39,1.21,3.78,0,1.63-.53,3.15-1.61,4.53-1.08,1.38-2.58,2.42-4.5,3.14-1.93.71-4.36,1.07-7.3,1.07-5.15,0-8.72-.84-10.7-2.51-.93-.79-1.73-1.74-2.31-2.82-.29-.55-.51-1.12-.7-1.71-.17-.51-.41-1.06,0-1.54h.04Z"/>
</svg>