<?xml version="1.0" encoding="UTF-8"?>
<svg id="_圖層_1" xmlns="http://www.w3.org/2000/svg" version="1.1" viewBox="0 0 9.04 16">
  <!-- Generator: Adobe Illustrator 30.5.1, SVG Export Plug-In . SVG Version: 2.1.4 Build 3)  -->
  <path d="M8.72,14.21c.2.2.31.46.31.74s-.11.54-.31.74-.46.31-.74.31-.54-.11-.74-.31L.3,8.74c-.1-.1-.17-.21-.22-.33s-.07-.26-.07-.4.02-.27.07-.4c.05-.12.14-.25.22-.33L7.25.31c.2-.2.46-.31.74-.31s.54.11.74.31c.2.2.31.46.31.74s-.11.54-.31.74l-6.21,6.21,6.21,6.21h-.01Z"/>
</svg>