<?xml version="1.0" encoding="UTF-8"?>
<svg id="_圖層_1" data-name="圖層_1" xmlns="http://www.w3.org/2000/svg" version="1.1" viewBox="0 0 20 20">
  <!-- Generator: Adobe Illustrator 29.4.0, SVG Export Plug-In . SVG Version: 2.1.0 Build 152)  -->
  <path d="M17.19,17.56h-.68V2.17c0-.45-.36-.81-.81-.81H4.3c-.45,0-.81.36-.81.81v15.38h-.68c-.22,0-.41.18-.41.4v.67h15.2v-.67c0-.22-.18-.4-.41-.4ZM6.74,3.93c0-.22.18-.4.41-.4h1.36c.22,0,.41.18.41.4v1.35c0,.22-.18.4-.41.4h-1.36c-.22,0-.41-.18-.41-.4v-1.35ZM6.74,7.17c0-.22.18-.4.41-.4h1.36c.22,0,.41.18.41.4v1.35c0,.22-.18.4-.41.4h-1.36c-.22,0-.41-.18-.41-.4v-1.35ZM8.51,12.16h-1.36c-.22,0-.41-.18-.41-.4v-1.35c0-.22.18-.4.41-.4h1.36c.22,0,.41.18.41.4v1.35c0,.22-.18.4-.41.4ZM11.09,17.56h-2.17v-2.83c0-.22.18-.4.41-.4h1.36c.22,0,.41.18.41.4v2.83ZM13.26,11.75c0,.22-.18.4-.41.4h-1.36c-.22,0-.41-.18-.41-.4v-1.35c0-.22.18-.4.41-.4h1.36c.22,0,.41.18.41.4v1.35ZM13.26,8.52c0,.22-.18.4-.41.4h-1.36c-.22,0-.41-.18-.41-.4v-1.35c0-.22.18-.4.41-.4h1.36c.22,0,.41.18.41.4v1.35ZM13.26,5.28c0,.22-.18.4-.41.4h-1.36c-.22,0-.41-.18-.41-.4v-1.35c0-.22.18-.4.41-.4h1.36c.22,0,.41.18.41.4v1.35Z"/>
</svg>