<?xml version="1.0" encoding="UTF-8"?>
<svg id="_圖層_1" data-name="圖層_1" xmlns="http://www.w3.org/2000/svg" version="1.1" viewBox="0 0 20 20">
  <!-- Generator: Adobe Illustrator 30.2.1, SVG Export Plug-In . SVG Version: 2.1.1 Build 1)  -->
  <path d="M10,0C4.48,0,0,4.48,0,10c0,2.33.81,4.58,2.29,6.37l-2.02,3.63h9.73c5.52,0,10-4.48,10-10S15.52,0,10,0ZM15.79,15.79c-.76.76-1.66,1.36-2.65,1.77-.99.41-2.06.62-3.13.62H3.36l1.15-2.07-.46-.48c-1.39-1.47-2.24-3.44-2.24-5.62s.86-4.25,2.4-5.79,3.62-2.4,5.79-2.4c1.07,0,2.14.21,3.13.62.99.41,1.89,1.01,2.65,1.77.76.76,1.36,1.66,1.77,2.65.41.99.62,2.06.62,3.13s-.21,2.14-.62,3.13c-.41.99-1.01,1.89-1.77,2.65Z"/>
  <path d="M12.12,4.77c-.46-.33-.99-.55-1.54-.64s-1.13-.05-1.67.12c-.54.17-1.03.46-1.44.85-.41.39-.71.87-.9,1.41l-.3.86,1.71.61.3-.86c.13-.35.36-.66.66-.88.31-.22.67-.33,1.05-.33.38,0,.75.12,1.05.34.31.22.54.53.66.89.12.36.13.74.03,1.11-.11.36-.32.68-.62.92-.4.31-.89.72-1.28,1.2-.4.49-.75,1.13-.75,1.92v1.14h1.82v-1.14c0-.22.09-.46.34-.77.25-.31.6-.61,1-.92.44-.35.8-.8,1.04-1.31.24-.51.36-1.07.35-1.63-.01-.56-.16-1.12-.42-1.62-.26-.5-.64-.93-1.1-1.26Z"/>
  <rect x="9.09" y="14.32" width="1.82" height="1.82"/>
</svg>