<?xml version="1.0" encoding="UTF-8"?>
<svg id="_圖層_1" data-name="圖層_1" xmlns="http://www.w3.org/2000/svg" version="1.1" viewBox="0 0 24 17.68">
  <!-- Generator: Adobe Illustrator 30.5.1, SVG Export Plug-In . SVG Version: 2.1.4 Build 3)  -->
  <path d="M23.68,3.73c-.21-.23-.49-.38-.8-.41-.24-.03-.49.02-.71.13l-4.49,2.24v-1.9c0-2.08-1.71-3.79-3.79-3.79H3.79C1.71,0,0,1.71,0,3.79v10.1c0,2.08,1.71,3.79,3.79,3.79h10.1c2.08,0,3.79-1.71,3.79-3.79v-1.89l4.49,2.24c.19.1.41.14.62.13.21,0,.42-.07.61-.19.18-.11.33-.27.44-.46.11-.19.16-.4.16-.61V4.57c0-.31-.11-.61-.32-.84Z"/>
</svg>