<?xml version="1.0" encoding="UTF-8"?>
<svg id="_圖層_1" data-name="圖層_1" xmlns="http://www.w3.org/2000/svg" version="1.1" viewBox="0 0 20 20">
  <!-- Generator: Adobe Illustrator 30.2.1, SVG Export Plug-In . SVG Version: 2.1.1 Build 1)  -->
  <path d="M10,0C7.28,0,5.08,2.2,5.08,4.92c0,2.2,3.22,6.2,4.45,7.66.25.29.7.29.95,0,1.23-1.45,4.45-5.46,4.45-7.66C14.92,2.2,12.72,0,10,0ZM10,6.56c-.91,0-1.64-.73-1.64-1.64s.73-1.64,1.64-1.64,1.64.73,1.64,1.64-.73,1.64-1.64,1.64Z"/>
  <path d="M.79,7.87c-.23.09-.43.25-.57.46-.14.21-.21.45-.22.7v9.78c0,.44.45.74.86.58l4.14-1.89v-9.1c-.35-.62-.63-1.23-.83-1.81l-3.38,1.29Z"/>
  <path d="M10,14.05c-.55,0-1.07-.24-1.43-.66-.77-.91-1.58-1.94-2.32-3v7.11l7.5,2.5v-9.61c-.74,1.06-1.56,2.09-2.32,3-.36.42-.88.66-1.43.66Z"/>
  <path d="M19.14,6.77l-4.14,1.98v11.25l4.21-1.71c.23-.09.43-.25.57-.46.14-.21.21-.45.21-.7V7.35c0-.44-.45-.74-.86-.58Z"/>
</svg>