<?xml version="1.0" encoding="UTF-8"?>
<svg id="_圖層_1" data-name="圖層_1" xmlns="http://www.w3.org/2000/svg" version="1.1" viewBox="0 0 16 16">
  <!-- Generator: Adobe Illustrator 29.4.0, SVG Export Plug-In . SVG Version: 2.1.0 Build 152)  -->
  <path d="M9.18,7.98L15.81,1.37c.13-.15.2-.35.19-.55,0-.2-.09-.39-.23-.53-.14-.14-.33-.23-.53-.23-.2,0-.4.06-.55.19l-6.63,6.61L1.42.23c-.15-.15-.35-.23-.57-.23S.43.08.28.23C.13.38.04.59.04.8s.08.42.24.57l6.64,6.61L.28,14.6c-.08.07-.15.16-.2.26-.05.1-.07.21-.08.32,0,.11.01.22.05.32.04.1.1.2.18.27.08.08.17.14.27.18.1.04.21.06.32.05s.22-.03.32-.08c.1-.05.19-.12.26-.2l6.64-6.61,6.63,6.61c.15.13.35.2.55.19.2,0,.39-.09.53-.23.14-.14.23-.33.23-.53,0-.2-.06-.4-.19-.55l-6.63-6.61Z"/>
</svg>