<?xml version="1.0" encoding="UTF-8"?>
<svg id="_圖層_1" data-name="圖層_1" xmlns="http://www.w3.org/2000/svg" version="1.1" viewBox="0 0 20 20">
  <!-- Generator: Adobe Illustrator 30.2.1, SVG Export Plug-In . SVG Version: 2.1.1 Build 1)  -->
  <path d="M19.73,5.06L10.23.06c-.15-.08-.32-.08-.47,0L.27,5.06C.1,5.14,0,5.31,0,5.5v2c0,.28.22.5.5.5.08,0,.16-.02.23-.06L10,3.06l9.27,4.88c.24.13.55.03.68-.21.04-.07.06-.15.06-.23v-2c0-.19-.1-.36-.27-.44Z"/>
  <path d="M10,4.19L2,8.4v11.1c0,.28.22.5.5.5h15c.28,0,.5-.22.5-.5v-11.1l-8-4.21ZM9,12.6h2c.83,0,1.5.67,1.5,1.5s-.67,1.5-1.5,1.5h-.5v.75c0,.28-.22.5-.5.5s-.5-.22-.5-.5v-.75h-1.5c-.28,0-.5-.22-.5-.5s.22-.5.5-.5h3c.28,0,.5-.22.5-.5s-.22-.5-.5-.5h-2c-.83,0-1.5-.67-1.5-1.5s.67-1.5,1.5-1.5h.5v-.75c0-.28.22-.5.5-.5s.5.22.5.5v.75h1.5c.28,0,.5.22.5.5s-.22.5-.5.5h-3c-.28,0-.5.22-.5.5s.22.5.5.5Z"/>
</svg>