<?xml version="1.0" encoding="UTF-8"?>
<svg id="_圖層_1" xmlns="http://www.w3.org/2000/svg" version="1.1" viewBox="0 0 20 20">
  <!-- Generator: Adobe Illustrator 30.2.1, SVG Export Plug-In . SVG Version: 2.1.1 Build 1)  -->
  <defs>
    <style>
      .st0 {
        fill-rule: evenodd;
      }
    </style>
  </defs>
  <path class="st0" d="M9.28,19.73S2.16,13.74,2.16,7.84c0-2.08.82-4.07,2.29-5.54S7.92,0,9.99,0s4.07.82,5.54,2.29,2.29,3.47,2.29,5.54c0,5.89-7.12,11.89-7.12,11.89-.4.36-1.05.36-1.45,0h.02ZM10,11.27c.45,0,.89-.09,1.32-.26.41-.18.8-.42,1.12-.74.32-.32.58-.69.74-1.12.18-.41.26-.86.26-1.32s-.09-.89-.26-1.32c-.18-.41-.42-.8-.74-1.12s-.69-.58-1.12-.74c-.41-.18-.86-.26-1.32-.26-.91,0-1.79.36-2.42,1s-1,1.52-1,2.42.36,1.79,1,2.42c.65.65,1.52,1,2.42,1v.02Z"/>
</svg>