<?xml version="1.0" encoding="UTF-8"?>
<svg id="_圖層_1" data-name="圖層_1" xmlns="http://www.w3.org/2000/svg" version="1.1" viewBox="0 0 20 20">
  <!-- Generator: Adobe Illustrator 30.2.1, SVG Export Plug-In . SVG Version: 2.1.1 Build 1)  -->
  <rect y="9.52" width="3.81" height="10.48"/>
  <path d="M18.1,15.24h-6.67l-1.99-.7.31-.9,1.68.64h2.69c.62,0,1.12-.5,1.12-1.12,0-.47-.3-.89-.73-1.06l-6.91-2.58h-1.88v8.59l6.67,1.89,7.62-2.86c0-1.05-.85-1.9-1.9-1.9Z"/>
  <path d="M12.38,0l-6.67,4.76v2.86h1.9l7.75,3.1c1.07.43,1.77,1.46,1.77,2.61h1.9V4.76L12.38,0ZM11.9,8.22h-.95v-.95h.95v.95ZM11.9,6.32h-.95v-.95h.95v.95ZM13.81,8.22h-.95v-.95h.95v.95ZM13.81,6.32h-.95v-.95h.95v.95Z"/>
</svg>