<?xml version="1.0" encoding="UTF-8"?>
<svg id="_圖層_1" data-name="圖層_1" xmlns="http://www.w3.org/2000/svg" version="1.1" viewBox="0 0 20 20">
  <!-- Generator: Adobe Illustrator 30.2.1, SVG Export Plug-In . SVG Version: 2.1.1 Build 1)  -->
  <defs>
    <style>
      .st0 {
        fill-rule: evenodd;
      }
    </style>
  </defs>
  <path class="st0" d="M2,1c0-.27.11-.52.29-.71s.44-.29.71-.29h14c.27,0,.52.11.71.29s.29.44.29.71v16c0,.8-.32,1.56-.88,2.12-.56.56-1.33.88-2.12.88H5c-.8,0-1.56-.32-2.12-.88-.56-.56-.88-1.33-.88-2.12V1ZM16,2v4H4V2h12ZM6,11c0-.27.11-.52.29-.71.19-.19.44-.29.71-.29h1c.27,0,.52.11.71.29.19.19.29.44.29.71s-.11.52-.29.71c-.19.19-.44.29-.71.29h-1c-.27,0-.52-.11-.71-.29-.19-.19-.29-.44-.29-.71ZM11,11c0-.27.11-.52.29-.71.19-.19.44-.29.71-.29h1c.27,0,.52.11.71.29.19.19.29.44.29.71s-.11.52-.29.71c-.19.19-.44.29-.71.29h-1c-.27,0-.52-.11-.71-.29-.19-.19-.29-.44-.29-.71ZM7,14c-.27,0-.52.11-.71.29-.19.19-.29.44-.29.71s.11.52.29.71c.19.19.44.29.71.29h1c.27,0,.52-.11.71-.29.19-.19.29-.44.29-.71s-.11-.52-.29-.71c-.19-.19-.44-.29-.71-.29h-1ZM11,15c0-.27.11-.52.29-.71.19-.19.44-.29.71-.29h1c.27,0,.52.11.71.29.19.19.29.44.29.71s-.11.52-.29.71c-.19.19-.44.29-.71.29h-1c-.27,0-.52-.11-.71-.29-.19-.19-.29-.44-.29-.71Z"/>
</svg>