<?xml version="1.0" encoding="UTF-8"?>
<svg id="_圖層_1" data-name="圖層_1" xmlns="http://www.w3.org/2000/svg" version="1.1" viewBox="0 0 20 20">
  <!-- Generator: Adobe Illustrator 30.2.1, SVG Export Plug-In . SVG Version: 2.1.1 Build 1)  -->
  <path d="M19.58,5.16c-.11-.43-.34-.81-.65-1.13-.31-.31-.7-.54-1.12-.65-1.56-.42-7.81-.42-7.81-.42,0,0-6.25,0-7.81.42-.42.12-.81.34-1.12.65-.31.31-.53.7-.65,1.13-.42,1.57-.42,4.84-.42,4.84,0,0,0,3.27.42,4.84.11.43.34.81.65,1.13.31.31.7.54,1.12.65,1.56.42,7.81.42,7.81.42,0,0,6.25,0,7.81-.42.42-.12.81-.34,1.12-.65.31-.31.53-.7.65-1.13.42-1.57.42-4.84.42-4.84,0,0,0-3.27-.42-4.84ZM7.95,12.97v-5.95l5.23,2.97-5.23,2.97Z"/>
</svg>