<?xml version="1.0" encoding="UTF-8"?>
<svg id="_圖層_1" data-name="圖層_1" xmlns="http://www.w3.org/2000/svg" version="1.1" viewBox="0 0 20 20">
  <!-- Generator: Adobe Illustrator 30.2.1, SVG Export Plug-In . SVG Version: 2.1.1 Build 1)  -->
  <path d="M18.74,7.75c-.34-.35-.68-.71-.82-1.03-.12-.29-.13-.78-.14-1.24-.01-.87-.03-1.86-.71-2.55s-1.67-.7-2.55-.71c-.47,0-.95-.01-1.24-.14-.32-.13-.68-.48-1.03-.82-.62-.59-1.32-1.26-2.25-1.26s-1.63.67-2.25,1.26c-.35.34-.71.68-1.03.82-.29.12-.78.13-1.24.14-.87.01-1.86.03-2.55.71s-.7,1.67-.71,2.55c0,.47-.01.95-.14,1.24-.13.32-.48.68-.82,1.03-.59.62-1.26,1.32-1.26,2.25s.67,1.63,1.26,2.25c.34.35.68.71.82,1.03.12.29.13.78.14,1.24.01.87.03,1.86.71,2.55s1.67.7,2.55.71c.47,0,.95.01,1.24.14.32.13.68.48,1.03.82.62.59,1.32,1.26,2.25,1.26s1.63-.67,2.25-1.26c.35-.34.71-.68,1.03-.82.29-.12.78-.13,1.24-.14.87-.01,1.86-.03,2.55-.71s.7-1.67.71-2.55c0-.47.01-.95.14-1.24.13-.32.48-.68.82-1.03.59-.62,1.26-1.32,1.26-2.25s-.67-1.63-1.26-2.25ZM14.08,8.36l-5,5c-.07.07-.15.12-.23.16-.09.04-.18.05-.27.05s-.19-.02-.27-.05c-.09-.04-.17-.09-.23-.16l-2.14-2.14c-.13-.13-.21-.32-.21-.51s.08-.37.21-.51c.13-.13.32-.21.51-.21s.37.08.51.21l1.64,1.64,4.49-4.5c.07-.07.15-.12.23-.15.09-.04.18-.05.27-.05s.19.02.27.05c.09.04.17.09.23.15.07.07.12.15.15.23.04.09.05.18.05.27s-.02.19-.05.27c-.04.09-.09.17-.15.23Z"/>
</svg>