<?xml version="1.0" encoding="UTF-8"?>
<svg id="_圖層_1" data-name="圖層_1" xmlns="http://www.w3.org/2000/svg" version="1.1" viewBox="0 0 20 20">
  <!-- Generator: Adobe Illustrator 30.2.1, SVG Export Plug-In . SVG Version: 2.1.1 Build 1)  -->
  <defs>
    <style>
      .st0 {
        fill-rule: evenodd;
      }
    </style>
  </defs>
  <path d="M19.89,5.17c.11,1.26.11,2.83.11,4.83,0,4.13,0,6.46-.99,7.95l-5.95-5.95,6.83-6.83ZM17.95,19.01l-5.95-5.95-6.83,6.83c1.26.11,2.83.11,4.83.11,4.13,0,6.46,0,7.95-.99Z"/>
  <path class="st0" d="M10,0c4.71,0,7.07,0,8.54,1.46.5.5.83,1.11,1.05,1.89L3.35,19.59c-.78-.22-1.38-.55-1.89-1.05-1.46-1.46-1.46-3.82-1.46-8.54S0,2.93,1.46,1.46C2.93,0,5.29,0,10,0ZM3.5,6.76c0,1.78,1.12,3.87,2.86,4.61.41.17.87.17,1.28,0,1.74-.74,2.86-2.83,2.86-4.61s-1.57-3.26-3.5-3.26-3.5,1.46-3.5,3.26Z"/>
  <path d="M8.5,7c0,.4-.16.78-.44,1.06-.28.28-.66.44-1.06.44s-.78-.16-1.06-.44c-.28-.28-.44-.66-.44-1.06s.16-.78.44-1.06c.28-.28.66-.44,1.06-.44s.78.16,1.06.44c.28.28.44.66.44,1.06Z"/>
</svg>