<?xml version="1.0" encoding="UTF-8"?>
<svg id="_圖層_1" data-name="圖層_1" xmlns="http://www.w3.org/2000/svg" version="1.1" viewBox="0 0 24 20.79">
  <!-- Generator: Adobe Illustrator 30.5.1, SVG Export Plug-In . SVG Version: 2.1.4 Build 3)  -->
  <path d="M11.08,1.91C9.87.69,8.21,0,6.49,0c-1.72,0-3.38.68-4.6,1.89C.68,3.11,0,4.77,0,6.49c0,1.72.69,3.37,1.91,4.59l9.41,9.42c.19.19.44.29.71.29s.52-.11.71-.29l9.37-9.36c1.21-1.22,1.89-2.88,1.89-4.6s-.69-3.37-1.91-4.59c-.6-.61-1.32-1.09-2.11-1.42-.79-.33-1.63-.5-2.49-.5-.85,0-1.7.16-2.49.49-.79.33-1.51.8-2.11,1.41l-.89.9-.91-.91Z"/>
</svg>