<?xml version="1.0" encoding="UTF-8"?>
<svg id="_圖層_1" data-name="圖層_1" xmlns="http://www.w3.org/2000/svg" version="1.1" viewBox="0 0 20 20">
  <!-- Generator: Adobe Illustrator 30.2.1, SVG Export Plug-In . SVG Version: 2.1.1 Build 1)  -->
  <path d="M18.33,0H1.67c-.44,0-.87.18-1.18.49-.31.31-.49.74-.49,1.18v16.67c0,.44.18.87.49,1.18.31.31.74.49,1.18.49h16.67c.44,0,.87-.18,1.18-.49s.49-.74.49-1.18V1.67c0-.44-.18-.87-.49-1.18-.31-.31-.74-.49-1.18-.49ZM8.92,12.26l-3.33,3.33c-.08.08-.17.14-.27.18-.1.04-.21.06-.32.06s-.22-.02-.32-.06c-.1-.04-.19-.1-.27-.18l-1.67-1.67c-.16-.16-.24-.37-.24-.59s.09-.43.24-.59c.16-.16.37-.24.59-.24s.43.09.59.24l1.08,1.08,2.74-2.74c.16-.16.37-.24.59-.24s.43.09.59.24c.16.16.24.37.24.59s-.09.43-.24.59ZM8.92,5.59l-3.33,3.33c-.08.08-.17.14-.27.18-.1.04-.21.06-.32.06s-.22-.02-.32-.06c-.1-.04-.19-.1-.27-.18l-1.67-1.67c-.08-.08-.14-.17-.18-.27-.04-.1-.06-.21-.06-.32,0-.22.09-.43.24-.59.16-.16.37-.24.59-.24s.43.09.59.24l1.08,1.08,2.74-2.74c.16-.16.37-.24.59-.24s.43.09.59.24c.16.16.24.37.24.59s-.09.43-.24.59ZM16.67,14.17h-5c-.22,0-.43-.09-.59-.24-.16-.16-.24-.37-.24-.59s.09-.43.24-.59c.16-.16.37-.24.59-.24h5c.22,0,.43.09.59.24.16.16.24.37.24.59s-.09.43-.24.59c-.16.16-.37.24-.59.24ZM16.67,7.5h-5c-.22,0-.43-.09-.59-.24-.16-.16-.24-.37-.24-.59s.09-.43.24-.59c.16-.16.37-.24.59-.24h5c.22,0,.43.09.59.24.16.16.24.37.24.59s-.09.43-.24.59c-.16.16-.37.24-.59.24Z"/>
</svg>