<?xml version="1.0" encoding="UTF-8"?>
<svg id="_圖層_1" data-name="圖層_1" xmlns="http://www.w3.org/2000/svg" version="1.1" viewBox="0 0 24 24">
  <!-- Generator: Adobe Illustrator 30.5.1, SVG Export Plug-In . SVG Version: 2.1.4 Build 3)  -->
  <path d="M20.06,8.55l-.3.68c-.05.11-.12.21-.22.27-.1.07-.22.1-.34.1s-.24-.04-.34-.1c-.1-.07-.18-.16-.22-.27l-.3-.68c-.52-1.2-1.47-2.16-2.66-2.7l-.91-.41c-.11-.05-.2-.13-.27-.23-.07-.1-.1-.22-.1-.34s.03-.24.1-.34c.07-.1.16-.18.27-.23l.86-.38c1.22-.55,2.19-1.55,2.7-2.79l.3-.73c.04-.11.12-.21.22-.28.1-.07.22-.11.34-.11s.24.04.34.11c.1.07.18.17.22.28l.3.73c.51,1.24,1.48,2.24,2.7,2.79l.86.38c.11.05.2.13.27.23.07.1.1.22.1.34s-.03.24-.1.34c-.07.1-.16.18-.27.23l-.91.41c-1.19.54-2.14,1.5-2.66,2.7Z"/>
  <path d="M1.19,2.4h10.81v2.4H2.4v16.8h16.8v-9.6h2.4v10.81c0,.32-.13.62-.35.84-.22.22-.53.35-.84.35H1.19c-.32,0-.62-.13-.84-.35-.22-.22-.35-.53-.35-.84V3.59c0-.66.53-1.19,1.19-1.19Z"/>
  <path d="M9.15,8.9l5.85,3.9c.07.04.12.1.16.17.04.07.06.15.06.23s-.02.16-.06.23c-.04.07-.09.13-.16.17l-5.86,3.9c-.07.05-.16.08-.24.08-.09,0-.17-.02-.25-.06-.08-.04-.14-.1-.18-.18-.04-.07-.07-.16-.07-.25v-7.81c0-.09.02-.17.07-.25.04-.07.11-.14.19-.18.08-.04.16-.06.25-.06.09,0,.17.03.24.08Z"/>
</svg>