<?xml version="1.0" encoding="UTF-8"?>
<svg id="_圖層_1" data-name="圖層_1" xmlns="http://www.w3.org/2000/svg" version="1.1" viewBox="0 0 24 20">
  <!-- Generator: Adobe Illustrator 30.5.1, SVG Export Plug-In . SVG Version: 2.1.4 Build 3)  -->
  <path d="M11,9c0,.27-.11.52-.29.71-.19.19-.44.29-.71.29H1c-.27,0-.52-.11-.71-.29-.19-.19-.29-.44-.29-.71s.11-.52.29-.71c.19-.19.44-.29.71-.29h9c.27,0,.52.11.71.29.19.19.29.44.29.71Z"/>
  <path d="M1,2h17c.27,0,.52-.11.71-.29.19-.19.29-.44.29-.71s-.11-.52-.29-.71c-.19-.19-.44-.29-.71-.29H1C.73,0,.48.11.29.29c-.19.19-.29.44-.29.71s.11.52.29.71c.19.19.44.29.71.29Z"/>
  <path d="M8,16H1c-.27,0-.52.11-.71.29-.19.19-.29.44-.29.71s.11.52.29.71c.19.19.44.29.71.29h7c.27,0,.52-.11.71-.29.19-.19.29-.44.29-.71s-.11-.52-.29-.71c-.19-.19-.44-.29-.71-.29Z"/>
  <path d="M23.71,13.29c-.09-.09-.2-.17-.32-.22-.12-.05-.25-.08-.38-.08s-.26.03-.38.08c-.12.05-.23.12-.32.22l-3.29,3.29V7c0-.27-.11-.52-.29-.71-.19-.19-.44-.29-.71-.29s-.52.11-.71.29c-.19.19-.29.44-.29.71v9.59l-3.29-3.29c-.19-.19-.44-.29-.71-.29s-.52.11-.71.29c-.19.19-.29.44-.29.71s.11.52.29.71l5,5c.09.09.2.17.32.22.12.05.25.08.38.08s.26-.03.38-.08c.12-.05.23-.12.32-.22l5-5c.09-.09.17-.2.22-.32.05-.12.08-.25.08-.38s-.03-.26-.08-.38c-.05-.12-.12-.23-.22-.32Z"/>
</svg>