<?xml version="1.0" encoding="UTF-8"?>
<svg id="_圖層_1" data-name="圖層_1" xmlns="http://www.w3.org/2000/svg" version="1.1" viewBox="0 0 20 20">
  <!-- Generator: Adobe Illustrator 30.2.1, SVG Export Plug-In . SVG Version: 2.1.1 Build 1)  -->
  <path d="M19.8,18.86c-.12-.13-.29-.2-.47-.2h-.67V4.67c0-.18-.07-.35-.2-.47s-.29-.2-.47-.2h-5.33c-.18,0-.35.07-.47.2-.12.12-.2.29-.2.47v3.33h-4V.67c0-.18-.07-.35-.2-.47-.13-.12-.29-.2-.47-.2H2c-.18,0-.35.07-.47.2-.12.13-.2.29-.2.47v18h-.67c-.18,0-.35.07-.47.2-.13.12-.2.29-.2.47s.07.35.2.47c.12.13.29.2.47.2h18.67c.18,0,.35-.07.47-.2.12-.12.2-.29.2-.47s-.07-.35-.2-.47ZM5.33,16.67c0,.18-.07.35-.2.47-.12.13-.29.2-.47.2s-.35-.07-.47-.2c-.13-.12-.2-.29-.2-.47v-1.33c0-.18.07-.35.2-.47.12-.13.29-.2.47-.2s.35.07.47.2c.12.12.2.29.2.47v1.33ZM5.33,12.67c0,.18-.07.35-.2.47-.12.13-.29.2-.47.2s-.35-.07-.47-.2c-.13-.12-.2-.29-.2-.47v-1.33c0-.18.07-.35.2-.47.12-.13.29-.2.47-.2s.35.07.47.2c.12.12.2.29.2.47v1.33ZM5.33,8.67c0,.18-.07.35-.2.47-.12.13-.29.2-.47.2s-.35-.07-.47-.2c-.13-.12-.2-.29-.2-.47v-1.33c0-.18.07-.35.2-.47s.29-.2.47-.2.35.07.47.2c.12.13.2.29.2.47v1.33ZM5.33,4.67c0,.18-.07.35-.2.47-.12.13-.29.2-.47.2s-.35-.07-.47-.2c-.13-.12-.2-.29-.2-.47v-1.33c0-.18.07-.35.2-.47s.29-.2.47-.2.35.07.47.2c.12.13.2.29.2.47v1.33ZM10.67,16.67c0,.18-.07.35-.2.47-.12.13-.29.2-.47.2s-.35-.07-.47-.2c-.12-.12-.2-.29-.2-.47v-1.33c0-.18.07-.35.2-.47s.29-.2.47-.2.35.07.47.2c.13.12.2.29.2.47v1.33ZM10.67,12.67c0,.18-.07.35-.2.47-.12.13-.29.2-.47.2s-.35-.07-.47-.2-.2-.29-.2-.47v-1.33c0-.18.07-.35.2-.47s.29-.2.47-.2.35.07.47.2c.13.12.2.29.2.47v1.33ZM16,16.67c0,.18-.07.35-.2.47-.12.13-.29.2-.47.2s-.35-.07-.47-.2c-.12-.12-.2-.29-.2-.47v-1.33c0-.18.07-.35.2-.47.12-.13.29-.2.47-.2s.35.07.47.2c.12.12.2.29.2.47v1.33ZM16,12.67c0,.18-.07.35-.2.47-.12.13-.29.2-.47.2s-.35-.07-.47-.2c-.12-.12-.2-.29-.2-.47v-1.33c0-.18.07-.35.2-.47.12-.13.29-.2.47-.2s.35.07.47.2c.12.12.2.29.2.47v1.33ZM16,8.67c0,.18-.07.35-.2.47-.12.13-.29.2-.47.2s-.35-.07-.47-.2c-.12-.12-.2-.29-.2-.47v-1.33c0-.18.07-.35.2-.47.12-.13.29-.2.47-.2s.35.07.47.2c.12.12.2.29.2.47v1.33Z"/>
</svg>