<?xml version="1.0" encoding="UTF-8"?>
<svg id="_圖層_1" data-name="圖層_1" xmlns="http://www.w3.org/2000/svg" version="1.1" viewBox="0 0 20 20">
  <!-- Generator: Adobe Illustrator 30.2.1, SVG Export Plug-In . SVG Version: 2.1.1 Build 1)  -->
  <path d="M8.67.45c.38-.29.85-.45,1.33-.45s.95.16,1.33.45l7.78,5.92c.28.21.5.48.65.8.15.31.23.66.23,1.01v9.58c0,.6-.23,1.17-.65,1.59-.42.42-.98.66-1.57.66H2.22c-.59,0-1.15-.24-1.57-.66-.42-.42-.65-1-.65-1.59v-9.58c0-.35.08-.69.23-1.01.15-.31.38-.59.65-.8L8.67.45ZM11.11,7.61c0-.3-.12-.59-.33-.8-.21-.21-.49-.33-.79-.33s-.58.12-.79.33c-.21.21-.33.5-.33.8v6.76c0,.3.12.59.33.8.21.21.49.33.79.33s.58-.12.79-.33c.21-.21.33-.5.33-.8v-6.76ZM6.67,10.99c0-.3-.12-.59-.33-.8-.21-.21-.49-.33-.79-.33s-.58.12-.79.33c-.21.21-.33.5-.33.8v3.38c0,.3.12.59.33.8.21.21.49.33.79.33s.58-.12.79-.33c.21-.21.33-.5.33-.8v-3.38ZM15.56,13.24c0-.3-.12-.59-.33-.8-.21-.21-.49-.33-.79-.33s-.58.12-.79.33c-.21.21-.33.5-.33.8v1.13c0,.3.12.59.33.8.21.21.49.33.79.33s.58-.12.79-.33c.21-.21.33-.5.33-.8v-1.13Z"/>
</svg>