<?xml version="1.0" encoding="UTF-8"?>
<svg id="_圖層_1" data-name="圖層_1" xmlns="http://www.w3.org/2000/svg" version="1.1" viewBox="0 0 24 24">
  <!-- Generator: Adobe Illustrator 30.2.1, SVG Export Plug-In . SVG Version: 2.1.1 Build 1)  -->
  <path d="M22,13H2c-.53,0-1.04.21-1.41.59-.38.38-.59.88-.59,1.41v5c0,.53.21,1.04.59,1.41.38.38.88.59,1.41.59h20c.53,0,1.04-.21,1.41-.59.38-.38.59-.88.59-1.41v-5c0-.53-.21-1.04-.59-1.41-.38-.38-.88-.59-1.41-.59ZM22,20H2v-5h20v5Z"/>
  <path d="M23.41,2.59c-.38-.38-.88-.59-1.41-.59H2c-.53,0-1.04.21-1.41.59-.38.38-.59.88-.59,1.41v5c0,.53.21,1.04.59,1.41.38.38.88.59,1.41.59h20c.53,0,1.04-.21,1.41-.59.38-.38.59-.88.59-1.41v-5c0-.53-.21-1.04-.59-1.41ZM22,9H2v-5h20v5Z"/>
</svg>