<?xml version="1.0" encoding="UTF-8"?>
<svg id="_圖層_1" data-name="圖層_1" xmlns="http://www.w3.org/2000/svg" version="1.1" viewBox="0 0 20 20">
  <!-- Generator: Adobe Illustrator 30.2.1, SVG Export Plug-In . SVG Version: 2.1.1 Build 1)  -->
  <path d="M10,.42C4.48.42,0,4.08,0,8.56c0,4.04,3.55,7.38,8.36,8.03.33.05.77.22.87.49.11.27.05.66.05.93,0,0-.11.71-.16.87-.05.27-.22.98.87.55,1.09-.44,5.79-3.39,7.87-5.79,1.48-1.64,2.13-3.28,2.13-5.08C20,4.08,15.52.42,10,.42ZM6.5,10.91c0,.11-.11.22-.22.22h-2.84c-.11,0-.22-.11-.22-.22v-4.37c0-.11.11-.22.22-.22h.71c.11,0,.22.11.22.22v3.5h1.91c.11,0,.22.11.22.22v.66ZM8.2,10.97c0,.11-.11.22-.22.22h-.71c-.11,0-.22-.11-.22-.22v-4.37c0-.11.11-.22.22-.22h.71c.11,0,.16.11.22.22v4.37ZM13.01,11.02c0,.11-.11.22-.22.22h-.76l-.05-.05-2.02-2.73v2.62c0,.11-.11.22-.22.22h-.6c-.11,0-.22-.11-.22-.22v-4.37c0-.11.11-.22.22-.22h.71l2.02,2.68v-2.57c0-.11.11-.22.22-.22h.71c.11,0,.22.11.22.27v4.37ZM16.88,7.25c0,.11-.11.22-.22.22h-1.91v.77h1.91c.11,0,.22.11.22.22v.71c0,.11-.11.22-.22.22h-1.91v.77h1.91c.11,0,.22.11.22.22v.71s-.11.05-.22.05h-2.79c-.11,0-.22-.11-.22-.22v-4.37c0-.11.11-.22.22-.22h2.79c.11,0,.22.11.22.22v.71Z"/>
</svg>