<?xml version="1.0" encoding="UTF-8"?>
<svg id="_圖層_1" data-name="圖層_1" xmlns="http://www.w3.org/2000/svg" version="1.1" viewBox="0 0 21.57 24">
  <!-- Generator: Adobe Illustrator 30.5.1, SVG Export Plug-In . SVG Version: 2.1.4 Build 3)  -->
  <path d="M20.38,7.22L13.18.92c-.66-.59-1.51-.92-2.4-.92s-1.74.33-2.4.92L1.2,7.22c-.38.34-.68.76-.89,1.23C.1,8.91,0,9.42,0,9.93v10.48C0,21.36.38,22.27,1.05,22.95c.67.67,1.59,1.05,2.54,1.05h14.38c.95,0,1.87-.38,2.54-1.05s1.05-1.59,1.05-2.54v-10.49c0-.51-.1-1.01-.31-1.48-.21-.46-.51-.88-.89-1.22h0ZM13.18,21.6h-4.79v-5.99c0-.32.13-.62.35-.85s.53-.35.85-.35h2.4c.32,0,.62.13.85.35.22.22.35.53.35.85v5.99ZM19.18,20.4c0,.32-.13.62-.35.85s-.53.35-.85.35h-2.4v-5.99c0-.95-.38-1.87-1.05-2.54-.67-.67-1.59-1.05-2.54-1.05h-2.4c-.95,0-1.87.38-2.54,1.05-.67.67-1.05,1.59-1.05,2.54v5.99h-2.4c-.32,0-.62-.13-.85-.35-.22-.22-.35-.53-.35-.85v-10.49c0-.17.04-.34.11-.49.07-.16.17-.29.3-.41l7.19-6.29c.22-.19.5-.3.79-.3s.57.11.79.3l7.19,6.29c.13.11.23.25.3.41.07.15.11.32.11.49v10.49Z"/>
</svg>