<?xml version="1.0" encoding="UTF-8"?>
<svg id="_圖層_1" data-name="圖層_1" xmlns="http://www.w3.org/2000/svg" version="1.1" viewBox="0 0 20 20">
  <!-- Generator: Adobe Illustrator 30.2.1, SVG Export Plug-In . SVG Version: 2.1.1 Build 1)  -->
  <path d="M10.15,20h0c-2.98-.02-5.28-1-6.82-2.92-1.37-1.71-2.08-4.09-2.1-7.07h0c.02-3,.73-5.37,2.1-7.08C4.87,1,7.17.02,10.15,0h.01c2.29.02,4.2.6,5.69,1.75,1.4,1.08,2.38,2.61,2.92,4.56l-1.7.47c-.92-3.3-3.25-4.99-6.92-5.01-2.43.02-4.26.78-5.45,2.26-1.12,1.39-1.69,3.4-1.71,5.97.02,2.57.6,4.58,1.71,5.97,1.19,1.49,3.03,2.25,5.45,2.26,2.19-.02,3.63-.53,4.83-1.7,1.37-1.34,1.35-2.99.91-4-.26-.59-.73-1.08-1.36-1.46-.16,1.13-.52,2.04-1.07,2.73-.74.92-1.78,1.42-3.11,1.49-1,.05-1.97-.18-2.72-.67-.89-.57-1.4-1.45-1.46-2.47-.05-.99.34-1.9,1.11-2.57.73-.63,1.77-1.01,2.99-1.08.84-.05,1.68-.01,2.52.12-.1-.62-.31-1.11-.62-1.46-.43-.49-1.09-.74-1.97-.74h-.02c-.7,0-1.66.19-2.27,1.1l-1.46-.98c.82-1.21,2.14-1.88,3.73-1.88h.04c2.66.02,4.25,1.65,4.41,4.49.09.04.18.08.27.12,1.24.58,2.15,1.47,2.63,2.56.66,1.52.73,3.99-1.29,5.97-1.54,1.51-3.41,2.19-6.06,2.21h0ZM10.99,10.26c-.2,0-.41,0-.62.02-1.53.09-2.48.79-2.43,1.79.06,1.05,1.21,1.53,2.32,1.47,1.02-.05,2.35-.45,2.57-3.09-.61-.13-1.23-.19-1.85-.18Z"/>
</svg>