<?xml version="1.0" encoding="UTF-8"?>
<svg id="_圖層_1" xmlns="http://www.w3.org/2000/svg" version="1.1" viewBox="0 0 19.2 24">
  <!-- Generator: Adobe Illustrator 30.5.1, SVG Export Plug-In . SVG Version: 2.1.4 Build 3)  -->
  <rect x="5.1" y="20.1" width="3.75" height="3.9"/>
  <rect x="10.35" y="20.1" width="3.75" height="3.9"/>
  <path d="M18.45,9.75c-.48-.48-1.13-.75-1.8-.75h-2.25V2.55c0-.68-.27-1.32-.75-1.8-.48-.48-1.13-.75-1.8-.75H2.55c-.68,0-1.32.27-1.8.75s-.75,1.13-.75,1.8v20.7c0,.41.34.75.75.75h2.85v-4.05c0-.36.14-.7.4-.95.25-.25.6-.4.95-.4h9.3c.36,0,.7.14.95.4.25.25.4.6.4.95v4.05h2.85c.41,0,.75-.34.75-.75v-11.7c0-.68-.27-1.32-.75-1.8ZM5.65,15.25c-.23.23-.53.35-.85.35s-.62-.13-.85-.35-.35-.53-.35-.85.13-.62.35-.85.53-.35.85-.35.62.13.85.35.35.53.35.85-.13.62-.35.85ZM5.65,11.05c-.23.23-.53.35-.85.35s-.62-.13-.85-.35c-.23-.23-.35-.53-.35-.85s.13-.62.35-.85.53-.35.85-.35.62.13.85.35.35.53.35.85-.13.62-.35.85ZM5.65,6.85c-.23.23-.53.35-.85.35s-.62-.13-.85-.35c-.23-.23-.35-.53-.35-.85s.13-.62.35-.85.53-.35.85-.35.62.13.85.35.35.53.35.85-.13.62-.35.85ZM10.45,15.25c-.23.23-.53.35-.85.35s-.62-.13-.85-.35c-.23-.23-.35-.53-.35-.85s.13-.62.35-.85c.23-.23.53-.35.85-.35s.62.13.85.35.35.53.35.85-.13.62-.35.85ZM10.45,11.05c-.23.23-.53.35-.85.35s-.62-.13-.85-.35c-.23-.23-.35-.53-.35-.85s.13-.62.35-.85c.23-.23.53-.35.85-.35s.62.13.85.35.35.53.35.85-.13.62-.35.85ZM10.45,6.85c-.23.23-.53.35-.85.35s-.62-.13-.85-.35-.35-.53-.35-.85.13-.62.35-.85c.23-.23.53-.35.85-.35s.62.13.85.35.35.53.35.85-.13.62-.35.85ZM15.25,15.25c-.22.23-.53.35-.85.35s-.62-.13-.85-.35c-.22-.23-.35-.53-.35-.85s.13-.62.35-.85c.23-.23.53-.35.85-.35s.62.13.85.35c.23.23.35.53.35.85s-.13.62-.35.85Z"/>
</svg>