<?xml version="1.0" encoding="UTF-8"?>
<svg id="_圖層_1" data-name="圖層_1" xmlns="http://www.w3.org/2000/svg" version="1.1" viewBox="0 0 18 18">
  <!-- Generator: Adobe Illustrator 29.4.0, SVG Export Plug-In . SVG Version: 2.1.0 Build 152)  -->
  <path d="M9,1.5C4.86,1.5,1.5,4.86,1.5,9s3.36,7.5,7.5,7.5,7.5-3.36,7.5-7.5S13.14,1.5,9,1.5ZM12.51,9.55c-.14.13-.32.2-.51.2h-2.25v2.34c-.03.19-.12.36-.27.49s-.33.18-.53.17c-.19-.01-.37-.09-.5-.23-.13-.14-.2-.32-.2-.51v-2.25h-2.34c-.19-.03-.36-.12-.49-.27-.12-.15-.18-.33-.17-.53.01-.19.09-.37.23-.5.14-.13.32-.2.51-.2h2.25v-2.34c.03-.18.11-.35.25-.47s.31-.19.5-.19c.2,0,.39.08.53.22.14.14.22.33.22.53v2.25h2.34c.19.03.36.12.49.27.12.15.18.33.17.53-.01.19-.09.37-.23.5Z"/>
</svg>