<?xml version="1.0" encoding="UTF-8"?>
<svg id="_圖層_1" data-name="圖層_1" xmlns="http://www.w3.org/2000/svg" version="1.1" viewBox="0 0 24 24">
  <!-- Generator: Adobe Illustrator 30.2.1, SVG Export Plug-In . SVG Version: 2.1.1 Build 1)  -->
  <path d="M8.73,0H2.18c-.58,0-1.13.23-1.54.64-.41.41-.64.96-.64,1.54v6.55c0,.58.23,1.13.64,1.54.41.41.96.64,1.54.64h6.55c.58,0,1.13-.23,1.54-.64s.64-.96.64-1.54V2.18c0-.58-.23-1.13-.64-1.54s-.96-.64-1.54-.64ZM8.73,8.73H2.18V2.18h6.55v6.55Z"/>
  <path d="M23.36.64c-.41-.41-.96-.64-1.54-.64h-6.55c-.58,0-1.13.23-1.54.64-.41.41-.64.96-.64,1.54v6.55c0,.58.23,1.13.64,1.54.41.41.96.64,1.54.64h6.55c.58,0,1.13-.23,1.54-.64s.64-.96.64-1.54V2.18c0-.58-.23-1.13-.64-1.54ZM21.82,8.73h-6.55V2.18h6.55v6.55Z"/>
  <path d="M8.73,13.09H2.18c-.58,0-1.13.23-1.54.64-.41.41-.64.96-.64,1.54v6.55c0,.58.23,1.13.64,1.54.41.41.96.64,1.54.64h6.55c.58,0,1.13-.23,1.54-.64s.64-.96.64-1.54v-6.55c0-.58-.23-1.13-.64-1.54-.41-.41-.96-.64-1.54-.64ZM8.73,21.82H2.18v-6.55h6.55v6.55Z"/>
  <path d="M21.82,13.09h-6.55c-.58,0-1.13.23-1.54.64s-.64.96-.64,1.54v6.55c0,.58.23,1.13.64,1.54.41.41.96.64,1.54.64h6.55c.58,0,1.13-.23,1.54-.64s.64-.96.64-1.54v-6.55c0-.58-.23-1.13-.64-1.54-.41-.41-.96-.64-1.54-.64ZM21.82,21.82h-6.55v-6.55h6.55v6.55Z"/>
</svg>