<?xml version="1.0" encoding="UTF-8"?>
<svg id="_圖層_1" data-name="圖層_1" xmlns="http://www.w3.org/2000/svg" version="1.1" viewBox="0 0 20 20">
  <!-- Generator: Adobe Illustrator 30.2.1, SVG Export Plug-In . SVG Version: 2.1.1 Build 1)  -->
  <path d="M5,13.25v6c0,.14.04.27.11.39.07.12.17.21.3.28.12.06.26.09.4.08s.27-.06.38-.13l3.82-2.69,3.82,2.69c.11.08.24.13.38.14.14,0,.27-.02.4-.08.12-.06.22-.16.3-.28.07-.12.11-.25.11-.39v-6c-1.42,1.14-3.18,1.76-5,1.76-1.82,0-3.58-.62-5-1.75Z"/>
  <path d="M10,14c1.86,0,3.64-.74,4.95-2.05,1.31-1.31,2.05-3.09,2.05-4.95,0-.92-.18-1.83-.53-2.68-.35-.85-.87-1.62-1.52-2.27s-1.42-1.17-2.27-1.52C11.83.18,10.92,0,10,0s-1.83.18-2.68.53-1.62.87-2.27,1.52-1.17,1.42-1.52,2.27c-.35.85-.53,1.76-.53,2.68,0,1.86.74,3.64,2.05,4.95,1.31,1.31,3.09,2.05,4.95,2.05ZM6.61,5.97s.04-.09.08-.12.08-.05.13-.06l2.04-.3.91-1.85s.05-.08.09-.1c.04-.03.09-.04.14-.04s.09.01.14.04c.04.03.07.06.09.1l.91,1.85,2.04.3c.21.03.29.29.14.44l-1.48,1.44.35,2.04s0,.1-.01.14c-.02.04-.05.08-.09.11-.04.03-.08.04-.13.05s-.1,0-.14-.03l-1.83-.96-1.83.96s-.09.03-.14.03-.09-.02-.13-.05-.07-.07-.09-.11c-.02-.04-.02-.09-.02-.14l.35-2.04-1.48-1.44s-.06-.08-.07-.12c-.01-.05,0-.1,0-.14Z"/>
</svg>