<?xml version="1.0" encoding="UTF-8"?>
<svg id="_圖層_1" data-name="圖層_1" xmlns="http://www.w3.org/2000/svg" version="1.1" viewBox="0 0 20 20">
  <!-- Generator: Adobe Illustrator 30.2.1, SVG Export Plug-In . SVG Version: 2.1.1 Build 1)  -->
  <path d="M8.74.45c.36-.29.8-.45,1.26-.45s.9.16,1.26.45l7.63,6.18c.35.28.63.64.82,1.04.19.4.29.84.29,1.29v9.05c0,.53-.21,1.04-.59,1.41-.38.37-.88.59-1.41.59h-3c-.53,0-1.04-.21-1.41-.59-.38-.38-.59-.88-.59-1.41v-5c0-.27-.11-.52-.29-.71-.19-.19-.44-.29-.71-.29h-4c-.27,0-.52.11-.71.29-.19.19-.29.44-.29.71v5c0,.53-.21,1.04-.59,1.41-.38.37-.88.59-1.41.59H2c-.53,0-1.04-.21-1.41-.59C.21,19.04,0,18.53,0,18v-9.04c0-.45.1-.89.29-1.29s.47-.76.82-1.04L8.74.45Z"/>
</svg>