<?xml version="1.0" encoding="UTF-8"?>
<svg id="_圖層_1" data-name="圖層_1" xmlns="http://www.w3.org/2000/svg" version="1.1" viewBox="0 0 20 20">
  <!-- Generator: Adobe Illustrator 30.2.1, SVG Export Plug-In . SVG Version: 2.1.1 Build 1)  -->
  <path d="M19.97,6.71l-1.38-4.83c-.09-.32-.29-.6-.55-.8-.27-.2-.59-.31-.92-.31H2.88c-.33,0-.66.11-.92.31-.27.2-.46.48-.55.8L.03,6.71c-.02.07-.03.14-.03.21v1.54c0,.6.14,1.19.41,1.72.27.53.65,1,1.13,1.36v6.92c0,.2.08.4.23.54.14.14.34.23.54.23h15.38c.2,0,.4-.08.54-.23.14-.14.23-.34.23-.54v-6.92c.48-.36.87-.82,1.13-1.36.27-.53.41-1.12.41-1.72v-1.54c0-.07-.01-.14-.03-.21ZM6.15,8.46c0,.4-.1.79-.3,1.13-.19.35-.48.64-.82.84-.34.21-.73.32-1.12.33-.4.01-.79-.08-1.14-.26-.05-.04-.11-.08-.18-.1-.33-.21-.59-.5-.78-.84-.19-.34-.28-.72-.28-1.11v-.77h4.62v.77ZM12.31,8.46c0,.61-.24,1.2-.68,1.63-.43.43-1.02.68-1.63.68s-1.2-.24-1.63-.68c-.43-.43-.68-1.02-.68-1.63v-.77h4.62v.77ZM18.46,8.46c0,.39-.1.77-.28,1.11-.19.34-.45.63-.78.84-.06.03-.12.06-.17.1-.35.18-.74.27-1.14.26-.4-.01-.78-.13-1.12-.33-.34-.21-.62-.49-.82-.84-.2-.35-.3-.74-.3-1.13v-.77h4.62v.77Z"/>
</svg>