<?xml version="1.0" encoding="UTF-8"?>
<svg id="_圖層_1" data-name="圖層_1" xmlns="http://www.w3.org/2000/svg" version="1.1" viewBox="0 0 20 20">
  <!-- Generator: Adobe Illustrator 29.4.0, SVG Export Plug-In . SVG Version: 2.1.0 Build 152)  -->
  <defs>
    <style>
      .st0 {
        fill-rule: evenodd;
      }
    </style>
  </defs>
  <path class="st0" d="M9.39,18.27S3.33,13.18,3.33,8.16c0-1.77.7-3.46,1.95-4.71,1.25-1.25,2.95-1.95,4.71-1.95s3.46.7,4.71,1.95c1.25,1.25,1.95,2.95,1.95,4.71,0,5.01-6.05,10.11-6.05,10.11-.34.31-.89.31-1.23,0ZM10,11.08c.38,0,.76-.08,1.12-.22.35-.15.68-.36.95-.63.27-.27.49-.59.63-.95.15-.35.22-.73.22-1.12s-.08-.76-.22-1.12c-.15-.35-.36-.68-.63-.95-.27-.27-.59-.49-.95-.63-.35-.15-.73-.22-1.12-.22-.77,0-1.52.31-2.06.85s-.85,1.29-.85,2.06.31,1.52.85,2.06c.55.55,1.29.85,2.06.85Z"/>
</svg>