<?xml version="1.0" encoding="UTF-8"?>
<svg id="_圖層_1" data-name="圖層_1" xmlns="http://www.w3.org/2000/svg" version="1.1" viewBox="0 0 20 20">
  <!-- Generator: Adobe Illustrator 30.2.1, SVG Export Plug-In . SVG Version: 2.1.1 Build 1)  -->
  <path d="M14.37,0H5.62c-.22,0-1.4.07-2.5,1.35-1.09,1.27-1.12,2.51-1.12,2.65v11c0,.53.21,1.04.59,1.41.38.38.88.59,1.41.59h1l-2,3h2.35l.67-1h8l.68,1h2.3l-2-3h1c.53,0,1.04-.21,1.41-.59.38-.38.59-.88.59-1.41V4c0-.19-.03-1.43-1.13-2.66-1.16-1.3-2.36-1.34-2.5-1.34ZM8,2h4v2h-4v-2ZM5.5,15c-.4,0-.78-.16-1.06-.44-.28-.28-.44-.66-.44-1.06,0-.4.16-.78.44-1.06.28-.28.66-.44,1.06-.44.4,0,.78.16,1.06.44.28.28.44.66.44,1.06s-.16.78-.44,1.06c-.28.28-.66.44-1.06.44ZM14.5,15c-.4,0-.78-.16-1.06-.44-.28-.28-.44-.66-.44-1.06,0-.4.16-.78.44-1.06.28-.28.66-.44,1.06-.44.4,0,.78.16,1.06.44.28.28.44.66.44,1.06s-.16.78-.44,1.06c-.28.28-.66.44-1.06.44ZM16,10H4v-4h12v4Z"/>
</svg>