<?xml version="1.0" encoding="UTF-8"?>
<svg id="_圖層_1" data-name="圖層_1" xmlns="http://www.w3.org/2000/svg" version="1.1" viewBox="0 0 24 18">
  <!-- Generator: Adobe Illustrator 30.5.1, SVG Export Plug-In . SVG Version: 2.1.4 Build 3)  -->
  <path d="M21,1.5c.4,0,.78.16,1.06.44.28.28.44.66.44,1.06v12c0,.4-.16.78-.44,1.06s-.66.44-1.06.44H3c-.4,0-.78-.16-1.06-.44-.28-.28-.44-.66-.44-1.06V3c0-.4.16-.78.44-1.06.28-.28.66-.44,1.06-.44h18ZM3,0c-.8,0-1.56.32-2.12.88-.56.56-.88,1.33-.88,2.12v12c0,.8.32,1.56.88,2.12.56.56,1.33.88,2.12.88h18c.8,0,1.56-.32,2.12-.88s.88-1.33.88-2.12V3c0-.8-.32-1.56-.88-2.12-.56-.56-1.33-.88-2.12-.88H3Z"/>
  <path d="M7.05,13.5h2.14l2.99-9h-1.98l-2,7.06h-.09l-2.02-7.06h-2.06l3.01,9ZM16.63,4.5h-3.59v9h1.76v-3.36h1.6l1.57,3.36h1.99l-1.81-3.63c.82-.32,1.64-1.21,1.64-2.52,0-1.72-1.16-2.85-3.16-2.85ZM14.8,8.81v-2.91h1.57c.95,0,1.58.52,1.58,1.48s-.61,1.43-1.6,1.43h-1.55Z"/>
</svg>