<?xml version="1.0" encoding="UTF-8"?>
<svg id="_圖層_1" data-name="圖層_1" xmlns="http://www.w3.org/2000/svg" version="1.1" viewBox="0 0 24 21.33">
  <!-- Generator: Adobe Illustrator 30.5.1, SVG Export Plug-In . SVG Version: 2.1.4 Build 3)  -->
  <path d="M1.78,3.56c0-.24.09-.46.26-.63.17-.17.39-.26.63-.26h1.78V.89c0-.24.09-.46.26-.63.17-.17.39-.26.63-.26s.46.09.63.26c.17.17.26.39.26.63v1.78h1.78c.24,0,.46.09.63.26.17.17.26.39.26.63s-.09.46-.26.63c-.17.17-.39.26-.63.26h-1.78v1.78c0,.24-.09.46-.26.63-.17.17-.39.26-.63.26s-.46-.09-.63-.26c-.17-.17-.26-.39-.26-.63v-1.78h-1.78c-.24,0-.46-.09-.63-.26-.17-.17-.26-.39-.26-.63Z"/>
  <path d="M16.89,17.78h-.89v-.89c0-.24-.09-.46-.26-.63-.17-.17-.39-.26-.63-.26s-.46.09-.63.26c-.17.17-.26.39-.26.63v.89h-.89c-.24,0-.46.09-.63.26-.17.17-.26.39-.26.63s.09.46.26.63c.17.17.39.26.63.26h.89v.89c0,.24.09.46.26.63.17.17.39.26.63.26s.46-.09.63-.26c.17-.17.26-.39.26-.63v-.89h.89c.24,0,.46-.09.63-.26.17-.17.26-.39.26-.63s-.09-.46-.26-.63c-.17-.17-.39-.26-.63-.26Z"/>
  <path d="M23.11,12.44h-1.78v-1.78c0-.24-.09-.46-.26-.63-.17-.17-.39-.26-.63-.26s-.46.09-.63.26c-.17.17-.26.39-.26.63v1.78h-1.78c-.24,0-.46.09-.63.26-.17.17-.26.39-.26.63s.09.46.26.63c.17.17.39.26.63.26h1.78v1.78c0,.24.09.46.26.63.17.17.39.26.63.26s.46-.09.63-.26c.17-.17.26-.39.26-.63v-1.78h1.78c.24,0,.46-.09.63-.26.17-.17.26-.39.26-.63s-.09-.46-.26-.63c-.17-.17-.39-.26-.63-.26Z"/>
  <path d="M21.2,3.4c-.09-.22-.22-.41-.39-.58l-2.3-2.3c-.16-.17-.36-.3-.58-.39C17.72.05,17.49,0,17.26,0s-.46.05-.68.14c-.22.09-.41.22-.58.39L.52,16c-.17.17-.3.36-.39.58-.09.22-.14.45-.14.68s.05.46.14.68c.09.22.22.41.39.58l2.3,2.3c.33.33.79.52,1.26.52s.92-.19,1.26-.52l15.48-15.48c.17-.17.3-.36.39-.58s.14-.45.14-.68-.05-.46-.14-.68ZM4.08,19.55l-2.3-2.3L12.44,6.59l2.3,2.3-10.67,10.67ZM16,7.63l-2.3-2.3,3.56-3.56,2.3,2.3-3.56,3.56Z"/>
</svg>