<?xml version="1.0" encoding="UTF-8"?>
<svg id="_圖層_1" data-name="圖層_1" xmlns="http://www.w3.org/2000/svg" version="1.1" viewBox="0 0 20 20">
  <!-- Generator: Adobe Illustrator 30.2.1, SVG Export Plug-In . SVG Version: 2.1.1 Build 1)  -->
  <path d="M20,19.23c0,.2-.08.4-.23.54-.14.14-.34.23-.54.23H.77c-.2,0-.4-.08-.54-.23-.14-.14-.23-.34-.23-.54s.08-.4.23-.54c.14-.14.34-.23.54-.23h.77v-8.46c0-.2.08-.4.23-.54.14-.14.34-.23.54-.23h2.31c.2,0,.4.08.54.23.14.14.23.34.23.54v8.46h1.54V5.38c0-.2.08-.4.23-.54.14-.14.34-.23.54-.23h3.08c.2,0,.4.08.54.23.14.14.23.34.23.54v13.08h1.54V.77c0-.2.08-.4.23-.54.14-.14.34-.23.54-.23h3.85c.2,0,.4.08.54.23.14.14.23.34.23.54v17.69h.77c.2,0,.4.08.54.23.14.14.23.34.23.54Z"/>
</svg>