<?xml version="1.0" encoding="UTF-8"?>
<svg id="_圖層_1" data-name="圖層_1" xmlns="http://www.w3.org/2000/svg" version="1.1" viewBox="0 0 20 20">
  <!-- Generator: Adobe Illustrator 30.2.1, SVG Export Plug-In . SVG Version: 2.1.1 Build 1)  -->
  <path d="M20,.77v3.85c0,.2-.08.4-.23.54-.14.14-.34.23-.54.23s-.4-.08-.54-.23c-.14-.14-.23-.34-.23-.54V1.54h-3.08c-.2,0-.4-.08-.54-.23-.14-.14-.23-.34-.23-.54s.08-.4.23-.54c.14-.14.34-.23.54-.23h3.85c.2,0,.4.08.54.23.14.14.23.34.23.54Z"/>
  <path d="M4.62,18.46H1.54v-3.08c0-.2-.08-.4-.23-.54-.14-.14-.34-.23-.54-.23s-.4.08-.54.23c-.14.14-.23.34-.23.54v3.85c0,.2.08.4.23.54.14.14.34.23.54.23h3.85c.2,0,.4-.08.54-.23.14-.14.23-.34.23-.54s-.08-.4-.23-.54c-.14-.14-.34-.23-.54-.23Z"/>
  <path d="M19.23,14.62c-.2,0-.4.08-.54.23-.14.14-.23.34-.23.54v3.08h-3.08c-.2,0-.4.08-.54.23-.14.14-.23.34-.23.54s.08.4.23.54c.14.14.34.23.54.23h3.85c.2,0,.4-.08.54-.23.14-.14.23-.34.23-.54v-3.85c0-.2-.08-.4-.23-.54-.14-.14-.34-.23-.54-.23Z"/>
  <path d="M.77,5.38c.2,0,.4-.08.54-.23.14-.14.23-.34.23-.54V1.54h3.08c.2,0,.4-.08.54-.23.14-.14.23-.34.23-.54s-.08-.4-.23-.54c-.14-.14-.34-.23-.54-.23H.77c-.2,0-.4.08-.54.23-.14.14-.23.34-.23.54v3.85c0,.2.08.4.23.54.14.14.34.23.54.23Z"/>
  <path d="M16.05,6.42c-.07-.12-.17-.22-.28-.28l-5.38-3.08c-.12-.07-.25-.1-.38-.1s-.27.03-.38.1l-5.38,3.08c-.12.07-.22.17-.28.28-.07.12-.1.25-.1.39v6.15c0,.14.03.27.1.39.07.12.17.22.28.28l5.39,3.08c.12.07.25.1.38.1s.27-.03.38-.1l5.38-3.08c.12-.07.21-.17.28-.29.07-.12.1-.25.1-.39v-6.15c0-.14-.03-.27-.1-.39ZM9.23,14.71l-3.85-2.2v-4.38l3.85,2.2v4.38ZM10,9l-3.83-2.19,3.83-2.19,3.83,2.19-3.83,2.19ZM14.62,12.51l-3.85,2.2v-4.38l3.85-2.2v4.38Z"/>
</svg>