<?xml version="1.0" encoding="UTF-8"?>
<svg id="_圖層_1" xmlns="http://www.w3.org/2000/svg" version="1.1" viewBox="0 0 20 20">
  <!-- Generator: Adobe Illustrator 30.2.1, SVG Export Plug-In . SVG Version: 2.1.1 Build 1)  -->
  <path d="M17.49,0H7.51c-1.11,0-2.01.9-2.01,2.01v5.64L.8,12.29c-.14.14-.24.32-.28.51-.04.19-.02.4.05.58.08.18.2.34.37.45.16.11.36.17.56.17v5c0,.27.11.52.29.71.19.19.44.29.71.29h16c.27,0,.52-.11.71-.29.19-.19.29-.44.29-.71V2.01c0-1.11-.9-2.01-2.01-2.01ZM9.42,18H3.5v-5.57l2.99-2.95,2.93,3v5.51ZM11.5,7h-2v-2h2v2ZM15.5,15h-2v-2h2v2ZM15.5,11h-2v-2h2v2ZM15.5,7h-2v-2h2v2Z"/>
  <path d="M5.5,13h2v2h-2v-2Z"/>
</svg>