<?xml version="1.0" encoding="UTF-8"?>
<svg id="_圖層_1" data-name="圖層_1" xmlns="http://www.w3.org/2000/svg" version="1.1" viewBox="0 0 105 16">
  <!-- Generator: Adobe Illustrator 29.4.0, SVG Export Plug-In . SVG Version: 2.1.0 Build 152)  -->
  <defs>
    <style>
      .st0 {
        fill: #888988;
      }
    </style>
  </defs>
  <path class="st0" d="M29.75,4.75h2.68s.75-.04.75.77v4.75s.03,1.3.17,1.56c.13.25.38.82,1.37.77,0,0,.8-.04,1.16-.67.36-.63.38-1.48.38-1.48l.02-5.06s.06-.59.63-.64h2.78s.59,0,.7.63v9.56s-.01.58-.6.68h-2.59s-.64-.03-.64-.79c0,0,.04-.55-.13-.62,0,0-.12-.1-.29.14-.17.23-1.32,1.43-2.98,1.5-1.66.07-2.74-.29-3.56-1.6,0,0-.38-.61-.48-1.58s-.06-2.23-.06-2.23v-5.05s.08-.64.69-.64h0Z"/>
  <path class="st0" d="M81.14,4.75h2.68s.75-.04.75.77v4.75s.04,1.3.17,1.56c.13.25.38.82,1.37.77,0,0,.8-.04,1.16-.67.36-.63.38-1.48.38-1.48v-5.06s.07-.59.64-.64h2.78s.59,0,.7.63v9.56s-.01.58-.6.68h-2.59s-.64-.03-.64-.79c0,0,.04-.55-.13-.62,0,0-.12-.1-.29.14-.17.23-1.32,1.43-2.98,1.5-1.66.07-2.74-.29-3.56-1.6,0,0-.38-.61-.48-1.58-.1-.97-.06-2.23-.06-2.23v-5.05s.08-.64.69-.64h0Z"/>
  <path class="st0" d="M69.33,3.85h9.58s.53.02.66.59v2.01s-.05.57-.7.62c-.66.05-5.3,0-5.3,0,0,0-.62-.03-.7.64v1.33s.02.64.77.64h4.3s.59.02.66.62v1.8s-.1.61-.77.61h-4.21s-.61-.07-.75.61v1.56s.04.73-.84.73h-3.09s-.6.07-.67-.79V4.56s-.07-.82,1.05-.71h0Z"/>
  <path class="st0" d="M94.23,4.75h2.61s.54.09.6.68v.46s.07.7.64,0c.57-.7,1.86-1.68,4.15-1.3,2.3.38,2.56,2.44,2.71,3.76.14,1.32.01,6.64.01,6.64,0,0-.06.62-.72.62h-2.81s-.59-.02-.6-.82v-5.24s.1-1.88-1.42-1.8c-1.52.08-1.61,1.51-1.63,1.84-.03.34-.04,5.19-.04,5.19,0,0,.04.83-.67.83h-2.82s-.61-.05-.61-.73V5.4s.05-.66.61-.66h-.02Z"/>
  <path class="st0" d="M15.46,10.22c0-1.66.55-3.02,1.65-4.1,1.1-1.08,2.59-1.61,4.47-1.61,2.15,0,3.77.63,4.86,1.9.88,1.02,1.32,2.27,1.32,3.75,0,1.67-.54,3.04-1.64,4.11-1.09,1.07-2.6,1.6-4.53,1.6-1.72,0-3.11-.44-4.17-1.33-1.31-1.1-1.96-2.53-1.96-4.32ZM19.57,10.21c0,.97.19,1.68.58,2.15.38.47.88.69,1.46.69s1.08-.23,1.46-.69c.38-.45.57-1.19.57-2.2,0-.94-.19-1.65-.58-2.1-.38-.46-.86-.69-1.42-.69-.6,0-1.09.23-1.48.7-.39.47-.58,1.18-.58,2.13h0Z"/>
  <g>
    <path class="st0" d="M3.88.62s.69.02.69.72v3.75s-.07.79.78.79h3.6s.62-.08.62-.69V1.32s.04-.69.69-.69h3.22s.68.02.68.7v13.68s-.07.63-.7.63h-2.55s-.66-.02-.66-.77v-2.64s0-.63.57-.73c0,0,.65.02.18-.45-.48-.48-3.36-3.11-3.36-3.11,0,0-.51-.62-1.23.11-.72.73-3.02,2.85-3.02,2.85,0,0-.72.58,0,.6,0,0,.5.02.57.66v2.77s.08.71-.84.71H.67s-.58,0-.67-.65V1.33s.02-.65.66-.7h3.22Z"/>
    <path class="st0" d="M8.47,13.87c-.37.3-.86.46-1.38.47-.51,0-1-.16-1.38-.45-.39-.3-.63-.72-.67-1.17-.02-.08.01-.15.06-.21.05-.07.12-.1.19-.1.08-.01.15.02.21.07.06.05.1.11.11.19.03.29.19.56.45.76.28.22.64.34,1.02.33.38,0,.75-.12,1.02-.34.26-.21.42-.48.44-.77,0-.08.04-.15.1-.19.06-.05.14-.08.21-.07.08,0,.15.04.2.1.05.06.07.13.07.21-.04.45-.27.87-.66,1.18h0Z"/>
    <path class="st0" d="M5.89,10.34c.21,0,.39.24.46.56l-.36.2.36.21c-.04.37-.22.64-.45.64-.27,0-.49-.36-.49-.8,0-.44.21-.81.48-.81Z"/>
    <path class="st0" d="M8.15,10.31c.22,0,.4.24.46.56l-.35.2.36.21c-.04.36-.22.64-.45.64-.27,0-.48-.36-.49-.81,0-.44.21-.81.47-.81Z"/>
  </g>
  <path class="st0" d="M59.9,4.62c-6.43,0-6.28,5.37-6.2,6.71.05.8.52,2.31,1.83,3.39h-.01s.2.19.62.43c.68.41,1.52.7,2.57.79.48.05,1.02.07,1.62.04.61-.02,1.48-.1,2.36-.37h.01c1.14-.35,2.28-1.01,2.86-2.26,0,0,.27-.6-.54-.63-.73-.03-1.46-.01-2.19-.01h-.74c-.21,0-.4-.01-.54.16-.11.12-.26.22-.4.31-.37.23-.8.36-1.24.35-.19,0-.37-.04-.56-.09-1.44-.41-1.83-2.15-.51-2.11h6.61s.67.06.67-.68.23-6.03-6.2-6.03ZM61.32,9.32h-2.85s-.6-.05-.52-.61c.08-.55.54-1.66,1.94-1.62,1.4-.04,1.86,1.07,1.94,1.62.09.56-.52.61-.52.61h0Z"/>
  <path class="st0" d="M41.49,12.27s.01-.01.02-.02c.12-.12.23-.14.39-.14.29-.02.59-.03.88-.05.51-.03,1.01-.05,1.52-.08.19-.01.44-.07.62.02.17.08.25.35.3.52.08.22.19.43.35.61.41.44.98.66,1.73.66.56,0,.99-.11,1.3-.34.3-.22.45-.48.45-.78s-.14-.53-.43-.75c-.29-.22-.96-.43-2.01-.63-1.72-.33-2.95-.77-3.69-1.32-.74-.55-1.11-1.25-1.11-2.09,0-.56.19-1.08.57-1.58.38-.49.95-.88,1.71-1.17.76-.28,1.8-.42,3.13-.42,1.62,0,2.87.26,3.72.77.4.24.73.56.98.94.23.36.57.93.28,1.34-.15.22-.36.21-.6.22-.35.02-.7.03-1.05.05-.28.02-.57.03-.84.04-.23.01-.63.09-.83-.04-.17-.11-.23-.33-.33-.5-.1-.19-.24-.35-.42-.48-.31-.22-.75-.33-1.31-.33-.45,0-.8.08-1.03.25-.23.16-.35.36-.35.6,0,.17.1.33.29.47.19.14.62.28,1.32.4,1.72.31,2.95.63,3.69.96.74.32,1.28.73,1.62,1.2.34.48.51,1.01.51,1.6,0,.69-.22,1.34-.68,1.92-.45.58-1.08,1.03-1.89,1.33-.81.3-1.83.45-3.06.45-2.16,0-3.66-.36-4.49-1.07-.39-.34-.73-.74-.97-1.2-.12-.23-.21-.48-.29-.73-.07-.22-.17-.45,0-.66h.02Z"/>
</svg>