<?xml version="1.0" encoding="UTF-8"?>
<svg id="_圖層_1" data-name="圖層_1" xmlns="http://www.w3.org/2000/svg" version="1.1" viewBox="0 0 88 30">
  <!-- Generator: Adobe Illustrator 29.4.0, SVG Export Plug-In . SVG Version: 2.1.0 Build 152)  -->
  <defs>
    <style>
      .st0 {
        fill: #95c326;
      }
    </style>
  </defs>
  <g>
    <path class="st0" d="M12.45,24.1c-.11-.08-.2-.19-.3-.28-.23-.22-.47-.43-.7-.65-.27-.25-.54-.5-.81-.75-.28-.26-.64-.48-.68-.9-.03-.26.07-.5.17-.74.06-.15.1-.29.14-.44.13-.42.25-.83.36-1.25.17-.64.33-1.29.47-1.94.18-.83.34-1.67.47-2.51.15-.98.28-1.97.36-2.97.09-1.1.14-2.2.14-3.3,0-.22.01-.43.03-.64.02-.34,0-.72-.28-.96-.27-.23-.65-.28-.99-.28h-3.35c-.27,0-.83.12-.79-.32.01-.1.02-.21.04-.31.07-.49.1-1.01.15-1.5.05-.5.09-.99.14-1.49,0,0,.4-1.41-.99-1.46l-1.76-.05s-1-.18-1.11.61l-.2,3.02s.05,1.31-1.09,1.46h-.46c-.23,0-.51-.04-.72.05-.17.08-.34.25-.45.41-.14.19-.21.42-.21.65v1.66s.2.91,1.19.91h.6s.25-.05.25.9c0,0-.79,5.64-1.49,7.4,0,0-.5.96.5,1.51l3.28,2.27s.75.5.45.9c0,0-1.94,2.11-4.22,3.27,0,0-.84.45-.15,1.31l1.64,1.96s.62.73,1.29.05c0,0,3.54-2.29,4.65-4.47l1.9,2.36s.7.76,1.24-.05c0,0,2.47-2.58,1.34-3.42h-.01ZM6.63,19.28s-.11.16-.32-.05c-.06-.04-.13-.09-.2-.13-.28-.18-.55-.37-.83-.56-.13-.09-.26-.17-.38-.25-.11-.07-.23-.12-.27-.24-.04-.11-.03-.23-.01-.34.02-.16.05-.32.09-.47.05-.23.08-.47.14-.7.06-.25.12-.49.17-.74.12-.64.25-1.29.36-1.93.11-.56.21-1.12.31-1.68.04-.24.09-.48.13-.71,0,0,.11-1.32,1.11-1.35h.72c.19,0,.39.08.5.25.08.14.05.26.04.42-.02.25-.04.5-.06.75-.06.67-.13,1.35-.21,2.02-.09.77-.2,1.55-.34,2.32-.12.72-.27,1.44-.47,2.15-.13.44-.27.88-.5,1.28l.02-.02Z"/>
    <path class="st0" d="M27.07,13.81h-3.25c-.23,0-.45-.03-.68-.08-.74-.28-.79-1.5-.15-2.42.64-.91.55-.79.83-1.18.36-.51.72-1.02,1.08-1.54.31-.44.62-.89.93-1.33.13-.19.27-.38.4-.57,0,0,.72-1.03.72-2.14v-.63s.2-1.66-1.64-1.66h-11s-1.32-.12-1.32,1.01v1.72s-.14,1.15,1.34,1.15h6.88s.29.04.11.31l-1.92,2.65s-1.03.95-1.03,2.49v.63c0,.38,0,.78-.19,1.11-.17.28-.45.49-.78.51h-3.93s-1.15-.1-1.15,1.01v1.88s-.02.93,1.17.93h3.8s1.05-.05,1.05.99v6.48s.14,1.01-1.03,1.01h-2.32s-1.11-.02-.85,1.03l.39,1.84s.15.99,1.81.99c0,0,4.29.06,4.98-.42,0,0,1.15-.12,1.15-2.69v-8.06s0-1.15,1.07-1.15h3.77s1.09-.04,1.09-1.03v-1.72s.13-1.12-1.33-1.12h.01Z"/>
  </g>
  <path class="st0" d="M56.02,16.06h-7.52c-.1,0-.82.03-1.04-.15-.11-.09-.23-.21-.27-.35-.06-.24-.04-.54.11-.74.18-.24.49-.3.76-.3h6s1.37.11,1.37-1.31v-4.88s.37-1.72-1.37-1.72h-17.36c-.18-.01-.36-.06-.52-.13-.25-.11-.54-.38-.44-.69.12-.35.49-.29.78-.3l1.22-.03c.55-.02,1.1-.03,1.65-.05.66-.02,1.32-.04,1.97-.07.73-.03,1.46-.05,2.19-.09.76-.03,1.52-.06,2.28-.1.76-.04,1.51-.08,2.28-.11.72-.04,1.44-.09,2.15-.14.64-.04,2.62-.21,2.97-.25.33-.04,1.35-.24,1.51-.37.17-.12.26-.23.37-.39.05-.09.08-.19.09-.3.02-.21-.07-.37-.15-.54-.08-.16-.45-.88-.55-1.09,0,0-.52-.94-2.07-.64,0,0-15.95,1.31-19.28,1.05,0,0-1.37-.04-1.37,1.24,0,0,.22,12.01-.22,13.93,0,0-.67,5.52-2.48,8.6,0,0-.89,1.61.85,1.88l2.67.08s1.11,0,1.44-1.43l1.41-5.93s.33-1.24,1.3-1.24h3.07s.66.1.68.53c-.05.29-.27,1.33-.92,2.54-.69,1.21-1.91,2.62-4,3.75-.04.02-.24.12-.25.13,0,0-1.14.54-.46,1.11l2.37,1.94s.63.75,1.58-.02c0,0,.79-.55,1.72-1.42.83-.76,1.9-1.89,2.6-3.27,0,0,.44-.75,1.51-.75h5.44s1.48-.19,1.48,1.01c0,0,.04,1.35-1.52,1.35l-3.15-.08s-1.37-.26-1.15,1.09l.3,1.5s.22,1.09,1.7,1.09c0,0,6.07.34,6.99-1.84,0,0,.7-1.39.82-2.86l.29-2.74s.41-1.61-1.11-1.61h-9.44s-1.03-.11-.85-.9c0,0,.11-.52.82-.52h10.66s1.59.19,1.59-1.12v-1.01s.22-1.31-1.48-1.31h-.02ZM35.71,15.95s-.05-.04-.07-.06c-.14-.14-.22-.32-.22-.52,0-.23.03-.41.16-.59.23-.34.62-.26.97-.26.3,0,5.88-.05,6.14.04.22.08.38.26.46.47.11.27.04.66-.19.85-.26.22-.5.19-.82.19-.63,0-5.66-.01-5.81-.02-.21-.01-.44.02-.62-.1h0ZM43.92,11.49h-7.2c-.51,0-1.1.15-1.41-.39-.11-.19-.11-.46-.09-.68.04-.46.47-.77.9-.78,1.04-.02,2.08.02,3.12.02,1.01,0,2.03.01,3.04.02h2.92c1.03,0,4.89-.04,5.78-.03.85.02,1.03,1.18.49,1.7-.1.09-.2.09-.33.11-.36.06-6.71.03-7.21.03h0Z"/>
  <path class="st0" d="M88,26.47V2.73c0-1.45-1.76-1.24-1.76-1.24h-14.21c-1.23,0-1.26,1.21-1.26,1.21v10.12c0,.61-.24.24-.24.24l-.54-2.09c-.18-.49-.69-.28-.69-.28l-1.37.3c-.54.09-.03-.79-.03-.79,1.5-2.57,2.36-5.3,2.36-5.3.18-.39-.18-.64-.18-.64l-2.42-.61c-.48-.15-.66.36-.66.36-.06.51-1.4,3.76-1.4,3.76-.21.64-.69,0-.69,0-.31-.32.06-.76.06-.76.69-1.09,1.91-4.52,1.91-4.52.15-.3-.06-.57-.06-.57l-2.6-1.09c-.48-.18-.54.36-.54.36.06.1-1.56,4.4-1.56,4.4-.69-.3-.84.3-.84.3-.25.42-.51.83-.76,1.25-.15.26-.35.51-.41.81-.03.14-.01.28.06.38.13.19,1.55,1.16,1.84,1.41.39.33.77.67,1.15,1,.53.48.14,1.25-.19,1.72-.3.43-.67,1.13-1.23,1.2-.29.04-.58.03-.87.06-.9.1-.6.76-.6.76.15.41.5,2.02.5,2.02.05.76.65.71.65.71l1.94-.3c.75,0,.65.56.65.56l-.05.81c-.1.76-.35.65-.35.65l-2.14-.3c-.75-.1-.65,1.07-.65,1.07-.05.96-.55,6.31-.55,6.31-.25,1.16.75,1.21.75,1.21l1.09.25c1.1.2,1.2-.65,1.2-.65l.25-3.28c0-.45.13-2.07.19-2.16.08-.12.2-.04.22.08.05.19.03,1.25.03,1.56v4.97c0,.34.03.83.34,1.03.21.13.56.06.8.06.39,0,.78-.01,1.18-.03.28-.01.58-.03.82-.19.17-.11.28-.31.25-.52v-6.97c0-1.11.25-.61.25-.61,0,0,.6,4.14.6,4.14.05.37.29.7.68.74.2.02.4-.04.59-.11.2-.07.41-.09.62-.11.6,0,.6.45.6.45v2.27c0,.96.75.96.75.96h1.79c.95,0,1.04-.76,1.04-.76v-10.15c0-.71.75-.65.75-.65.6,0,.54.71.54.71v3.69c0,1.62,1.25,1.77,1.25,1.77h6.22c.65,0,.6-.76.6-.76v-2.02c0-.61-.6-.66-.6-.66h-3.03c-1.09,0-1-1.01-1-1.01v-1.01c0-.76.79-.71.79-.71h3.64c1.1,0,.95.86.95.86v6.62c-.05.41-.82.47-1.11.5-.61.07-1.23.06-1.84.04-.22-.01-.49-.07-.7-.04-.75.11-.77.79-.77,1.41v1.37c0,.86.6,1.01.6,1.01.76.28,1.6.38,2.4.47,1.06.12,2.09.15,3.09-.27.63-.26,1.2-.68,1.56-1.28.3-.51.34-1.16.35-1.76h0ZM66.53,13.14c-.68.07-.51-.14-.51-.14l.85-1.03c.27.34.27.86.27.86-.03.34-.61.31-.61.31h0ZM70.52,20.55l-.23-1.37c-.17-.65-.51-.45-.51-.45l-1.76.45c-.68.21-.58-.72-.58-.72l-.07-1.27c-.03-.96.27-.82.27-.82.44,0,.44.76.44.76.1.62,2.03.17,2.03.17.61-.14.65.51.65.51l.03,2.02c0,1.44-.27.72-.27.72h0ZM77.25,14.26h-2.68s-.23.03-.23-.21v-1.12s-.05-.26.26-.26h2.71s.22-.04.22.21v1.23s.03.16-.28.16ZM80.66,5.71l-1.01,3.25c-.19.54-.58.42-.58.42h-.75c-.55.01-.36-.19-.36-.19l.82-.34c.49-.15.22-.55.22-.55-.12-.51-1.11-2.57-1.11-2.57-.25-.49-.73-.24-.73-.24l-1.95.92c-.57.22-.33.68-.33.68.43.67.88,1.95.88,1.95.12.41-.28.33-.28.33h-.65c-.54,0-.5-.36-.5-.36v-3.7c0-.42.59-.33.59-.33h8.98c.51,0,.51.39.51.39v3.65c0,.44-.32.35-.32.35h-.65c-.37.01-.28-.2-.28-.2l.66-2.25c.16-.47-.16-.62-.16-.62l-2.44-.88c-.45-.14-.58.3-.58.3h-.01ZM84.17,14.26h-2.67s-.23.03-.23-.21v-1.12s-.05-.26.26-.26h2.71s.22-.04.22.21v1.23s.03.16-.28.16h0Z"/>
</svg>