<svg width="160" height="40" viewBox="0 0 160 40" fill="none" xmlns="http://www.w3.org/2000/svg">
<rect width="160" height="40" rx="4" fill="#333333"/>
<g clip-path="url(#clip0_1086_9827)">
<path d="M23.6585 14.6833C22.671 14.6833 21.1429 13.5604 19.5335 13.6C17.4085 13.6281 15.4606 14.8323 14.3658 16.7396C12.1606 20.5677 13.7971 26.2219 15.9481 29.3333C17.0033 30.8479 18.2481 32.5521 19.8981 32.499C21.4814 32.4313 22.0752 31.4708 23.9971 31.4708C25.9043 31.4708 26.445 32.499 28.1221 32.4583C29.8273 32.4313 30.9096 30.9167 31.9512 29.3875C33.1554 27.6292 33.6554 25.924 33.6825 25.8302C33.6418 25.8167 30.3679 24.5583 30.3283 20.7708C30.3012 17.6042 32.9116 16.0896 33.0335 16.0219C31.545 13.8448 29.2596 13.601 28.4606 13.5469C26.3773 13.3844 24.6325 14.6833 23.6585 14.6833ZM27.1773 11.4896C28.0554 10.4354 28.6356 8.96146 28.4741 7.5C27.2168 7.55417 25.7012 8.33854 24.795 9.39375C23.9825 10.3271 23.2804 11.8292 23.4689 13.2625C24.8627 13.3708 26.2971 12.5458 27.1762 11.4906" fill="white"/>
</g>
<g clip-path="url(#clip1_1086_9827)">
<path d="M45.212 16.5V7.704H47.408C48.312 7.704 49.072 7.876 49.688 8.22C50.304 8.556 50.768 9.048 51.08 9.696C51.392 10.344 51.548 11.136 51.548 12.072C51.548 13 51.392 13.796 51.08 14.46C50.768 15.124 50.308 15.632 49.7 15.984C49.092 16.328 48.344 16.5 47.456 16.5H45.212ZM46.316 15.588H47.312C48 15.588 48.572 15.452 49.028 15.18C49.492 14.9 49.836 14.496 50.06 13.968C50.292 13.44 50.408 12.808 50.408 12.072C50.408 11.32 50.292 10.688 50.06 10.176C49.836 9.664 49.492 9.276 49.028 9.012C48.572 8.74 48 8.604 47.312 8.604H46.316V15.588ZM56.4977 16.656C55.9697 16.656 55.4737 16.524 55.0097 16.26C54.5457 15.988 54.1737 15.6 53.8937 15.096C53.6217 14.584 53.4857 13.968 53.4857 13.248C53.4857 12.52 53.6217 11.904 53.8937 11.4C54.1737 10.888 54.5457 10.496 55.0097 10.224C55.4737 9.952 55.9697 9.816 56.4977 9.816C56.8977 9.816 57.2777 9.892 57.6377 10.044C58.0057 10.196 58.3297 10.42 58.6097 10.716C58.8897 11.012 59.1097 11.372 59.2697 11.796C59.4297 12.22 59.5097 12.704 59.5097 13.248C59.5097 13.968 59.3697 14.584 59.0897 15.096C58.8097 15.6 58.4417 15.988 57.9857 16.26C57.5297 16.524 57.0337 16.656 56.4977 16.656ZM56.4977 15.744C56.8737 15.744 57.2017 15.64 57.4817 15.432C57.7697 15.224 57.9937 14.932 58.1537 14.556C58.3137 14.18 58.3937 13.744 58.3937 13.248C58.3937 12.744 58.3137 12.304 58.1537 11.928C57.9937 11.552 57.7697 11.26 57.4817 11.052C57.2017 10.844 56.8737 10.74 56.4977 10.74C56.1217 10.74 55.7897 10.844 55.5017 11.052C55.2217 11.26 55.0017 11.552 54.8417 11.928C54.6897 12.304 54.6137 12.744 54.6137 13.248C54.6137 13.744 54.6897 14.18 54.8417 14.556C55.0017 14.932 55.2217 15.224 55.5017 15.432C55.7897 15.64 56.1217 15.744 56.4977 15.744ZM62.793 16.5L60.981 9.984H62.097L63.069 13.752C63.141 14.064 63.205 14.368 63.261 14.664C63.325 14.96 63.389 15.26 63.453 15.564H63.513C63.585 15.26 63.653 14.96 63.717 14.664C63.789 14.368 63.865 14.064 63.945 13.752L64.965 9.984H66.033L67.053 13.752C67.133 14.064 67.209 14.368 67.281 14.664C67.361 14.96 67.437 15.26 67.509 15.564H67.569C67.633 15.26 67.697 14.96 67.761 14.664C67.825 14.368 67.893 14.064 67.965 13.752L68.913 9.984H69.969L68.205 16.5H66.873L65.937 12.984C65.857 12.68 65.781 12.376 65.709 12.072C65.637 11.76 65.565 11.44 65.493 11.112H65.433C65.361 11.44 65.289 11.76 65.217 12.072C65.153 12.384 65.077 12.696 64.989 13.008L64.065 16.5H62.793ZM71.9821 16.5V9.984H72.8821L72.9901 10.932H73.0141C73.3261 10.62 73.6541 10.356 73.9981 10.14C74.3501 9.924 74.7501 9.816 75.1981 9.816C75.8861 9.816 76.3901 10.036 76.7101 10.476C77.0301 10.908 77.1901 11.54 77.1901 12.372V16.5H76.0981V12.516C76.0981 11.9 75.9981 11.456 75.7981 11.184C75.6061 10.912 75.2941 10.776 74.8621 10.776C74.5261 10.776 74.2261 10.86 73.9621 11.028C73.6981 11.196 73.4061 11.444 73.0861 11.772V16.5H71.9821ZM81.0583 16.656C80.7863 16.656 80.5663 16.6 80.3983 16.488C80.2303 16.376 80.1063 16.212 80.0263 15.996C79.9463 15.772 79.9063 15.508 79.9063 15.204V6.948H81.0103V15.276C81.0103 15.444 81.0383 15.564 81.0943 15.636C81.1583 15.708 81.2303 15.744 81.3103 15.744C81.3423 15.744 81.3743 15.744 81.4063 15.744C81.4383 15.736 81.4823 15.728 81.5383 15.72L81.6943 16.56C81.6143 16.584 81.5263 16.604 81.4303 16.62C81.3343 16.644 81.2103 16.656 81.0583 16.656ZM86.4485 16.656C85.9205 16.656 85.4245 16.524 84.9605 16.26C84.4965 15.988 84.1245 15.6 83.8445 15.096C83.5725 14.584 83.4365 13.968 83.4365 13.248C83.4365 12.52 83.5725 11.904 83.8445 11.4C84.1245 10.888 84.4965 10.496 84.9605 10.224C85.4245 9.952 85.9205 9.816 86.4485 9.816C86.8485 9.816 87.2285 9.892 87.5885 10.044C87.9565 10.196 88.2805 10.42 88.5605 10.716C88.8405 11.012 89.0605 11.372 89.2205 11.796C89.3805 12.22 89.4605 12.704 89.4605 13.248C89.4605 13.968 89.3205 14.584 89.0405 15.096C88.7605 15.6 88.3925 15.988 87.9365 16.26C87.4805 16.524 86.9845 16.656 86.4485 16.656ZM86.4485 15.744C86.8245 15.744 87.1525 15.64 87.4325 15.432C87.7205 15.224 87.9445 14.932 88.1045 14.556C88.2645 14.18 88.3445 13.744 88.3445 13.248C88.3445 12.744 88.2645 12.304 88.1045 11.928C87.9445 11.552 87.7205 11.26 87.4325 11.052C87.1525 10.844 86.8245 10.74 86.4485 10.74C86.0725 10.74 85.7405 10.844 85.4525 11.052C85.1725 11.26 84.9525 11.552 84.7925 11.928C84.6405 12.304 84.5645 12.744 84.5645 13.248C84.5645 13.744 84.6405 14.18 84.7925 14.556C84.9525 14.932 85.1725 15.224 85.4525 15.432C85.7405 15.64 86.0725 15.744 86.4485 15.744ZM93.0712 16.656C92.7112 16.656 92.3872 16.584 92.0992 16.44C91.8112 16.296 91.5832 16.088 91.4152 15.816C91.2552 15.536 91.1752 15.2 91.1752 14.808C91.1752 14.096 91.4912 13.552 92.1232 13.176C92.7632 12.792 93.7792 12.524 95.1712 12.372C95.1712 12.092 95.1312 11.828 95.0512 11.58C94.9792 11.324 94.8472 11.12 94.6552 10.968C94.4632 10.808 94.1872 10.728 93.8272 10.728C93.4512 10.728 93.0952 10.804 92.7592 10.956C92.4312 11.1 92.1352 11.256 91.8712 11.424L91.4512 10.668C91.6512 10.54 91.8832 10.412 92.1472 10.284C92.4112 10.148 92.6992 10.036 93.0112 9.948C93.3232 9.86 93.6552 9.816 94.0072 9.816C94.5352 9.816 94.9632 9.928 95.2912 10.152C95.6272 10.376 95.8712 10.688 96.0232 11.088C96.1832 11.48 96.2632 11.948 96.2632 12.492V16.5H95.3632L95.2672 15.72H95.2312C94.9272 15.976 94.5912 16.196 94.2232 16.38C93.8632 16.564 93.4792 16.656 93.0712 16.656ZM93.3832 15.768C93.6952 15.768 93.9912 15.696 94.2712 15.552C94.5592 15.408 94.8592 15.196 95.1712 14.916V13.104C94.4432 13.184 93.8632 13.3 93.4312 13.452C92.9992 13.596 92.6912 13.776 92.5072 13.992C92.3232 14.2 92.2312 14.448 92.2312 14.736C92.2312 15.112 92.3432 15.38 92.5672 15.54C92.7912 15.692 93.0632 15.768 93.3832 15.768ZM101.153 16.656C100.609 16.656 100.133 16.524 99.7249 16.26C99.3249 15.996 99.0129 15.612 98.7889 15.108C98.5729 14.596 98.4649 13.976 98.4649 13.248C98.4649 12.544 98.5969 11.936 98.8609 11.424C99.1249 10.912 99.4689 10.516 99.8929 10.236C100.325 9.956 100.789 9.816 101.285 9.816C101.669 9.816 101.997 9.884 102.269 10.02C102.549 10.148 102.833 10.332 103.121 10.572L103.061 9.456V6.948H104.165V16.5H103.265L103.169 15.732H103.133C102.877 15.988 102.581 16.208 102.245 16.392C101.909 16.568 101.545 16.656 101.153 16.656ZM101.393 15.732C101.697 15.732 101.985 15.66 102.257 15.516C102.529 15.364 102.797 15.14 103.061 14.844V11.424C102.789 11.176 102.525 11 102.269 10.896C102.013 10.792 101.749 10.74 101.477 10.74C101.133 10.74 100.817 10.848 100.529 11.064C100.249 11.272 100.021 11.564 99.8449 11.94C99.6769 12.308 99.5929 12.74 99.5929 13.236C99.5929 13.756 99.6649 14.204 99.8089 14.58C99.9529 14.956 100.157 15.244 100.421 15.444C100.693 15.636 101.017 15.732 101.393 15.732ZM112.79 16.656C112.262 16.656 111.766 16.524 111.302 16.26C110.838 15.988 110.466 15.6 110.186 15.096C109.914 14.584 109.778 13.968 109.778 13.248C109.778 12.52 109.914 11.904 110.186 11.4C110.466 10.888 110.838 10.496 111.302 10.224C111.766 9.952 112.262 9.816 112.79 9.816C113.19 9.816 113.57 9.892 113.93 10.044C114.298 10.196 114.622 10.42 114.902 10.716C115.182 11.012 115.402 11.372 115.562 11.796C115.722 12.22 115.802 12.704 115.802 13.248C115.802 13.968 115.662 14.584 115.382 15.096C115.102 15.6 114.734 15.988 114.278 16.26C113.822 16.524 113.326 16.656 112.79 16.656ZM112.79 15.744C113.166 15.744 113.494 15.64 113.774 15.432C114.062 15.224 114.286 14.932 114.446 14.556C114.606 14.18 114.686 13.744 114.686 13.248C114.686 12.744 114.606 12.304 114.446 11.928C114.286 11.552 114.062 11.26 113.774 11.052C113.494 10.844 113.166 10.74 112.79 10.74C112.414 10.74 112.082 10.844 111.794 11.052C111.514 11.26 111.294 11.552 111.134 11.928C110.982 12.304 110.906 12.744 110.906 13.248C110.906 13.744 110.982 14.18 111.134 14.556C111.294 14.932 111.514 15.224 111.794 15.432C112.082 15.64 112.414 15.744 112.79 15.744ZM118.135 16.5V9.984H119.035L119.143 10.932H119.167C119.479 10.62 119.807 10.356 120.151 10.14C120.503 9.924 120.903 9.816 121.351 9.816C122.039 9.816 122.543 10.036 122.863 10.476C123.183 10.908 123.343 11.54 123.343 12.372V16.5H122.251V12.516C122.251 11.9 122.151 11.456 121.951 11.184C121.759 10.912 121.447 10.776 121.015 10.776C120.679 10.776 120.379 10.86 120.115 11.028C119.851 11.196 119.559 11.444 119.239 11.772V16.5H118.135ZM131.383 16.656C130.927 16.656 130.563 16.568 130.291 16.392C130.019 16.208 129.823 15.952 129.703 15.624C129.591 15.296 129.535 14.916 129.535 14.484V10.872H128.563V10.044L129.595 9.984L129.715 8.148H130.627V9.984H132.403V10.872H130.627V14.52C130.627 14.912 130.699 15.22 130.843 15.444C130.995 15.66 131.259 15.768 131.635 15.768C131.755 15.768 131.883 15.752 132.019 15.72C132.155 15.68 132.275 15.636 132.379 15.588L132.595 16.416C132.411 16.48 132.215 16.536 132.007 16.584C131.799 16.632 131.591 16.656 131.383 16.656ZM134.467 16.5V6.948H135.571V9.564L135.523 10.908C135.827 10.604 136.151 10.348 136.495 10.14C136.839 9.924 137.235 9.816 137.683 9.816C138.371 9.816 138.875 10.036 139.195 10.476C139.515 10.908 139.675 11.54 139.675 12.372V16.5H138.583V12.516C138.583 11.9 138.483 11.456 138.283 11.184C138.091 10.912 137.779 10.776 137.347 10.776C137.011 10.776 136.711 10.86 136.447 11.028C136.183 11.196 135.891 11.444 135.571 11.772V16.5H134.467ZM144.996 16.656C144.412 16.656 143.884 16.52 143.412 16.248C142.94 15.976 142.564 15.588 142.284 15.084C142.012 14.572 141.876 13.96 141.876 13.248C141.876 12.712 141.956 12.236 142.116 11.82C142.276 11.396 142.492 11.036 142.764 10.74C143.044 10.436 143.36 10.208 143.712 10.056C144.064 9.896 144.424 9.816 144.792 9.816C145.352 9.816 145.824 9.94 146.208 10.188C146.592 10.436 146.884 10.792 147.084 11.256C147.292 11.712 147.396 12.252 147.396 12.876C147.396 12.996 147.392 13.108 147.384 13.212C147.376 13.316 147.364 13.412 147.348 13.5H142.956C142.98 13.964 143.084 14.368 143.268 14.712C143.46 15.048 143.712 15.312 144.024 15.504C144.336 15.688 144.7 15.78 145.116 15.78C145.436 15.78 145.724 15.736 145.98 15.648C146.244 15.552 146.5 15.424 146.748 15.264L147.132 15.996C146.852 16.18 146.536 16.336 146.184 16.464C145.832 16.592 145.436 16.656 144.996 16.656ZM142.944 12.72H146.436C146.436 12.064 146.292 11.564 146.004 11.22C145.724 10.868 145.328 10.692 144.816 10.692C144.512 10.692 144.224 10.772 143.952 10.932C143.688 11.092 143.464 11.32 143.28 11.616C143.104 11.912 142.992 12.28 142.944 12.72Z" fill="white"/>
<path d="M43.944 30.5L47.262 20.126H49.712L53.03 30.5H50.846L49.376 25.096C49.2173 24.5547 49.0633 23.9947 48.914 23.416C48.774 22.828 48.6247 22.2587 48.466 21.708H48.41C48.2793 22.268 48.1347 22.8373 47.976 23.416C47.8267 23.9947 47.6773 24.5547 47.528 25.096L46.044 30.5H43.944ZM46.002 27.84V26.23H50.93V27.84H46.002ZM54.7747 33.51V22.66H56.4548L56.6087 23.472H56.6508C56.9774 23.192 57.3368 22.954 57.7288 22.758C58.1301 22.562 58.5407 22.464 58.9608 22.464C59.6048 22.464 60.1554 22.632 60.6128 22.968C61.0701 23.2947 61.4201 23.7567 61.6628 24.354C61.9148 24.942 62.0408 25.642 62.0408 26.454C62.0408 27.35 61.8821 28.1153 61.5647 28.75C61.2474 29.3847 60.8321 29.87 60.3188 30.206C59.8148 30.5327 59.2781 30.696 58.7088 30.696C58.3727 30.696 58.0367 30.6213 57.7008 30.472C57.3741 30.3227 57.0614 30.1127 56.7628 29.842L56.8327 31.116V33.51H54.7747ZM58.2607 29.002C58.5688 29.002 58.8488 28.9133 59.1007 28.736C59.3528 28.5493 59.5534 28.2693 59.7028 27.896C59.8521 27.5227 59.9268 27.0513 59.9268 26.482C59.9268 25.9873 59.8708 25.5673 59.7588 25.222C59.6468 24.8673 59.4787 24.6013 59.2548 24.424C59.0308 24.2467 58.7368 24.158 58.3728 24.158C58.1114 24.158 57.8548 24.2233 57.6028 24.354C57.3601 24.4847 57.1034 24.6853 56.8327 24.956V28.414C57.0848 28.638 57.3321 28.792 57.5748 28.876C57.8174 28.96 58.0461 29.002 58.2607 29.002ZM64.4845 33.51V22.66H66.1645L66.3185 23.472H66.3605C66.6872 23.192 67.0465 22.954 67.4385 22.758C67.8398 22.562 68.2505 22.464 68.6705 22.464C69.3145 22.464 69.8652 22.632 70.3225 22.968C70.7798 23.2947 71.1298 23.7567 71.3725 24.354C71.6245 24.942 71.7505 25.642 71.7505 26.454C71.7505 27.35 71.5918 28.1153 71.2745 28.75C70.9572 29.3847 70.5418 29.87 70.0285 30.206C69.5245 30.5327 68.9878 30.696 68.4185 30.696C68.0825 30.696 67.7465 30.6213 67.4105 30.472C67.0838 30.3227 66.7712 30.1127 66.4725 29.842L66.5425 31.116V33.51H64.4845ZM67.9705 29.002C68.2785 29.002 68.5585 28.9133 68.8105 28.736C69.0625 28.5493 69.2632 28.2693 69.4125 27.896C69.5618 27.5227 69.6365 27.0513 69.6365 26.482C69.6365 25.9873 69.5805 25.5673 69.4685 25.222C69.3565 24.8673 69.1885 24.6013 68.9645 24.424C68.7405 24.2467 68.4465 24.158 68.0825 24.158C67.8212 24.158 67.5645 24.2233 67.3125 24.354C67.0698 24.4847 66.8132 24.6853 66.5425 24.956V28.414C66.7945 28.638 67.0418 28.792 67.2845 28.876C67.5272 28.96 67.7558 29.002 67.9705 29.002ZM81.3282 30.696C80.6375 30.696 79.9608 30.5653 79.2982 30.304C78.6355 30.0427 78.0522 29.6693 77.5482 29.184L78.7382 27.756C79.1022 28.1013 79.5175 28.3813 79.9842 28.596C80.4602 28.8013 80.9222 28.904 81.3702 28.904C81.9115 28.904 82.3222 28.7967 82.6022 28.582C82.8822 28.3673 83.0222 28.078 83.0222 27.714C83.0222 27.4527 82.9522 27.2473 82.8122 27.098C82.6815 26.9393 82.4995 26.7993 82.2662 26.678C82.0328 26.5567 81.7622 26.4353 81.4542 26.314L80.0822 25.712C79.7368 25.572 79.4008 25.3853 79.0742 25.152C78.7568 24.9093 78.4908 24.606 78.2762 24.242C78.0708 23.878 77.9682 23.444 77.9682 22.94C77.9682 22.3707 78.1222 21.862 78.4302 21.414C78.7382 20.966 79.1628 20.6113 79.7042 20.35C80.2455 20.0793 80.8615 19.944 81.5522 19.944C82.1682 19.944 82.7608 20.0607 83.3302 20.294C83.8995 20.5273 84.3942 20.8587 84.8142 21.288L83.7642 22.576C83.4375 22.3053 83.0968 22.0953 82.7422 21.946C82.3875 21.7967 81.9908 21.722 81.5522 21.722C81.1042 21.722 80.7448 21.82 80.4742 22.016C80.2128 22.2027 80.0822 22.4687 80.0822 22.814C80.0822 23.0567 80.1568 23.2573 80.3062 23.416C80.4555 23.5747 80.6515 23.7147 80.8942 23.836C81.1368 23.948 81.4028 24.0647 81.6922 24.186L83.0502 24.732C83.4702 24.9 83.8342 25.11 84.1422 25.362C84.4595 25.614 84.7022 25.9173 84.8702 26.272C85.0475 26.6267 85.1362 27.056 85.1362 27.56C85.1362 28.12 84.9822 28.638 84.6742 29.114C84.3755 29.59 83.9415 29.9727 83.3722 30.262C82.8122 30.5513 82.1308 30.696 81.3282 30.696ZM89.8666 30.696C89.2506 30.696 88.7513 30.5747 88.3686 30.332C87.986 30.08 87.7106 29.7347 87.5426 29.296C87.3746 28.8573 87.2906 28.3487 87.2906 27.77V24.284H86.1846V22.758L87.4026 22.66L87.6406 20.546H89.3346V22.66H91.2806V24.284H89.3346V27.756C89.3346 28.204 89.428 28.5353 89.6146 28.75C89.8013 28.9647 90.0673 29.072 90.4126 29.072C90.5433 29.072 90.6786 29.0533 90.8186 29.016C90.9586 28.9787 91.08 28.9413 91.1826 28.904L91.5326 30.402C91.318 30.4673 91.0706 30.5327 90.7906 30.598C90.52 30.6633 90.212 30.696 89.8666 30.696ZM96.5234 30.696C95.8701 30.696 95.2541 30.5327 94.6754 30.206C94.1061 29.8793 93.6441 29.4127 93.2894 28.806C92.9347 28.19 92.7574 27.448 92.7574 26.58C92.7574 25.712 92.9347 24.9747 93.2894 24.368C93.6441 23.752 94.1061 23.2807 94.6754 22.954C95.2541 22.6273 95.8701 22.464 96.5234 22.464C97.0181 22.464 97.4894 22.5573 97.9374 22.744C98.3854 22.9307 98.7867 23.2013 99.1414 23.556C99.4961 23.9013 99.7761 24.3307 99.9814 24.844C100.187 25.348 100.289 25.9267 100.289 26.58C100.289 27.448 100.112 28.19 99.7574 28.806C99.4027 29.4127 98.9361 29.8793 98.3574 30.206C97.7881 30.5327 97.1767 30.696 96.5234 30.696ZM96.5234 29.016C96.8781 29.016 97.1767 28.918 97.4194 28.722C97.6714 28.5167 97.8581 28.232 97.9794 27.868C98.1101 27.504 98.1754 27.0747 98.1754 26.58C98.1754 26.0853 98.1101 25.656 97.9794 25.292C97.8581 24.928 97.6714 24.648 97.4194 24.452C97.1767 24.2467 96.8781 24.144 96.5234 24.144C96.1687 24.144 95.8654 24.2467 95.6134 24.452C95.3707 24.648 95.1841 24.928 95.0534 25.292C94.9321 25.656 94.8714 26.0853 94.8714 26.58C94.8714 27.0747 94.9321 27.504 95.0534 27.868C95.1841 28.232 95.3707 28.5167 95.6134 28.722C95.8654 28.918 96.1687 29.016 96.5234 29.016ZM102.711 30.5V22.66H104.391L104.545 24.046H104.587C104.876 23.5327 105.217 23.1407 105.609 22.87C106.001 22.5993 106.402 22.464 106.813 22.464C107.037 22.464 107.214 22.4827 107.345 22.52C107.485 22.548 107.611 22.5853 107.723 22.632L107.387 24.41C107.238 24.3727 107.102 24.3447 106.981 24.326C106.869 24.298 106.724 24.284 106.547 24.284C106.248 24.284 105.931 24.4007 105.595 24.634C105.268 24.8673 104.993 25.264 104.769 25.824V30.5H102.711ZM112.706 30.696C111.978 30.696 111.32 30.5327 110.732 30.206C110.144 29.8793 109.673 29.408 109.318 28.792C108.973 28.176 108.8 27.4387 108.8 26.58C108.8 25.9453 108.898 25.376 109.094 24.872C109.299 24.368 109.575 23.9387 109.92 23.584C110.275 23.22 110.667 22.9447 111.096 22.758C111.535 22.562 111.987 22.464 112.454 22.464C113.173 22.464 113.775 22.6273 114.26 22.954C114.745 23.2713 115.109 23.7147 115.352 24.284C115.604 24.844 115.73 25.488 115.73 26.216C115.73 26.4027 115.721 26.5847 115.702 26.762C115.683 26.93 115.66 27.0653 115.632 27.168H110.802C110.858 27.588 110.984 27.9427 111.18 28.232C111.376 28.5213 111.628 28.7407 111.936 28.89C112.244 29.03 112.594 29.1 112.986 29.1C113.303 29.1 113.602 29.058 113.882 28.974C114.162 28.8807 114.447 28.7453 114.736 28.568L115.436 29.828C115.053 30.0893 114.624 30.2993 114.148 30.458C113.672 30.6167 113.191 30.696 112.706 30.696ZM110.76 25.782H113.966C113.966 25.2593 113.845 24.844 113.602 24.536C113.369 24.2187 112.995 24.06 112.482 24.06C112.211 24.06 111.955 24.1253 111.712 24.256C111.469 24.3773 111.264 24.5687 111.096 24.83C110.928 25.082 110.816 25.3993 110.76 25.782Z" fill="white"/>
</g>
<defs>
<clipPath id="clip0_1086_9827">
<rect width="25" height="25" fill="white" transform="translate(11 7.5)"/>
</clipPath>
<clipPath id="clip1_1086_9827">
<rect width="105" height="33" fill="white" transform="translate(44 3.5)"/>
</clipPath>
</defs>
</svg>
