<?xml version="1.0" encoding="UTF-8"?>
<svg id="_圖層_1" data-name="圖層_1" xmlns="http://www.w3.org/2000/svg" version="1.1" viewBox="0 0 6 10">
  <!-- Generator: Adobe Illustrator 30.2.1, SVG Export Plug-In . SVG Version: 2.1.1 Build 1)  -->
  <defs>
    <style>
      .st0 {
        fill: #c3c8ce;
      }
    </style>
  </defs>
  <path class="st0" d="M5.8,5.46L1.18,9.81c-.13.12-.31.19-.49.19s-.36-.07-.49-.19C.07,9.69,0,9.52,0,9.35s.07-.34.2-.46l4.12-3.88L.2,1.12c-.06-.06-.12-.13-.15-.21C.02.82,0,.74,0,.65s.02-.17.05-.25c.03-.08.09-.15.15-.21.06-.06.14-.11.22-.14C.51.02.6,0,.69,0s.18.02.27.05c.08.03.16.08.22.14l4.61,4.35c.06.06.12.13.15.21.03.08.05.16.05.25,0,.09-.02.17-.05.25-.04.08-.09.15-.15.21Z"/>
</svg>