<svg width="160" height="40" viewBox="0 0 160 40" fill="none" xmlns="http://www.w3.org/2000/svg">
<rect width="160" height="40" rx="4" fill="#333333"/>
<g clip-path="url(#clip0_1086_9828)">
<path d="M30.7411 19.4183L20.0952 30.3852C20.2148 30.8018 20.4296 31.186 20.7233 31.5084C21.017 31.8308 21.3818 32.083 21.7898 32.2455C22.1978 32.4081 22.6382 32.4768 23.0773 32.4463C23.5164 32.4159 23.9427 32.2872 24.3234 32.0699L36.302 25.362L30.7411 19.4183Z" fill="#EA4335"/>
<path d="M41.5057 17.5543L36.3258 14.637L30.4951 19.6679L36.3495 25.3463L41.49 22.4603C41.9454 22.2258 42.3268 21.8733 42.593 21.4409C42.8591 21.0085 42.9998 20.5127 42.9998 20.0072C42.9998 19.5018 42.8591 19.006 42.593 18.5736C42.3268 18.1412 41.9454 17.7886 41.49 17.5542L41.5057 17.5543Z" fill="#FBBC04"/>
<path d="M20.0953 9.57483C20.031 9.80874 19.9989 10.0501 20 10.2924V29.6676C20.0007 29.9098 20.0327 30.151 20.0953 30.3853L31.1061 19.6992L20.0953 9.57483Z" fill="#4285F4"/>
<path d="M30.8204 19.98L36.3258 14.637L24.3632 7.8978C23.9131 7.63863 23.4012 7.50137 22.8796 7.50001C21.5852 7.49753 20.4472 8.34223 20.0952 9.56705L30.8204 19.98Z" fill="#34A853"/>
</g>
<g clip-path="url(#clip1_1086_9828)">
<path d="M55.668 16.656C54.892 16.656 54.204 16.476 53.604 16.116C53.012 15.756 52.544 15.236 52.2 14.556C51.864 13.876 51.696 13.06 51.696 12.108C51.696 11.396 51.796 10.76 51.996 10.2C52.196 9.632 52.476 9.152 52.836 8.76C53.204 8.368 53.632 8.068 54.12 7.86C54.608 7.652 55.144 7.548 55.728 7.548C56.344 7.548 56.856 7.664 57.264 7.896C57.672 8.12 58.004 8.364 58.26 8.628L57.66 9.348C57.436 9.116 57.172 8.92 56.868 8.76C56.572 8.6 56.204 8.52 55.764 8.52C55.172 8.52 54.656 8.664 54.216 8.952C53.776 9.24 53.436 9.652 53.196 10.188C52.956 10.716 52.836 11.344 52.836 12.072C52.836 12.816 52.948 13.46 53.172 14.004C53.404 14.54 53.74 14.956 54.18 15.252C54.62 15.54 55.152 15.684 55.776 15.684C56.088 15.684 56.384 15.64 56.664 15.552C56.952 15.456 57.184 15.328 57.36 15.168V12.864H55.488V11.94H58.38V15.636C58.092 15.932 57.712 16.176 57.24 16.368C56.776 16.56 56.252 16.656 55.668 16.656ZM61.0854 16.5V7.704H66.1494V8.64H62.1894V11.4H65.5254V12.348H62.1894V15.552H66.2814V16.5H61.0854ZM70.5758 16.5V8.64H67.9118V7.704H74.3558V8.64H71.6918V16.5H70.5758ZM79.819 16.5V7.704H80.923V16.5H79.819ZM85.7587 16.5V8.64H83.0947V7.704H89.5387V8.64H86.8747V16.5H85.7587ZM98.2418 16.656C97.5058 16.656 96.8538 16.472 96.2858 16.104C95.7258 15.728 95.2858 15.196 94.9658 14.508C94.6458 13.82 94.4858 13.008 94.4858 12.072C94.4858 11.128 94.6458 10.32 94.9658 9.648C95.2858 8.968 95.7258 8.448 96.2858 8.088C96.8538 7.728 97.5058 7.548 98.2418 7.548C98.9778 7.548 99.6258 7.732 100.186 8.1C100.754 8.46 101.198 8.976 101.518 9.648C101.838 10.32 101.998 11.128 101.998 12.072C101.998 13.008 101.838 13.82 101.518 14.508C101.198 15.196 100.754 15.728 100.186 16.104C99.6258 16.472 98.9778 16.656 98.2418 16.656ZM98.2418 15.684C98.7698 15.684 99.2298 15.536 99.6218 15.24C100.014 14.944 100.318 14.524 100.534 13.98C100.75 13.436 100.858 12.8 100.858 12.072C100.858 11.336 100.75 10.704 100.534 10.176C100.318 9.64 100.014 9.232 99.6218 8.952C99.2298 8.664 98.7698 8.52 98.2418 8.52C97.7218 8.52 97.2618 8.664 96.8618 8.952C96.4698 9.232 96.1658 9.64 95.9498 10.176C95.7338 10.704 95.6258 11.336 95.6258 12.072C95.6258 12.8 95.7338 13.436 95.9498 13.98C96.1658 14.524 96.4698 14.944 96.8618 15.24C97.2618 15.536 97.7218 15.684 98.2418 15.684ZM104.508 16.5V7.704H105.636L108.852 13.248L109.8 15.06H109.86C109.82 14.62 109.784 14.16 109.752 13.68C109.72 13.2 109.704 12.732 109.704 12.276V7.704H110.76V16.5H109.62L106.416 10.944L105.468 9.144H105.42C105.444 9.584 105.472 10.036 105.504 10.5C105.536 10.956 105.552 11.416 105.552 11.88V16.5H104.508Z" fill="white"/>
<path d="M56.726 30.696C55.7927 30.696 54.948 30.4907 54.192 30.08C53.4453 29.6693 52.8527 29.0673 52.414 28.274C51.9753 27.4807 51.756 26.51 51.756 25.362C51.756 24.5033 51.882 23.7427 52.134 23.08C52.3953 22.408 52.7547 21.8387 53.212 21.372C53.6693 20.9053 54.1967 20.5507 54.794 20.308C55.3913 20.0653 56.0353 19.944 56.726 19.944C57.4727 19.944 58.1073 20.084 58.63 20.364C59.162 20.6347 59.596 20.938 59.932 21.274L58.826 22.59C58.5647 22.3473 58.2753 22.142 57.958 21.974C57.65 21.806 57.2627 21.722 56.796 21.722C56.2173 21.722 55.7087 21.8667 55.27 22.156C54.8313 22.436 54.4907 22.842 54.248 23.374C54.0053 23.906 53.884 24.5453 53.884 25.292C53.884 26.048 53.996 26.6967 54.22 27.238C54.4533 27.77 54.7987 28.1807 55.256 28.47C55.7133 28.7593 56.278 28.904 56.95 28.904C57.202 28.904 57.4447 28.8713 57.678 28.806C57.9113 28.7313 58.098 28.6333 58.238 28.512V26.468H56.404V24.774H60.1V29.45C59.7453 29.7953 59.274 30.0893 58.686 30.332C58.098 30.5747 57.4447 30.696 56.726 30.696ZM66.1172 30.696C65.4638 30.696 64.8478 30.5327 64.2692 30.206C63.6998 29.8793 63.2378 29.4127 62.8832 28.806C62.5285 28.19 62.3512 27.448 62.3512 26.58C62.3512 25.712 62.5285 24.9747 62.8832 24.368C63.2378 23.752 63.6998 23.2807 64.2692 22.954C64.8478 22.6273 65.4638 22.464 66.1172 22.464C66.6118 22.464 67.0832 22.5573 67.5312 22.744C67.9792 22.9307 68.3805 23.2013 68.7352 23.556C69.0898 23.9013 69.3698 24.3307 69.5752 24.844C69.7805 25.348 69.8832 25.9267 69.8832 26.58C69.8832 27.448 69.7058 28.19 69.3512 28.806C68.9965 29.4127 68.5298 29.8793 67.9512 30.206C67.3818 30.5327 66.7705 30.696 66.1172 30.696ZM66.1172 29.016C66.4718 29.016 66.7705 28.918 67.0132 28.722C67.2652 28.5167 67.4518 28.232 67.5732 27.868C67.7038 27.504 67.7692 27.0747 67.7692 26.58C67.7692 26.0853 67.7038 25.656 67.5732 25.292C67.4518 24.928 67.2652 24.648 67.0132 24.452C66.7705 24.2467 66.4718 24.144 66.1172 24.144C65.7625 24.144 65.4592 24.2467 65.2072 24.452C64.9645 24.648 64.7778 24.928 64.6472 25.292C64.5258 25.656 64.4652 26.0853 64.4652 26.58C64.4652 27.0747 64.5258 27.504 64.6472 27.868C64.7778 28.232 64.9645 28.5167 65.2072 28.722C65.4592 28.918 65.7625 29.016 66.1172 29.016ZM75.5808 30.696C74.9275 30.696 74.3115 30.5327 73.7328 30.206C73.1635 29.8793 72.7015 29.4127 72.3468 28.806C71.9922 28.19 71.8148 27.448 71.8148 26.58C71.8148 25.712 71.9922 24.9747 72.3468 24.368C72.7015 23.752 73.1635 23.2807 73.7328 22.954C74.3115 22.6273 74.9275 22.464 75.5808 22.464C76.0755 22.464 76.5468 22.5573 76.9948 22.744C77.4428 22.9307 77.8442 23.2013 78.1988 23.556C78.5535 23.9013 78.8335 24.3307 79.0388 24.844C79.2442 25.348 79.3468 25.9267 79.3468 26.58C79.3468 27.448 79.1695 28.19 78.8148 28.806C78.4602 29.4127 77.9935 29.8793 77.4148 30.206C76.8455 30.5327 76.2342 30.696 75.5808 30.696ZM75.5808 29.016C75.9355 29.016 76.2342 28.918 76.4768 28.722C76.7288 28.5167 76.9155 28.232 77.0368 27.868C77.1675 27.504 77.2328 27.0747 77.2328 26.58C77.2328 26.0853 77.1675 25.656 77.0368 25.292C76.9155 24.928 76.7288 24.648 76.4768 24.452C76.2342 24.2467 75.9355 24.144 75.5808 24.144C75.2262 24.144 74.9228 24.2467 74.6708 24.452C74.4282 24.648 74.2415 24.928 74.1108 25.292C73.9895 25.656 73.9288 26.0853 73.9288 26.58C73.9288 27.0747 73.9895 27.504 74.1108 27.868C74.2415 28.232 74.4282 28.5167 74.6708 28.722C74.9228 28.918 75.2262 29.016 75.5808 29.016ZM84.5265 33.902C83.9105 33.902 83.3552 33.8273 82.8605 33.678C82.3658 33.538 81.9738 33.3187 81.6845 33.02C81.4045 32.7307 81.2645 32.3527 81.2645 31.886C81.2645 31.5593 81.3578 31.256 81.5445 30.976C81.7312 30.696 82.0112 30.458 82.3845 30.262V30.192C82.1792 30.0613 82.0065 29.8887 81.8665 29.674C81.7358 29.4593 81.6705 29.1887 81.6705 28.862C81.6705 28.5727 81.7545 28.302 81.9225 28.05C82.0998 27.7887 82.3052 27.574 82.5385 27.406V27.35C82.2678 27.154 82.0252 26.8787 81.8105 26.524C81.5958 26.1693 81.4885 25.7587 81.4885 25.292C81.4885 24.676 81.6332 24.158 81.9225 23.738C82.2212 23.318 82.6132 23.0007 83.0985 22.786C83.5838 22.5713 84.0972 22.464 84.6385 22.464C84.8718 22.464 85.0865 22.4827 85.2825 22.52C85.4878 22.5573 85.6745 22.604 85.8425 22.66H88.6565V24.172H87.3265C87.4292 24.312 87.5132 24.4847 87.5785 24.69C87.6438 24.8953 87.6765 25.1193 87.6765 25.362C87.6765 25.95 87.5412 26.4447 87.2705 26.846C86.9998 27.238 86.6358 27.532 86.1785 27.728C85.7212 27.924 85.2078 28.022 84.6385 28.022C84.4985 28.022 84.3398 28.008 84.1625 27.98C83.9852 27.9427 83.8078 27.896 83.6305 27.84C83.5278 27.9333 83.4438 28.0313 83.3785 28.134C83.3225 28.2273 83.2945 28.358 83.2945 28.526C83.2945 28.722 83.3832 28.876 83.5605 28.988C83.7472 29.1 84.0692 29.156 84.5265 29.156H85.8705C86.8132 29.156 87.5365 29.3147 88.0405 29.632C88.5445 29.94 88.7965 30.4347 88.7965 31.116C88.7965 31.648 88.6192 32.1193 88.2645 32.53C87.9192 32.95 87.4245 33.2813 86.7805 33.524C86.1458 33.776 85.3945 33.902 84.5265 33.902ZM84.6385 26.748C84.8718 26.748 85.0818 26.692 85.2685 26.58C85.4552 26.468 85.6045 26.3047 85.7165 26.09C85.8285 25.866 85.8845 25.6 85.8845 25.292C85.8845 24.984 85.8285 24.7273 85.7165 24.522C85.6045 24.3073 85.4552 24.1487 85.2685 24.046C85.0818 23.934 84.8718 23.878 84.6385 23.878C84.4145 23.878 84.2092 23.934 84.0225 24.046C83.8358 24.1487 83.6865 24.3073 83.5745 24.522C83.4718 24.7273 83.4205 24.984 83.4205 25.292C83.4205 25.6 83.4718 25.866 83.5745 26.09C83.6865 26.3047 83.8358 26.468 84.0225 26.58C84.2092 26.692 84.4145 26.748 84.6385 26.748ZM84.8345 32.586C85.2358 32.586 85.5812 32.5347 85.8705 32.432C86.1692 32.3293 86.4025 32.194 86.5705 32.026C86.7385 31.858 86.8225 31.6713 86.8225 31.466C86.8225 31.186 86.7105 30.9947 86.4865 30.892C86.2625 30.7987 85.9405 30.752 85.5205 30.752H84.5545C84.3212 30.752 84.1205 30.7427 83.9525 30.724C83.7845 30.7147 83.6258 30.6913 83.4765 30.654C83.2992 30.794 83.1685 30.9387 83.0845 31.088C83.0098 31.2467 82.9725 31.41 82.9725 31.578C82.9725 31.8953 83.1405 32.1427 83.4765 32.32C83.8125 32.4973 84.2652 32.586 84.8345 32.586ZM92.768 30.696C92.2827 30.696 91.9 30.598 91.62 30.402C91.34 30.1967 91.1347 29.9167 91.004 29.562C90.8827 29.198 90.822 28.778 90.822 28.302V19.328H92.88V28.386C92.88 28.6193 92.922 28.7827 93.006 28.876C93.0993 28.9693 93.1927 29.016 93.286 29.016C93.3327 29.016 93.3747 29.016 93.412 29.016C93.4493 29.0067 93.5007 28.9973 93.566 28.988L93.818 30.514C93.6967 30.5607 93.5473 30.6027 93.37 30.64C93.202 30.6773 93.0013 30.696 92.768 30.696ZM99.354 30.696C98.626 30.696 97.968 30.5327 97.38 30.206C96.792 29.8793 96.3207 29.408 95.966 28.792C95.6207 28.176 95.448 27.4387 95.448 26.58C95.448 25.9453 95.546 25.376 95.742 24.872C95.9474 24.368 96.2227 23.9387 96.568 23.584C96.9227 23.22 97.3147 22.9447 97.744 22.758C98.1827 22.562 98.6354 22.464 99.102 22.464C99.8207 22.464 100.423 22.6273 100.908 22.954C101.393 23.2713 101.757 23.7147 102 24.284C102.252 24.844 102.378 25.488 102.378 26.216C102.378 26.4027 102.369 26.5847 102.35 26.762C102.331 26.93 102.308 27.0653 102.28 27.168H97.45C97.506 27.588 97.632 27.9427 97.828 28.232C98.024 28.5213 98.276 28.7407 98.584 28.89C98.892 29.03 99.242 29.1 99.634 29.1C99.9514 29.1 100.25 29.058 100.53 28.974C100.81 28.8807 101.095 28.7453 101.384 28.568L102.084 29.828C101.701 30.0893 101.272 30.2993 100.796 30.458C100.32 30.6167 99.8394 30.696 99.354 30.696ZM97.408 25.782H100.614C100.614 25.2593 100.493 24.844 100.25 24.536C100.017 24.2187 99.6434 24.06 99.13 24.06C98.8594 24.06 98.6027 24.1253 98.36 24.256C98.1174 24.3773 97.912 24.5687 97.744 24.83C97.576 25.082 97.464 25.3993 97.408 25.782ZM108.813 30.5V20.126H112.215C112.98 20.126 113.666 20.2287 114.273 20.434C114.889 20.6393 115.374 20.98 115.729 21.456C116.093 21.9227 116.275 22.5667 116.275 23.388C116.275 24.172 116.093 24.8207 115.729 25.334C115.374 25.838 114.893 26.2113 114.287 26.454C113.689 26.6967 113.017 26.818 112.271 26.818H110.885V30.5H108.813ZM110.885 25.18H112.131C112.84 25.18 113.367 25.0307 113.713 24.732C114.067 24.4333 114.245 23.9853 114.245 23.388C114.245 22.7907 114.058 22.3753 113.685 22.142C113.321 21.8993 112.779 21.778 112.061 21.778H110.885V25.18ZM120.629 30.696C120.143 30.696 119.761 30.598 119.481 30.402C119.201 30.1967 118.995 29.9167 118.865 29.562C118.743 29.198 118.683 28.778 118.683 28.302V19.328H120.741V28.386C120.741 28.6193 120.783 28.7827 120.867 28.876C120.96 28.9693 121.053 29.016 121.147 29.016C121.193 29.016 121.235 29.016 121.273 29.016C121.31 29.0067 121.361 28.9973 121.427 28.988L121.679 30.514C121.557 30.5607 121.408 30.6027 121.231 30.64C121.063 30.6773 120.862 30.696 120.629 30.696ZM125.717 30.696C125.259 30.696 124.853 30.598 124.499 30.402C124.153 30.1967 123.883 29.9167 123.687 29.562C123.5 29.2073 123.407 28.806 123.407 28.358C123.407 27.5273 123.766 26.8833 124.485 26.426C125.203 25.9593 126.347 25.642 127.915 25.474C127.905 25.2127 127.859 24.984 127.775 24.788C127.691 24.5827 127.551 24.4193 127.355 24.298C127.168 24.1767 126.911 24.116 126.585 24.116C126.221 24.116 125.861 24.186 125.507 24.326C125.152 24.466 124.793 24.648 124.429 24.872L123.701 23.5C124.009 23.304 124.335 23.1313 124.681 22.982C125.026 22.8327 125.39 22.7113 125.773 22.618C126.155 22.5153 126.552 22.464 126.963 22.464C127.625 22.464 128.181 22.5947 128.629 22.856C129.077 23.1173 129.413 23.5047 129.637 24.018C129.861 24.5313 129.973 25.166 129.973 25.922V30.5H128.293L128.153 29.66H128.083C127.747 29.9587 127.383 30.206 126.991 30.402C126.599 30.598 126.174 30.696 125.717 30.696ZM126.403 29.086C126.692 29.086 126.953 29.0207 127.187 28.89C127.429 28.75 127.672 28.5587 127.915 28.316V26.748C127.28 26.8227 126.776 26.93 126.403 27.07C126.029 27.21 125.763 27.378 125.605 27.574C125.446 27.7607 125.367 27.9707 125.367 28.204C125.367 28.512 125.46 28.736 125.647 28.876C125.843 29.016 126.095 29.086 126.403 29.086ZM133.456 33.636C133.223 33.636 133.022 33.622 132.854 33.594C132.686 33.566 132.527 33.5287 132.378 33.482L132.756 31.914C132.831 31.9327 132.915 31.9513 133.008 31.97C133.111 31.998 133.209 32.012 133.302 32.012C133.703 32.012 134.021 31.9 134.254 31.676C134.487 31.452 134.66 31.1673 134.772 30.822L134.912 30.346L131.86 22.66H133.932L135.178 26.3C135.299 26.6547 135.411 27.0187 135.514 27.392C135.617 27.7653 135.724 28.1387 135.836 28.512H135.906C135.99 28.1387 136.079 27.77 136.172 27.406C136.275 27.0327 136.373 26.664 136.466 26.3L137.544 22.66H139.518L136.732 30.738C136.508 31.354 136.251 31.8767 135.962 32.306C135.673 32.7447 135.327 33.076 134.926 33.3C134.534 33.524 134.044 33.636 133.456 33.636Z" fill="white"/>
</g>
<defs>
<clipPath id="clip0_1086_9828">
<rect width="23" height="25" fill="white" transform="translate(20 7.5)"/>
</clipPath>
<clipPath id="clip1_1086_9828">
<rect width="89" height="33" fill="white" transform="translate(51 3.5)"/>
</clipPath>
</defs>
</svg>
