<?xml version="1.0" encoding="UTF-8"?>
<svg id="_圖層_1" data-name="圖層_1" xmlns="http://www.w3.org/2000/svg" version="1.1" viewBox="0 0 126 50">
  <!-- Generator: Adobe Illustrator 29.4.0, SVG Export Plug-In . SVG Version: 2.1.0 Build 152)  -->
  <defs>
    <style>
      .st0 {
        fill: #95c326;
      }

      .st1 {
        fill: #888988;
      }
    </style>
  </defs>
  <g>
    <path class="st0" d="M35.22,27.77c-.13-.1-.24-.23-.36-.34-.28-.26-.56-.52-.85-.78-.33-.3-.65-.59-.97-.9-.33-.31-.77-.57-.82-1.07-.03-.31.08-.6.2-.88.07-.17.12-.35.17-.53.15-.5.3-.99.44-1.5.21-.77.4-1.54.56-2.31.22-.99.4-1.99.56-3,.19-1.17.33-2.35.43-3.54.11-1.31.17-2.62.17-3.93,0-.26.01-.51.03-.76.02-.41,0-.86-.34-1.15-.32-.28-.78-.34-1.19-.34h-4.02c-.33,0-1,.15-.95-.38.01-.12.03-.24.04-.37.09-.59.12-1.2.18-1.79.06-.59.11-1.19.17-1.78,0,0,.48-1.68-1.19-1.74l-2.12-.06s-1.2-.22-1.34.73l-.24,3.6s.06,1.56-1.31,1.74h-.55c-.28,0-.61-.05-.86.06-.2.09-.41.3-.54.49-.17.23-.25.5-.25.77v1.98s.24,1.08,1.43,1.08h.72s.3-.06.3,1.08c0,0-.95,6.72-1.79,8.82,0,0-.6,1.14.6,1.8l3.94,2.7s.9.6.54,1.08c0,0-2.33,2.52-5.07,3.9,0,0-1.01.54-.18,1.56l1.97,2.34s.74.87,1.55.06c0,0,4.26-2.73,5.59-5.33l2.28,2.81s.84.9,1.49-.06c0,0,2.97-3.07,1.61-4.08h-.01ZM28.22,22.02s-.13.19-.38-.06c-.08-.05-.15-.1-.24-.15-.33-.22-.67-.44-1-.66-.15-.1-.31-.2-.45-.3-.13-.08-.28-.14-.33-.29-.04-.13-.03-.28-.01-.41.03-.19.06-.38.1-.56.06-.28.1-.56.17-.84.07-.3.15-.59.2-.88.15-.77.29-1.53.44-2.3.13-.66.26-1.33.38-2,.05-.28.11-.57.16-.85,0,0,.13-1.57,1.34-1.6h.86c.23,0,.47.1.6.3.1.16.06.32.04.5-.03.3-.05.59-.08.89-.07.8-.15,1.6-.25,2.4-.11.92-.24,1.85-.4,2.76-.15.86-.33,1.72-.57,2.56-.15.52-.33,1.05-.6,1.53l.02-.02Z"/>
    <path class="st0" d="M52.79,15.51h-3.91c-.28,0-.54-.04-.81-.1-.88-.34-.95-1.79-.18-2.88.77-1.09.67-.94,1-1.41.43-.61.86-1.22,1.29-1.83.37-.53.75-1.06,1.12-1.59.16-.23.32-.45.48-.68,0,0,.86-1.22.86-2.55v-.75s.24-1.98-1.97-1.98h-13.22s-1.59-.14-1.59,1.2v2.05s-.17,1.37,1.61,1.37h8.26s.35.05.13.37l-2.31,3.16s-1.24,1.13-1.24,2.96v.75c0,.45,0,.93-.23,1.32-.21.34-.54.58-.94.61h-4.73s-1.38-.12-1.38,1.2v2.24s-.02,1.11,1.4,1.11h4.56s1.26-.06,1.26,1.18v7.72s.17,1.21-1.24,1.21h-2.79s-1.33-.03-1.02,1.22l.47,2.19s.19,1.18,2.18,1.18c0,0,5.15.07,5.99-.5,0,0,1.38-.14,1.38-3.2v-9.6s0-1.37,1.29-1.37h4.54s1.31-.05,1.31-1.22v-2.05s.16-1.34-1.6-1.34h.01Z"/>
    <path class="st0" d="M87.57,18.19h-9.04c-.12,0-.99.03-1.25-.18-.13-.11-.28-.24-.33-.42-.07-.28-.05-.64.13-.88.21-.28.59-.35.92-.35h7.21s1.65.14,1.65-1.57v-5.81s.44-2.06-1.65-2.06h-20.86c-.21-.01-.43-.07-.62-.15-.3-.14-.65-.46-.53-.82.14-.42.59-.35.94-.36.49-.01.97-.03,1.46-.04.66-.02,1.32-.04,1.98-.06.79-.03,1.58-.05,2.37-.08.87-.03,1.75-.06,2.63-.1.92-.04,1.83-.08,2.74-.12.91-.05,1.82-.09,2.74-.14.86-.05,1.73-.1,2.59-.16.77-.05,3.15-.25,3.57-.3.39-.05,1.62-.29,1.82-.44.2-.14.31-.27.45-.47.06-.1.1-.23.11-.35.03-.24-.08-.44-.19-.64-.1-.19-.54-1.05-.67-1.3,0,0-.62-1.12-2.49-.76,0,0-19.17,1.57-23.17,1.25,0,0-1.65-.05-1.65,1.48,0,0,.27,14.32-.27,16.6,0,0-.8,6.57-2.98,10.25,0,0-1.07,1.92,1.02,2.24l3.2.09s1.33,0,1.74-1.7l1.69-7.07s.4-1.48,1.56-1.48h3.69s.79.12.81.63c-.06.35-.32,1.59-1.1,3.02-.83,1.44-2.29,3.13-4.81,4.47-.04.02-.29.15-.3.15,0,0-1.36.64-.56,1.33l2.84,2.31s.76.9,1.9-.03c0,0,.95-.65,2.06-1.69,1-.9,2.28-2.25,3.13-3.9,0,0,.53-.9,1.82-.9h6.54s1.78-.23,1.78,1.21c0,0,.04,1.61-1.83,1.61l-3.78-.09s-1.65-.32-1.38,1.3l.36,1.79s.27,1.3,2.04,1.3c0,0,7.29.4,8.4-2.19,0,0,.85-1.66.98-3.4l.35-3.27s.49-1.92-1.33-1.92h-11.34s-1.24-.14-1.02-1.08c0,0,.13-.63.98-.63h12.8s1.92.23,1.92-1.34v-1.21s.27-1.57-1.78-1.57h-.02ZM63.16,18.05s-.06-.05-.08-.07c-.17-.17-.26-.39-.26-.63,0-.27.04-.48.19-.71.28-.4.74-.31,1.17-.31.37,0,7.07-.06,7.37.05.26.09.45.31.56.56.13.32.05.79-.22,1.01-.31.26-.6.23-.98.23-.76,0-6.8-.01-6.98-.02-.26-.01-.53.03-.75-.12h0ZM73.03,12.73h-8.65c-.61,0-1.32.17-1.7-.46-.13-.23-.13-.55-.11-.81.05-.55.57-.92,1.08-.93,1.25-.02,2.5.02,3.75.03,1.22,0,2.43.01,3.65.02h3.5c1.24,0,5.87-.05,6.94-.03,1.02.02,1.24,1.41.58,2.03-.12.1-.24.1-.39.13-.43.08-8.06.03-8.67.03h0Z"/>
    <path class="st0" d="M126,30.59V2.29c0-1.73-2.12-1.48-2.12-1.48h-17.08c-1.47,0-1.51,1.44-1.51,1.44v12.06c0,.73-.29.29-.29.29l-.65-2.49c-.22-.58-.83-.33-.83-.33l-1.65.36c-.65.1-.04-.94-.04-.94,1.8-3.07,2.84-6.32,2.84-6.32.21-.47-.22-.76-.22-.76l-2.91-.72c-.58-.18-.79.43-.79.43-.07.61-1.68,4.48-1.68,4.48-.25.76-.83,0-.83,0-.38-.38.07-.9.07-.9.83-1.3,2.3-5.38,2.3-5.38.18-.36-.08-.68-.08-.68l-3.12-1.3c-.58-.22-.65.43-.65.43.08.12-1.88,5.24-1.88,5.24-.83-.36-1.01.36-1.01.36-.3.5-.61.99-.91,1.49-.19.31-.42.61-.49.96-.03.16-.01.33.08.46.16.23,1.86,1.39,2.22,1.68.47.39.92.79,1.38,1.19.64.57.17,1.5-.22,2.06-.36.51-.8,1.35-1.48,1.43-.35.05-.7.03-1.04.07-1.08.12-.72.9-.72.9.18.48.6,2.4.6,2.4.06.9.78.84.78.84l2.33-.36c.9,0,.78.66.78.66l-.06.96c-.12.9-.42.78-.42.78l-2.58-.36c-.9-.12-.78,1.27-.78,1.27-.06,1.14-.66,7.52-.66,7.52-.3,1.39.9,1.44.9,1.44l1.31.3c1.32.24,1.44-.78,1.44-.78l.3-3.91c0-.54.16-2.46.23-2.58.1-.14.24-.05.27.09.06.23.04,1.49.04,1.86v5.93c0,.4.03.99.41,1.23.25.15.67.07.96.07.47,0,.94-.01,1.42-.04.33-.01.69-.03.98-.23.21-.14.34-.37.3-.62v-8.31c0-1.33.29-.72.29-.72,0,0,.72,4.93.72,4.94.06.44.35.84.82.88.24.02.48-.05.71-.14.24-.08.49-.1.74-.14.72,0,.72.54.72.54v2.71c0,1.15.9,1.15.9,1.15h2.15c1.14,0,1.26-.9,1.26-.9v-12.1c0-.84.9-.78.9-.78.72,0,.65.84.65.84v4.4c0,1.93,1.5,2.11,1.5,2.11h7.48c.78,0,.72-.9.72-.9v-2.41c0-.72-.72-.79-.72-.79h-3.65c-1.31,0-1.2-1.21-1.2-1.21v-1.21c0-.9.96-.84.96-.84h4.37c1.32,0,1.14,1.02,1.14,1.02v7.89c-.06.49-.98.56-1.33.6-.74.08-1.48.08-2.22.05-.26-.01-.58-.08-.85-.05-.9.13-.93.94-.93,1.68v1.63c0,1.02.72,1.21.72,1.21.92.33,1.92.45,2.88.56,1.27.15,2.51.18,3.72-.32.76-.32,1.45-.81,1.87-1.52.37-.61.41-1.38.42-2.09h0ZM100.2,14.71c-.81.08-.61-.16-.61-.16l1.02-1.22c.33.41.33,1.02.33,1.02-.04.41-.73.37-.73.37h0ZM104.99,23.54l-.28-1.64c-.21-.78-.62-.53-.62-.53l-2.11.53c-.81.24-.69-.86-.69-.86l-.08-1.51c-.04-1.15.33-.98.33-.98.53,0,.53.9.53.9.12.74,2.44.21,2.44.21.73-.17.78.61.78.61l.04,2.41c0,1.72-.33.86-.33.86h0ZM113.08,16.04h-3.22s-.28.03-.28-.25v-1.33s-.06-.32.31-.32h3.25s.26-.05.26.25v1.46s.04.19-.33.19ZM117.18,5.85l-1.21,3.87c-.22.64-.69.5-.69.5h-.9c-.67.01-.43-.23-.43-.23l.99-.41c.58-.18.27-.66.27-.66-.14-.61-1.34-3.06-1.34-3.06-.29-.59-.88-.29-.88-.29l-2.35,1.1c-.68.26-.39.81-.39.81.51.8,1.06,2.33,1.06,2.33.14.49-.33.39-.33.39h-.78c-.65,0-.6-.43-.6-.43v-4.41c0-.5.71-.39.71-.39h10.79c.62,0,.62.46.62.46v4.35c0,.52-.39.42-.39.42h-.78c-.45.01-.33-.24-.33-.24l.79-2.68c.19-.56-.19-.74-.19-.74l-2.93-1.05c-.55-.17-.7.35-.7.35h-.01ZM121.39,16.04h-3.21s-.28.03-.28-.25v-1.33s-.06-.32.31-.32h3.25s.26-.05.26.25v1.46s.04.19-.33.19h0Z"/>
  </g>
  <g>
    <path class="st1" d="M4.65,31.7s.83.03.83.86v4.46s-.09.93.94.93h4.32s.75-.1.75-.82v-4.61s.04-.82.83-.82h3.86s.82.03.82.83v16.28s-.09.75-.84.75h-3.06s-.79-.02-.79-.92v-3.15s0-.75.68-.86c0,0,.78.03.21-.54-.57-.57-4.03-3.71-4.03-3.71,0,0-.61-.73-1.48.14-.86.87-3.62,3.39-3.62,3.39,0,0-.86.69,0,.72,0,0,.6.03.69.79v3.29s.1.85-1.01.85H.81s-.7,0-.81-.77v-16.24s.02-.77.79-.84h3.86Z"/>
    <path class="st1" d="M35.7,36.61h3.22s.9-.05.9.92v5.65s.04,1.55.2,1.86c.16.3.46.98,1.65.92,0,0,.96-.05,1.4-.8.44-.75.46-1.77.46-1.77l.02-6.02s.07-.7.76-.76h3.33s.71,0,.84.75v11.38s-.01.69-.72.81h-3.11s-.76-.04-.77-.94c0,0,.05-.66-.16-.73,0,0-.14-.12-.35.17-.2.28-1.59,1.7-3.57,1.79-1.99.08-3.29-.34-4.27-1.9,0,0-.45-.73-.58-1.88s-.07-2.65-.07-2.65v-6.01s.1-.77.83-.77h0Z"/>
    <path class="st1" d="M97.36,36.61h3.22s.9-.05.9.92v5.65s.04,1.55.2,1.86c.16.3.46.98,1.65.92,0,0,.96-.05,1.4-.8.44-.75.46-1.77.46-1.77v-6.02s.09-.7.77-.76h3.33s.71,0,.84.75v11.38s-.01.69-.72.81h-3.11s-.76-.04-.77-.94c0,0,.05-.66-.16-.73,0,0-.14-.12-.35.17-.2.28-1.59,1.7-3.58,1.79-1.99.08-3.29-.34-4.27-1.9,0,0-.45-.73-.58-1.88-.12-1.15-.07-2.65-.07-2.65v-6.01s.1-.77.83-.77h0Z"/>
    <path class="st1" d="M83.2,35.54h11.5s.64.02.79.7v2.4s-.06.68-.85.73c-.79.06-6.35,0-6.35,0,0,0-.75-.04-.85.77v1.58s.02.77.93.77h5.16s.7.02.79.73v2.15s-.12.73-.92.73h-5.05s-.74-.08-.9.72v1.86s.04.86-1.01.86h-3.7s-.72.08-.8-.93v-12.23s-.08-.98,1.26-.85h0Z"/>
    <path class="st1" d="M113.08,36.61h3.13s.65.11.72.81v.55s.08.83.76,0c.68-.83,2.23-2,4.98-1.55,2.76.45,3.08,2.91,3.25,4.47s.01,7.91.01,7.91c0,0-.08.74-.86.74h-3.37s-.71-.02-.72-.97v-6.23s.12-2.24-1.7-2.15c-1.83.1-1.93,1.79-1.96,2.19-.03.4-.04,6.17-.04,6.17,0,0,.05.99-.8.99h-3.38s-.74-.06-.74-.86v-11.29s.06-.78.74-.78h-.02Z"/>
    <path class="st1" d="M18.55,43.12c0-1.97.66-3.6,1.99-4.88,1.32-1.28,3.11-1.92,5.36-1.92,2.57,0,4.52.75,5.84,2.26,1.06,1.21,1.58,2.7,1.58,4.47,0,1.99-.65,3.62-1.97,4.89-1.31,1.27-3.13,1.91-5.44,1.91-2.07,0-3.73-.53-5.01-1.59-1.57-1.31-2.35-3.02-2.35-5.14ZM23.49,43.1c0,1.15.23,2,.7,2.56.46.55,1.05.82,1.75.82s1.29-.27,1.75-.82c.45-.54.68-1.42.68-2.62,0-1.12-.22-1.96-.69-2.5-.45-.55-1.03-.82-1.7-.82-.72,0-1.31.28-1.78.83-.47.55-.7,1.4-.7,2.54h0Z"/>
    <path class="st1" d="M10.16,47.46c-.45.35-1.03.55-1.66.55-.61,0-1.2-.19-1.66-.54-.47-.36-.76-.86-.81-1.4-.02-.1.01-.18.08-.25.06-.08.14-.12.23-.12.1-.01.19.02.26.08.08.06.12.14.13.23.04.34.23.66.54.91.33.26.77.4,1.22.39.45,0,.9-.14,1.22-.41.31-.24.5-.57.53-.92,0-.09.05-.17.12-.23.08-.06.17-.09.26-.08.1,0,.19.05.24.12.06.07.08.15.08.25-.04.53-.33,1.04-.79,1.4h0Z"/>
    <path class="st1" d="M7.07,43.26c.26,0,.47.28.55.67l-.43.24.44.24c-.05.44-.27.76-.54.76-.33,0-.58-.43-.59-.95,0-.53.25-.96.57-.96Z"/>
    <path class="st1" d="M9.77,43.23c.26,0,.47.28.55.67l-.42.24.44.24c-.05.43-.27.77-.54.77-.32,0-.58-.43-.58-.96,0-.53.25-.96.56-.96Z"/>
    <path class="st1" d="M71.88,36.45c-7.71,0-7.54,6.39-7.44,7.99.06.95.63,2.75,2.19,4.03h-.01s.24.23.74.52c.81.48,1.83.84,3.09.94.58.06,1.22.08,1.94.05.74-.03,1.78-.12,2.83-.44h.01c1.36-.41,2.74-1.21,3.43-2.69,0,0,.33-.72-.65-.75-.88-.03-1.76-.01-2.63-.01h-.88c-.26,0-.48-.01-.65.19-.13.15-.31.26-.48.37-.45.28-.96.43-1.49.41-.22,0-.45-.05-.67-.1-1.72-.49-2.2-2.56-.61-2.51h7.93s.8.07.8-.81.28-7.17-7.44-7.17ZM73.59,42.05h-3.41s-.72-.06-.62-.73c.1-.66.65-1.97,2.33-1.93,1.68-.05,2.23,1.27,2.33,1.93.1.67-.62.73-.62.73h0Z"/>
    <path class="st1" d="M49.78,45.56s.01-.01.02-.02c.14-.15.28-.16.47-.17.35-.02.7-.04,1.06-.06.61-.03,1.21-.06,1.82-.1.23-.01.53-.08.75.02.2.09.29.42.37.62.1.26.23.52.42.72.49.52,1.18.78,2.08.78.67,0,1.19-.14,1.56-.4.37-.26.54-.57.54-.93s-.17-.63-.52-.9c-.35-.26-1.15-.52-2.41-.75-2.07-.39-3.54-.92-4.43-1.57-.89-.65-1.33-1.48-1.33-2.49,0-.66.23-1.29.68-1.88.45-.59,1.14-1.05,2.05-1.39.91-.34,2.17-.5,3.75-.5,1.95,0,3.44.31,4.46.92.47.28.88.66,1.18,1.12.28.43.68,1.1.33,1.6-.18.26-.44.24-.72.26-.42.02-.84.04-1.26.06-.34.02-.68.03-1.01.05-.28.01-.76.11-.99-.05-.2-.14-.28-.39-.39-.6-.12-.23-.29-.42-.5-.57-.38-.26-.9-.39-1.57-.39-.54,0-.96.1-1.24.3-.28.19-.42.43-.42.72,0,.21.12.39.35.55.22.17.75.33,1.58.48,2.06.37,3.54.75,4.43,1.14.89.39,1.54.86,1.95,1.43.4.57.61,1.21.61,1.91,0,.82-.27,1.59-.81,2.29-.54.7-1.3,1.22-2.27,1.59-.97.36-2.2.54-3.68.54-2.59,0-4.39-.43-5.39-1.27-.47-.4-.87-.88-1.17-1.42-.15-.28-.26-.57-.35-.86-.08-.26-.21-.53,0-.78h.02Z"/>
  </g>
</svg>