<?xml version="1.0" encoding="UTF-8"?>
<svg id="_圖層_1" data-name="圖層_1" xmlns="http://www.w3.org/2000/svg" version="1.1" viewBox="0 0 16 16">
  <!-- Generator: Adobe Illustrator 29.4.0, SVG Export Plug-In . SVG Version: 2.1.0 Build 152)  -->
  <defs>
    <style>
      .st0 {
        fill: #494949;
      }
    </style>
  </defs>
  <path class="st0" d="M13.44,13.74l-.07-1.5c-.24.26-.49.49-.76.71s-.55.4-.87.56-.66.28-1.03.37-.78.13-1.23.13c-.59,0-1.1-.09-1.55-.26s-.82-.41-1.12-.72-.53-.68-.68-1.12-.23-.92-.23-1.45.11-1.04.34-1.5.58-.86,1.05-1.19,1.06-.59,1.76-.78,1.53-.28,2.48-.28h1.5v-.69c0-.29-.04-.56-.12-.8s-.22-.44-.4-.61-.42-.29-.72-.38-.66-.14-1.09-.14c-.68,0-1.35.08-2.01.23s-1.3.37-1.92.65v-2.21c.55-.22,1.19-.4,1.91-.54s1.47-.21,2.25-.21c.85,0,1.58.08,2.19.24s1.11.41,1.51.73.69.73.88,1.22.28,1.05.28,1.7v7.85h-2.36ZM13.05,8.66h-1.69c-.47,0-.86.05-1.19.14s-.59.21-.79.37-.35.34-.45.55-.14.43-.14.66c0,.47.15.82.45,1.07s.71.37,1.23.37c.38,0,.78-.14,1.2-.42s.87-.68,1.37-1.2v-1.54Z"/>
  <path class="st0" d="M5.24,2c-.78,0-1.52.07-2.25.21s-1.36.32-1.91.54v2.21c.62-.28,1.26-.5,1.92-.65.66-.15,1.33-.23,2.01-.23.43,0,.79.05,1.09.14.12.04.23.09.33.14v-2.29c-.37-.04-.76-.06-1.19-.06Z"/>
  <path class="st0" d="M5.09,11.9s-.02-.09-.03-.13c-.09.02-.19.05-.28.05-.52,0-.93-.12-1.23-.37-.3-.25-.45-.6-.45-1.07,0-.23.05-.45.14-.66s.24-.39.45-.55c.2-.16.47-.28.79-.37.25-.07.57-.11.91-.12.22-.34.5-.66.87-.92.05-.04.12-.06.18-.1v-.96h-.59c-.95,0-1.78.09-2.48.28-.71.19-1.29.45-1.76.78-.47.33-.82.73-1.05,1.19-.23.46-.34.96-.34,1.5s.08,1.01.23,1.45c.15.44.38.81.68,1.12.3.31.67.55,1.12.72.44.17.96.26,1.55.26.44,0,.85-.04,1.23-.13.37-.09.72-.21,1.03-.37.07-.03.12-.08.18-.12-.16-.11-.32-.23-.45-.37-.3-.31-.53-.68-.68-1.12Z"/>
</svg>