<?xml version="1.0" encoding="UTF-8"?>
<svg id="_圖層_1" data-name="圖層_1" xmlns="http://www.w3.org/2000/svg" version="1.1" viewBox="0 0 16 16">
  <!-- Generator: Adobe Illustrator 29.4.0, SVG Export Plug-In . SVG Version: 2.1.0 Build 152)  -->
  <path d="M4.61.04c.25.03.48.14.66.31l6.99,6.3c.2.17.36.37.48.6.11.23.17.48.18.73,0,.25-.04.51-.15.74-.1.24-.25.46-.43.64l-7.06,6.31c-.19.17-.42.28-.66.32-.25.03-.5,0-.73-.1-.23-.1-.43-.27-.57-.47-.13-.21-.21-.45-.22-.7V1.26c0-.25.08-.5.22-.71.14-.21.34-.38.57-.48.24-.08.49-.1.73-.03Z"/>
</svg>