<?xml version="1.0" encoding="UTF-8"?>
<svg id="_圖層_1" data-name="圖層_1" xmlns="http://www.w3.org/2000/svg" version="1.1" viewBox="0 0 16 16">
  <!-- Generator: Adobe Illustrator 29.4.0, SVG Export Plug-In . SVG Version: 2.1.0 Build 152)  -->
  <path d="M.04,11.39c.03-.25.14-.48.31-.66L6.65,3.74c.17-.2.37-.36.6-.48.23-.11.48-.17.73-.18.25,0,.51.04.74.15.24.1.46.25.64.43l6.31,7.06c.17.19.28.42.32.66.03.25,0,.5-.1.73-.1.23-.27.43-.47.57-.21.13-.45.21-.7.22H1.26c-.25,0-.5-.08-.71-.22-.21-.14-.38-.34-.48-.57-.08-.24-.1-.49-.03-.73Z"/>
</svg>