<?xml version="1.0" encoding="UTF-8"?>
<svg id="_圖層_1" data-name="圖層_1" xmlns="http://www.w3.org/2000/svg" version="1.1" viewBox="0 0 16 16">
  <!-- Generator: Adobe Illustrator 29.4.0, SVG Export Plug-In . SVG Version: 2.1.0 Build 152)  -->
  <path d="M13.03,4.45c.16-.16.37-.25.6-.25s.44.09.6.25.25.37.25.6-.09.44-.25.6l-5.63,5.62c-.08.08-.17.14-.27.18-.1.04-.21.06-.32.06s-.22-.02-.32-.06c-.1-.04-.2-.11-.27-.18L1.78,5.65c-.16-.16-.25-.37-.25-.6s.09-.44.25-.6c.16-.16.37-.25.6-.25s.44.09.6.25l5.03,5.03,5.03-5.03Z"/>
</svg>