<?xml version="1.0" encoding="UTF-8"?>
<svg id="_圖層_1" data-name="圖層_1" xmlns="http://www.w3.org/2000/svg" version="1.1" viewBox="0 0 16 16">
  <!-- Generator: Adobe Illustrator 29.4.0, SVG Export Plug-In . SVG Version: 2.1.0 Build 152)  -->
  <path d="M4.59,2.83c-.16-.16-.25-.37-.25-.6s.09-.44.25-.6.37-.25.6-.25.44.09.6.25l5.62,5.63c.08.08.14.17.18.27.04.1.06.21.06.32s-.02.22-.06.32c-.04.1-.11.2-.18.27l-5.62,5.63c-.16.16-.37.25-.6.25s-.44-.09-.6-.25c-.16-.16-.25-.37-.25-.6s.09-.44.25-.6l5.03-5.03L4.59,2.83Z"/>
</svg>