<?xml version="1.0" encoding="UTF-8"?>
<svg id="_圖層_1" data-name="圖層_1" xmlns="http://www.w3.org/2000/svg" version="1.1" viewBox="0 0 24 24">
  <!-- Generator: Adobe Illustrator 30.2.1, SVG Export Plug-In . SVG Version: 2.1.1 Build 1)  -->
  <defs>
    <style>
      .st0 {
        fill-rule: evenodd;
      }
    </style>
  </defs>
  <path class="st0" d="M11.13,23.67S2.59,16.48,2.59,9.41c0-2.49.99-4.89,2.76-6.65C7.11.99,9.51,0,12,0s4.89.99,6.65,2.76c1.76,1.76,2.76,4.16,2.76,6.65,0,7.08-8.54,14.27-8.54,14.27-.48.44-1.26.43-1.74,0ZM12,13.52c.54,0,1.08-.11,1.57-.31.5-.21.95-.51,1.34-.89.38-.38.69-.84.89-1.34.21-.5.31-1.03.31-1.57s-.11-1.08-.31-1.57c-.21-.5-.51-.95-.89-1.34-.38-.38-.84-.69-1.34-.89-.5-.21-1.03-.31-1.57-.31-1.09,0-2.14.43-2.91,1.21-.77.77-1.21,1.82-1.21,2.91s.43,2.14,1.21,2.91c.77.77,1.82,1.21,2.91,1.21Z"/>
</svg>