<?xml version="1.0" encoding="UTF-8"?>
<svg id="_圖層_1" data-name="圖層_1" xmlns="http://www.w3.org/2000/svg" version="1.1" viewBox="0 0 24 24">
  <!-- Generator: Adobe Illustrator 30.2.1, SVG Export Plug-In . SVG Version: 2.1.1 Build 1)  -->
  <path d="M22.8,8.33c-.01-.11-.04-.22-.07-.32v-.11c-.06-.12-.13-.24-.23-.34L15.3.36c-.1-.09-.21-.17-.34-.23-.04,0-.07,0-.11,0-.12-.07-.26-.11-.4-.13h-4.86c-.95,0-1.87.38-2.55,1.05-.68.68-1.05,1.59-1.05,2.55v1.2h-1.2c-.95,0-1.87.38-2.55,1.05-.68.68-1.05,1.59-1.05,2.55v12c0,.95.38,1.87,1.05,2.55.68.68,1.59,1.05,2.55,1.05h9.6c.95,0,1.87-.38,2.55-1.05.68-.68,1.05-1.59,1.05-2.55v-1.2h1.2c.95,0,1.87-.38,2.55-1.05.68-.68,1.05-1.59,1.05-2.55v-7.27ZM15.6,4.09l3.11,3.11h-1.91c-.32,0-.62-.13-.85-.35-.23-.23-.35-.53-.35-.85v-1.91ZM15.6,20.4c0,.32-.13.62-.35.85-.23.23-.53.35-.85.35H4.8c-.32,0-.62-.13-.85-.35-.23-.23-.35-.53-.35-.85v-12c0-.32.13-.62.35-.85.23-.23.53-.35.85-.35h1.2v8.4c0,.95.38,1.87,1.05,2.55.68.68,1.59,1.05,2.55,1.05h6v1.2ZM20.4,15.6c0,.32-.13.62-.35.85-.23.23-.53.35-.85.35h-9.6c-.32,0-.62-.13-.85-.35-.23-.23-.35-.53-.35-.85V3.6c0-.32.13-.62.35-.85.23-.23.53-.35.85-.35h3.6v3.6c0,.95.38,1.87,1.05,2.55.68.68,1.59,1.05,2.55,1.05h3.6v6Z"/>
</svg>