<?xml version="1.0" encoding="UTF-8"?>
<svg id="_圖層_1" data-name="圖層_1" xmlns="http://www.w3.org/2000/svg" version="1.1" viewBox="0 0 24 24">
  <!-- Generator: Adobe Illustrator 30.2.1, SVG Export Plug-In . SVG Version: 2.1.1 Build 1)  -->
  <path d="M.24,1.8l3.47,3.47C1.78,7.06.48,9.42,0,12c1.04,5.68,6.02,9.98,12,9.98,2.31,0,4.57-.65,6.53-1.89l3.67,3.67,1.57-1.57L1.8.24.24,1.8ZM7.37,8.94l1.62,1.62c-.3.62-.39,1.32-.28,2,.12.68.44,1.3.93,1.79.49.49,1.11.81,1.79.93.68.12,1.38.02,2-.28l1.62,1.62c-1.07.71-2.34,1.02-3.62.89-1.27-.13-2.46-.69-3.37-1.6-.9-.9-1.47-2.09-1.6-3.37-.13-1.27.19-2.55.89-3.62Z"/>
  <path d="M13.55,6.67c.77.22,1.47.61,2.08,1.13.6.52,1.09,1.17,1.42,1.89.33.72.5,1.51.5,2.31,0,.28-.02.55-.06.81l4.28,4.28c1.13-1.5,1.89-3.25,2.23-5.09-1.04-5.68-6.02-9.98-12-9.98-1.58,0-3.08.3-4.47.84l3.65,3.65c.79-.12,1.59-.06,2.36.16Z"/>
</svg>