<?xml version="1.0" encoding="UTF-8"?>
<svg id="_圖層_1" data-name="圖層_1" xmlns="http://www.w3.org/2000/svg" version="1.1" viewBox="0 0 24 24">
  <!-- Generator: Adobe Illustrator 30.2.1, SVG Export Plug-In . SVG Version: 2.1.1 Build 1)  -->
  <polygon points="16.9 15.13 20.87 11.74 24 12 19.41 15.99 20.77 21.91 18.1 20.3 16.9 15.13"/>
  <polygon points="14.45 7.51 13.36 4.96 14.56 2.09 16.96 7.75 14.45 7.51"/>
  <path d="M20.87,9.65l-7.51-.65-2.92-6.91-2.92,6.91-7.51.65,5.69,4.93-1.7,7.33,6.44-3.89,6.44,3.89-1.7-7.33,5.69-4.93ZM10.43,15.57l-3.29,1.98.86-3.73-2.9-2.53,3.81-.34,1.51-3.52,1.51,3.55,3.81.34-2.9,2.5.86,3.76-3.29-2.01Z"/>
</svg>