<?xml version="1.0" encoding="UTF-8"?>
<svg id="_圖層_1" data-name="圖層_1" xmlns="http://www.w3.org/2000/svg" version="1.1" viewBox="0 0 18 18">
  <!-- Generator: Adobe Illustrator 29.4.0, SVG Export Plug-In . SVG Version: 2.1.0 Build 152)  -->
  <path d="M5.06,7.4c0,.22.09.44.25.6.16.16.37.25.6.25s.44-.09.6-.25c.16-.16.25-.37.25-.6s-.09-.44-.25-.6c-.16-.16-.37-.25-.6-.25s-.44.09-.6.25c-.16.16-.25.37-.25.6Z"/>
  <path d="M11.25,7.4c0,.22.09.44.25.6.16.16.37.25.6.25s.44-.09.6-.25c.16-.16.25-.37.25-.6s-.09-.44-.25-.6c-.16-.16-.37-.25-.6-.25s-.44.09-.6.25c-.16.16-.25.37-.25.6Z"/>
  <path d="M9,1.12C4.65,1.12,1.12,4.65,1.12,9s3.53,7.88,7.88,7.88,7.88-3.53,7.88-7.88S13.35,1.12,9,1.12ZM13.62,13.62c-.6.6-1.3,1.07-2.08,1.4-.8.34-1.66.51-2.54.51s-1.74-.17-2.55-.51c-.78-.33-1.48-.8-2.08-1.4-.6-.6-1.07-1.3-1.4-2.08-.34-.8-.51-1.66-.51-2.54s.17-1.74.51-2.55c.33-.78.8-1.48,1.4-2.08.6-.6,1.3-1.07,2.08-1.4.8-.34,1.66-.51,2.54-.51s1.74.17,2.55.51c.78.33,1.48.8,2.08,1.4.6.6,1.07,1.3,1.4,2.08.34.8.51,1.66.51,2.54s-.17,1.74-.51,2.55c-.33.78-.8,1.48-1.4,2.08Z"/>
  <path d="M11.67,9.37h-.85c-.07,0-.14.06-.14.13-.07.87-.8,1.56-1.68,1.56s-1.62-.69-1.68-1.56c0-.07-.07-.13-.14-.13h-.85s-.04,0-.06.01c-.02,0-.03.02-.05.03-.01.01-.02.03-.03.05,0,.02,0,.04,0,.06.08,1.48,1.31,2.66,2.81,2.66s2.74-1.18,2.81-2.66c0-.02,0-.04,0-.06,0-.02-.02-.03-.03-.05-.01-.01-.03-.02-.05-.03-.02,0-.04-.01-.06-.01Z"/>
</svg>