<?xml version="1.0" encoding="UTF-8"?>
<svg id="_圖層_1" data-name="圖層_1" xmlns="http://www.w3.org/2000/svg" version="1.1" viewBox="0 0 24 24">
  <!-- Generator: Adobe Illustrator 30.2.1, SVG Export Plug-In . SVG Version: 2.1.1 Build 1)  -->
  <path d="M20.43,21.59H3.58c-.32,0-.63.13-.85.35-.23.23-.35.53-.35.85s.13.63.35.85c.23.23.53.35.85.35h16.85c.32,0,.63-.13.85-.35.23-.23.35-.53.35-.85s-.13-.63-.35-.85c-.23-.23-.53-.35-.85-.35Z"/>
  <path d="M20.91,3.95l-3.3-3.3C17.18.25,16.62.02,16.03,0c-.59-.02-1.17.19-1.62.57L3.58,11.4c-.39.39-.63.91-.69,1.46l-.52,5.02c-.02.18,0,.35.07.52.06.17.16.32.28.44.11.11.25.2.39.26.15.06.3.09.46.09h.11l5.02-.46c.55-.05,1.06-.3,1.46-.69l10.83-10.83c.42-.44.65-1.04.63-1.65s-.27-1.19-.72-1.61ZM8.51,16.32l-3.61.34.32-3.6,6.78-6.73,3.25,3.25-6.74,6.74ZM16.82,7.97l-3.23-3.23,2.35-2.41,3.29,3.29-2.41,2.35Z"/>
</svg>