<?xml version="1.0" encoding="UTF-8"?>
<svg id="_圖層_1" data-name="圖層_1" xmlns="http://www.w3.org/2000/svg" version="1.1" viewBox="0 0 20 20">
  <!-- Generator: Adobe Illustrator 29.4.0, SVG Export Plug-In . SVG Version: 2.1.0 Build 152)  -->
  <defs>
    <style>
      .st0 {
        fill: #0a0a0a;
        fill-rule: evenodd;
      }
    </style>
  </defs>
  <path class="st0" d="M9.12,2.04c-1.13,0-2.24.27-3.25.79-1,.52-1.87,1.27-2.52,2.19-.65.92-1.08,1.98-1.24,3.1-.16,1.12-.05,2.26.32,3.33.37,1.07.99,2.03,1.81,2.81.82.78,1.81,1.35,2.89,1.67,1.08.32,2.23.37,3.34.16,1.11-.21,2.15-.69,3.04-1.39l3.04,3.04c.16.15.37.24.59.23s.43-.09.58-.24c.15-.15.24-.36.24-.58s-.08-.43-.23-.59l-3.04-3.04c.82-1.04,1.34-2.3,1.48-3.62.14-1.32-.09-2.66-.67-3.85-.58-1.2-1.49-2.21-2.61-2.91-1.13-.71-2.43-1.08-3.76-1.08ZM3.7,9.12c0-1.44.57-2.81,1.59-3.83s2.39-1.59,3.83-1.59,2.81.57,3.83,1.59c1.02,1.02,1.59,2.39,1.59,3.83s-.57,2.81-1.59,3.83c-1.02,1.02-2.39,1.59-3.83,1.59s-2.81-.57-3.83-1.59c-1.02-1.02-1.59-2.39-1.59-3.83Z"/>
</svg>