<?xml version="1.0" encoding="UTF-8"?>
<svg id="_圖層_1" data-name="圖層_1" xmlns="http://www.w3.org/2000/svg" version="1.1" viewBox="0 0 24 24">
  <!-- Generator: Adobe Illustrator 30.2.1, SVG Export Plug-In . SVG Version: 2.1.1 Build 1)  -->
  <path d="M2.95,2.73s-.09,0-.13.03c-.04.02-.08.04-.11.07-.03.03-.06.07-.07.11-.02.04-.03.09-.03.13v14.61h15.29v-4.05c0-.34.14-.67.38-.91.24-.24.57-.38.91-.38s.67.14.91.38c.24.24.38.57.38.91v7.31c0,1.61-1.3,2.91-2.91,2.91H2.94c-1.61,0-2.91-1.3-2.91-2.91V3.07c0-.77.31-1.51.85-2.06C1.43.47,2.17.16,2.95.16h10.55c.34,0,.67.14.91.38.24.24.38.57.38.91s-.14.67-.38.91c-.24.24-.57.38-.91.38H2.95Z"/>
  <path d="M6.19,5.16c-.14,0-.28.03-.41.08-.13.05-.25.13-.35.23-.1.1-.18.22-.23.35-.05.13-.08.27-.08.41s.03.28.08.41c.05.13.13.25.23.35.1.1.22.18.35.23.13.05.27.08.41.08h3.25c.28,0,.56-.11.76-.31.2-.2.31-.47.31-.76s-.11-.56-.31-.76c-.2-.2-.47-.31-.76-.31h-3.25Z"/>
  <path d="M5.12,11.14c0-.59.48-1.07,1.07-1.07h1.62c.28,0,.56.11.76.31.2.2.31.47.31.76s-.11.56-.31.76c-.2.2-.47.31-.76.31h-1.62c-.28,0-.56-.11-.76-.31-.2-.2-.31-.47-.31-.76Z"/>
  <path d="M15.98,12.92c.17-.03.33-.12.46-.24l7.03-7.06c.16-.16.29-.35.38-.56.09-.21.13-.43.13-.66s-.04-.45-.13-.66c-.09-.21-.21-.4-.38-.56l-1.82-1.82c-.16-.16-.35-.29-.56-.38-.21-.09-.43-.13-.66-.13s-.45.04-.66.13c-.21.09-.4.21-.56.38l-7.06,7.02c-.13.13-.21.29-.24.47l-.62,3.74c-.02.14-.01.27.03.41.04.13.12.25.21.35.1.1.22.17.35.21.13.04.27.05.41.02l3.68-.66Z"/>
</svg>