<?xml version="1.0" encoding="UTF-8"?>
<svg id="_圖層_1" data-name="圖層_1" xmlns="http://www.w3.org/2000/svg" version="1.1" viewBox="0 0 24 24">
  <!-- Generator: Adobe Illustrator 30.2.1, SVG Export Plug-In . SVG Version: 2.1.1 Build 1)  -->
  <path d="M12,24c6.55,0,12-5.44,12-12S18.54,0,11.99,0,0,5.45,0,12s5.43,12,12,12ZM11.99,13.76c-.62,0-.96-.36-.99-.99l-.16-5.81c-.02-.65.47-1.11,1.14-1.11s1.16.47,1.14,1.12l-.17,5.8c-.02.64-.38.99-.96.99M11.99,18.09c-.68,0-1.32-.54-1.32-1.27s.62-1.27,1.32-1.27,1.32.53,1.32,1.27-.65,1.27-1.32,1.27Z"/>
</svg>