<?xml version="1.0" encoding="UTF-8"?>
<svg id="_圖層_1" data-name="圖層_1" xmlns="http://www.w3.org/2000/svg" version="1.1" viewBox="0 0 24 24">
  <!-- Generator: Adobe Illustrator 30.2.1, SVG Export Plug-In . SVG Version: 2.1.1 Build 1)  -->
  <path d="M12,0C9.63,0,7.31.7,5.33,2.02,3.36,3.34,1.82,5.22.91,7.41,0,9.6-.23,12.01.23,14.34c.46,2.33,1.61,4.47,3.28,6.14,1.68,1.68,3.82,2.82,6.14,3.28,2.33.46,4.74.23,6.93-.68,2.19-.91,4.07-2.45,5.39-4.42,1.32-1.97,2.02-4.29,2.02-6.67,0-3.18-1.27-6.23-3.52-8.48C18.23,1.27,15.18,0,12,0ZM11.87,19.67c-.31,0-.61-.12-.83-.34-.22-.22-.34-.52-.34-.83s.12-.61.34-.83c.22-.22.52-.34.83-.34s.61.12.83.34.34.52.34.83-.12.61-.34.83-.52.34-.83.34ZM16.34,11.1c-.24.56-.59,1.06-1.04,1.47-.45.41-.97.73-1.55.93-.19.08-.36.22-.48.39-.14.18-.21.4-.21.63v.83c0,.31-.12.61-.34.83-.22.22-.52.34-.83.34s-.61-.12-.83-.34c-.22-.22-.34-.52-.34-.83v-.87c0-.7.23-1.39.64-1.96.41-.54.96-.95,1.6-1.17.28-.09.53-.24.74-.44.21-.19.37-.41.48-.67.11-.25.16-.53.15-.81,0-.28-.07-.55-.19-.81-.18-.32-.42-.6-.73-.81-.31-.22-.67-.37-1.04-.42-.57-.11-1.16-.03-1.69.23-.51.25-.92.66-1.17,1.17-.13.28-.36.5-.66.61-.29.11-.61.1-.9-.03-.28-.13-.5-.36-.61-.66-.11-.29-.1-.61.03-.9.45-.99,1.22-1.8,2.19-2.31.97-.5,2.08-.67,3.15-.47.73.11,1.42.39,2.01.82.61.44,1.11,1.01,1.46,1.67.27.55.42,1.16.43,1.78.02.62-.1,1.23-.34,1.8l.04-.02Z"/>
</svg>