<?xml version="1.0" encoding="UTF-8"?>
<svg id="_圖層_1" data-name="圖層_1" xmlns="http://www.w3.org/2000/svg" version="1.1" viewBox="0 0 24 24">
  <!-- Generator: Adobe Illustrator 30.2.1, SVG Export Plug-In . SVG Version: 2.1.1 Build 1)  -->
  <defs>
    <style>
      .st0 {
        fill-rule: evenodd;
      }
    </style>
  </defs>
  <path class="st0" d="M16.25.76c.48-.48,1.14-.76,1.83-.76s1.34.27,1.83.76l3.34,3.34c.48.48.76,1.14.76,1.83s-.27,1.34-.76,1.83l-2.05,2.05-6.99-6.99,2.05-2.05Z"/>
  <path class="st0" d="M12.38,4.63L.76,16.25C.27,16.74,0,17.39,0,18.08v3.34C0,22.1.27,22.76.76,23.24c.48.48,1.14.76,1.83.76h3.34c.68,0,1.34-.27,1.83-.76l11.62-11.62-6.99-6.99Z"/>
</svg>