<?xml version="1.0" encoding="UTF-8"?>
<svg id="_圖層_1" data-name="圖層_1" xmlns="http://www.w3.org/2000/svg" version="1.1" viewBox="0 0 24 24">
  <!-- Generator: Adobe Illustrator 30.2.1, SVG Export Plug-In . SVG Version: 2.1.1 Build 1)  -->
  <path d="M7.08,22.66c.94,0,1.7-.76,1.7-1.7s-.76-1.7-1.7-1.7-1.7.76-1.7,1.7.76,1.7,1.7,1.7Z"/>
  <path d="M19.02,22.66c.94,0,1.7-.76,1.7-1.7s-.76-1.7-1.7-1.7-1.7.76-1.7,1.7.76,1.7,1.7,1.7Z"/>
  <path d="M18.79,13.51c.19,0,.37-.05.53-.16.16-.1.29-.25.37-.42h0s4.21-7.3,4.21-7.3h0c.06-.13.1-.28.1-.43,0-.13-.03-.26-.08-.38-.05-.12-.12-.23-.22-.32-.09-.09-.2-.17-.32-.22-.12-.05-.25-.08-.38-.08H7.52v-1.87c0-.13-.03-.26-.08-.38-.05-.12-.12-.23-.22-.32-.09-.09-.2-.17-.32-.22-.12-.05-.25-.08-.38-.08H1.08s-.05,0-.08,0c-.24,0-.48.09-.66.25C.16,1.75.04,1.97.01,2.21H0v1c0,.13.03.26.08.38.05.12.12.23.22.32s.2.17.32.22.25.08.38.08c.03,0,.05,0,.08,0h0s3.57,0,3.57,0v12.63c0,.26.11.52.29.7.19.19.44.29.7.29h17.12v-.02c.23-.01.44-.11.61-.26.17-.15.28-.36.31-.59h.01v-.14h0s0-.01,0-.01v-.87h0c0-.26-.1-.5-.27-.69-.17-.18-.41-.29-.66-.31h0s-15.24,0-15.24,0v-1.44h11.27Z"/>
</svg>