<?xml version="1.0" encoding="UTF-8"?>
<svg id="_圖層_1" data-name="圖層_1" xmlns="http://www.w3.org/2000/svg" version="1.1" viewBox="0 0 24 24">
  <!-- Generator: Adobe Illustrator 30.2.1, SVG Export Plug-In . SVG Version: 2.1.1 Build 1)  -->
  <path d="M21.84,16.98c.25-.34.48-.68.69-1.04.02-.04.04-.07.06-.11.19-.33.36-.67.52-1.02.05-.12.1-.23.15-.35.12-.29.23-.58.33-.88.04-.12.08-.23.11-.35.12-.41.23-.82.3-1.24-.06-.33-.14-.67-.23-.99-.04-.15-.09-.3-.14-.45-.05-.17-.11-.35-.17-.52-.06-.16-.12-.31-.19-.47-.07-.16-.13-.32-.2-.47-.07-.15-.14-.29-.22-.44-.08-.16-.16-.32-.25-.47-.08-.13-.16-.26-.24-.4-.1-.16-.2-.32-.3-.47-.08-.12-.17-.24-.26-.36-.12-.16-.23-.31-.36-.46-.09-.11-.18-.22-.27-.32-.13-.15-.26-.29-.4-.43-.1-.1-.2-.2-.3-.3-.06-.06-.11-.12-.17-.18h0c-1.11-1.02-2.4-1.84-3.83-2.41h0s-.08-.03-.11-.04c-.19-.07-.38-.13-.57-.19-.15-.05-.3-.1-.46-.15-.21-.06-.43-.11-.64-.15-.14-.03-.29-.07-.43-.1-.24-.05-.49-.07-.74-.11-.12-.02-.25-.04-.37-.05-.37-.03-.74-.05-1.12-.05,0,0-.01,0-.02,0h0s-.01,0-.02,0c-.38,0-.75.02-1.12.05-.13.01-.25.04-.37.05-.25.03-.49.06-.74.11-.15.03-.29.07-.43.1-.21.05-.43.09-.64.15-.16.04-.31.1-.46.15-.19.06-.38.12-.57.19-.04.01-.08.02-.11.04h0c-1.43.57-2.72,1.39-3.83,2.42h0c-.06.05-.12.11-.17.17-.1.1-.2.2-.3.3-.14.14-.27.29-.4.43-.09.11-.18.21-.27.32-.12.15-.24.3-.36.46-.09.12-.17.23-.26.36-.11.15-.21.31-.3.47-.08.13-.16.26-.24.4-.09.15-.17.31-.25.47-.07.15-.15.29-.22.44-.07.16-.14.31-.2.47-.06.16-.13.31-.19.47-.06.17-.11.35-.17.52-.05.15-.1.3-.14.45-.09.33-.17.66-.23.99.08.42.18.83.3,1.24.03.12.08.23.11.35.1.3.21.59.33.88.05.12.1.24.15.35.16.35.33.69.52,1.01.02.04.04.08.06.11.21.36.45.71.69,1.04.03.04.05.07.07.11h0c.89,1.18,1.99,2.2,3.24,2.99h0c.07.05.15.09.22.14.1.06.2.12.3.18.19.11.38.21.58.31.1.05.19.1.29.14.25.12.5.22.75.32.05.02.09.04.14.06.3.11.61.21.93.3.09.02.18.04.27.07.23.06.47.11.71.16.1.02.21.04.31.06.24.04.48.07.73.1.09,0,.18.02.27.03.34.03.67.05,1.01.05,0,0,0,0,0,0h0s0,0,0,0c.34,0,.68-.02,1.01-.05.09,0,.18-.02.27-.03.24-.03.49-.06.73-.1.1-.02.21-.04.31-.06.24-.05.47-.1.71-.16.09-.02.18-.04.27-.07.31-.09.62-.19.93-.3.05-.02.09-.04.14-.06.25-.1.51-.2.75-.32.1-.05.19-.1.29-.14.2-.1.39-.2.58-.31.1-.06.2-.12.3-.18.07-.04.15-.08.22-.13h0c1.26-.8,2.35-1.82,3.24-3.01h0s.05-.07.07-.1ZM17.5,12.69c-.15,1.22-.7,2.36-1.57,3.24-.34.34-.73.61-1.14.85-.16.1-.33.19-.5.27-.13.06-.26.1-.39.14-.16.06-.33.12-.5.17-.15.04-.3.06-.44.08-.16.03-.32.06-.48.08-.16.01-.32,0-.47,0-.16,0-.31,0-.47,0-.16-.01-.32-.05-.48-.08-.15-.03-.3-.05-.44-.08-.17-.04-.33-.11-.5-.17-.13-.05-.26-.09-.39-.15-.17-.08-.33-.17-.5-.27-.41-.24-.8-.51-1.14-.85-.87-.87-1.42-2.01-1.57-3.24-.02-.13-.02-.26-.03-.39,0-.18-.02-.37,0-.55,0-.08,0-.16.01-.23.02-.26.06-.52.12-.77.02-.06.04-.13.05-.19.06-.23.14-.45.23-.67.02-.05.04-.1.06-.14.11-.25.24-.49.39-.72.29-.45.64-.87,1.05-1.22.6-.52,1.31-.91,2.08-1.13.31-.09.63-.15.96-.18.1-.01.19-.02.29-.03.1,0,.2,0,.3,0s.2,0,.3,0c.1,0,.19.02.29.03.32.03.64.09.96.18.77.22,1.47.61,2.08,1.13.41.35.76.77,1.05,1.22.15.23.28.47.39.72.02.05.04.1.06.14.09.22.16.44.23.67.02.06.04.13.05.19.06.25.1.51.12.77,0,.08,0,.16.01.23,0,.18,0,.36,0,.55,0,.13-.01.26-.03.39Z"/>
  <path d="M11.99,8.66c-1.84,0-3.33,1.49-3.33,3.33s1.49,3.33,3.33,3.33,3.33-1.49,3.33-3.33-1.49-3.33-3.33-3.33Z"/>
</svg>