<?xml version="1.0" encoding="UTF-8"?>
<svg id="_圖層_1" data-name="圖層_1" xmlns="http://www.w3.org/2000/svg" version="1.1" viewBox="0 0 24 24">
  <!-- Generator: Adobe Illustrator 30.2.1, SVG Export Plug-In . SVG Version: 2.1.1 Build 1)  -->
  <path d="M12,22.52c-.35,0-.7-.08-1.03-.23-.33-.16-.62-.38-.87-.67L.56,10.21c-.19-.23-.33-.48-.42-.75-.09-.27-.14-.55-.14-.84,0-.19.02-.38.05-.58.03-.2.1-.38.2-.55L2.59,2.85c.23-.42.54-.75.92-1,.38-.25.82-.37,1.29-.37h14.4c.48,0,.91.12,1.29.37.38.25.69.58.92,1l2.34,4.64c.1.17.17.35.2.54.03.2.05.39.05.58,0,.29-.05.57-.14.84-.09.27-.23.52-.42.75l-9.54,11.41c-.25.29-.54.51-.87.67-.33.16-.68.23-1.03.23ZM9.04,7.71h5.92l-1.87-3.74h-2.18l-1.87,3.74ZM10.75,18.53v-8.32H3.83l6.92,8.32ZM13.25,18.53l6.92-8.32h-6.92v8.32ZM17.73,7.71h3.3l-1.87-3.74h-3.3l1.87,3.74ZM2.96,7.71h3.3l1.87-3.74h-3.3l-1.87,3.74Z"/>
</svg>