<?xml version="1.0" encoding="UTF-8"?>
<svg id="_圖層_1" data-name="圖層_1" xmlns="http://www.w3.org/2000/svg" version="1.1" viewBox="0 0 24 24">
  <!-- Generator: Adobe Illustrator 30.2.1, SVG Export Plug-In . SVG Version: 2.1.1 Build 1)  -->
  <path d="M23.65,1.55c-.23-.23-.53-.35-.85-.35H6c-.32,0-.62.13-.85.35s-.35.53-.35.85v3.6H1.2c-.32,0-.62.13-.85.35-.23.23-.35.53-.35.85v12c0,.95.38,1.87,1.05,2.55s1.59,1.05,2.55,1.05h15.6c1.27,0,2.49-.51,3.39-1.41.9-.9,1.41-2.12,1.41-3.39V2.4c0-.32-.13-.62-.35-.85ZM4.8,19.2c0,.32-.13.62-.35.85s-.53.35-.85.35-.62-.13-.85-.35-.35-.53-.35-.85v-10.8h2.4v10.8ZM21.6,18c0,.64-.25,1.25-.7,1.7-.45.45-1.06.7-1.7.7H6.98c.14-.38.21-.79.22-1.2V3.6h14.4v14.4Z"/>
  <path d="M18,10.8h-1.2c-.32,0-.62.13-.85.35-.23.23-.35.53-.35.85s.13.62.35.85c.22.23.53.35.85.35h1.2c.32,0,.62-.13.85-.35s.35-.53.35-.85-.13-.62-.35-.85c-.23-.23-.53-.35-.85-.35Z"/>
  <path d="M18,15.6h-1.2c-.32,0-.62.13-.85.35s-.35.53-.35.85.13.62.35.85c.22.23.53.35.85.35h1.2c.32,0,.62-.13.85-.35s.35-.53.35-.85-.13-.62-.35-.85c-.23-.22-.53-.35-.85-.35Z"/>
  <path d="M10.8,8.4h7.2c.32,0,.62-.13.85-.35.22-.23.35-.53.35-.85s-.13-.62-.35-.85c-.23-.23-.53-.35-.85-.35h-7.2c-.32,0-.62.13-.85.35-.23.23-.35.53-.35.85s.13.62.35.85c.22.23.53.35.85.35Z"/>
  <path d="M10.8,13.2h1.2c.32,0,.62-.13.85-.35s.35-.53.35-.85-.13-.62-.35-.85c-.23-.23-.53-.35-.85-.35h-1.2c-.32,0-.62.13-.85.35-.23.23-.35.53-.35.85s.13.62.35.85c.22.23.53.35.85.35Z"/>
  <path d="M10.8,18h1.2c.32,0,.62-.13.85-.35s.35-.53.35-.85-.13-.62-.35-.85c-.23-.22-.53-.35-.85-.35h-1.2c-.32,0-.62.13-.85.35s-.35.53-.35.85.13.62.35.85c.22.23.53.35.85.35Z"/>
</svg>