<?xml version="1.0" encoding="UTF-8"?>
<svg id="_圖層_1" data-name="圖層_1" xmlns="http://www.w3.org/2000/svg" version="1.1" viewBox="0 0 24 24">
  <!-- Generator: Adobe Illustrator 30.2.1, SVG Export Plug-In . SVG Version: 2.1.1 Build 1)  -->
  <path d="M12.81,5.74c.04-.62.25-1.22.6-1.74.35-.52.82-.94,1.37-1.22.56-.28,1.17-.41,1.8-.38.62.03,1.22.22,1.75.55.06.04.11.09.14.16.03.06.05.14.04.21,0,.07-.03.14-.07.2-.04.06-.1.11-.16.13-.91.41-1.69,1.08-2.23,1.92-.54.84-.83,1.82-.84,2.82,0,.12,0,.23.01.35,0,.07,0,.15-.04.21-.03.07-.08.12-.14.16-.06.04-.13.06-.21.06-.07,0-.14-.02-.21-.05-.59-.34-1.07-.83-1.39-1.43-.32-.6-.46-1.28-.41-1.95Z"/>
  <path d="M23.75,14.98c-.17-.34-.41-.63-.71-.86-.3-.23-.65-.39-1.02-.46-.37-.07-.75-.06-1.12.03l-4.18.96c.1-.41.1-.84,0-1.25-.09-.41-.28-.8-.54-1.13-.26-.33-.6-.6-.98-.78-.38-.18-.8-.28-1.22-.28h-5.01c-.42,0-.84.08-1.23.24-.39.16-.74.4-1.04.7l-2.26,2.26H1.6c-.42,0-.83.17-1.13.47S0,15.58,0,16v4C0,20.43.17,20.83.47,21.13c.3.3.71.47,1.13.47h10.4c.07,0,.13,0,.19-.03l6.4-1.6s.08-.02.12-.04l3.88-1.65.04-.02c.41-.2.75-.52.99-.91.24-.39.37-.84.37-1.29,0-.38-.09-.75-.25-1.09ZM22.28,16.51c-.08.13-.2.24-.33.32l-3.8,1.62-6.24,1.56h-6.3v-4.47l2.26-2.26c.15-.15.32-.27.52-.35.19-.08.4-.12.61-.12h5.01c.32,0,.62.13.85.35s.35.53.35.85-.13.62-.35.85c-.23.23-.53.35-.85.35h-2.8c-.21,0-.42.08-.57.23s-.23.35-.23.57.08.42.23.57.35.23.57.23h3.2c.06,0,.12,0,.18-.02l6.7-1.54h.03c.13-.04.26-.05.39-.02.13.03.25.08.36.16.11.08.19.18.25.3s.09.25.09.38c0,.16-.04.31-.12.44Z"/>
  <path d="M16.8,8.4c0,.71.21,1.41.61,2,.4.59.96,1.05,1.62,1.33.66.27,1.38.34,2.08.2.7-.14,1.34-.48,1.84-.99.5-.5.85-1.14.99-1.84.14-.7.07-1.42-.2-2.08-.27-.66-.73-1.22-1.33-1.62-.59-.4-1.29-.61-2-.61-.95,0-1.87.38-2.55,1.05-.68.68-1.05,1.59-1.05,2.55Z"/>
</svg>