<?xml version="1.0" encoding="UTF-8"?>
<svg id="_圖層_1" xmlns="http://www.w3.org/2000/svg" version="1.1" viewBox="0 0 20 20">
  <!-- Generator: Adobe Illustrator 30.2.1, SVG Export Plug-In . SVG Version: 2.1.1 Build 1)  -->
  <path d="M10,0C4.48,0,0,4.48,0,10s4.48,10,10,10,10-4.48,10-10S15.52,0,10,0ZM14.68,10.73c-.19.17-.43.27-.68.27h-3v3.12c-.04.25-.16.48-.36.65s-.44.24-.71.23c-.25-.01-.49-.12-.67-.31-.17-.19-.27-.43-.27-.68v-3h-3.12c-.25-.04-.48-.16-.65-.36-.16-.2-.24-.44-.23-.71.01-.25.12-.49.31-.67s.43-.27.68-.27h3v-3.12c.04-.24.15-.47.33-.63s.41-.25.67-.25c.27,0,.52.11.71.29.19.19.29.44.29.71v3h3.12c.25.04.48.16.65.36.16.2.24.44.23.71-.01.25-.12.49-.31.67h0Z"/>
</svg>