<svg xmlns="http://www.w3.org/2000/svg" viewBox="0 0 24 24">
  <path d="M9.46,23.95c-2.77-.63-5.04-2.06-6.81-4.29C.88,17.44,0,14.88,0,12c0-2.88.89-5.44,2.65-7.66C4.42,2.11,6.69.68,9.46.05c.38-.1.72-.03,1.02.21.29.25.44.57.44.98,0,.29-.08.54-.24.77-.16.22-.38.37-.67.43-2.22.51-4.04,1.66-5.46,3.43-1.42,1.78-2.12,3.82-2.12,6.13s.71,4.35,2.12,6.13,3.23,2.92,5.46,3.43c.28.06.51.2.67.43.16.22.24.48.24.77,0,.41-.15.74-.44.98-.29.25-.63.32-1.02.21Z"/>
  <path d="M14.8,23.96c-.38.1-.72.03-1.02-.21-.29-.24-.44-.57-.44-.97,0-.28.08-.54.24-.76.16-.22.38-.36.67-.42.55-.12,1.08-.29,1.59-.5.52-.21,1.01-.47,1.47-.77.22-.16.47-.22.74-.18.27.04.51.16.71.36.28.28.4.61.36.99-.04.37-.22.67-.55.89-.59.36-1.2.68-1.84.94s-1.29.48-1.96.64Z"/>
  <path d="M20.5,18.67c-.2-.2-.32-.44-.36-.71s.02-.52.18-.74c.3-.46.56-.96.77-1.49s.38-1.06.5-1.61c.06-.28.2-.5.42-.65s.48-.23.76-.23c.4,0,.73.15.97.44s.31.63.21,1.02c-.16.67-.37,1.32-.64,1.96-.26.64-.58,1.25-.94,1.83-.22.32-.52.51-.89.55-.37.04-.7-.08-.99-.36Z"/>
  <path d="M22.77,10.79c-.28,0-.54-.08-.76-.24-.22-.16-.36-.38-.42-.67-.12-.55-.29-1.08-.5-1.59-.21-.52-.47-1.01-.77-1.47-.16-.24-.22-.5-.18-.77.04-.27.16-.51.36-.71.28-.28.61-.4.99-.36.37.04.67.23.89.58.36.59.68,1.2.94,1.84.26.64.48,1.29.64,1.96.1.38.03.72-.21,1.02s-.57.44-.97.44Z"/>
  <path d="M17.31,3.68c-.46-.3-.95-.56-1.47-.77-.52-.21-1.05-.38-1.59-.5-.28-.06-.51-.2-.67-.42-.16-.22-.24-.48-.24-.76,0-.4.15-.73.44-.97.29-.24.63-.31,1.02-.21.67.16,1.32.37,1.96.64.64.26,1.25.58,1.83.94.34.22.54.52.58.9.04.37-.08.7-.36.98-.2.2-.44.32-.71.36-.27.04-.53-.02-.77-.18Z"/>
  <path d="M12.1,18.06c-.34,0-.63-.12-.86-.35-.23-.23-.35-.52-.35-.86v-6.22l-2.27,2.3c-.24.24-.53.36-.86.36s-.62-.12-.86-.36-.37-.53-.38-.86c0-.33.11-.62.35-.86l4.4-4.43c.22-.22.51-.33.85-.33s.63.11.85.33l4.34,4.34c.24.24.37.54.38.88.01.34-.11.64-.35.88-.24.24-.54.36-.88.36s-.64-.12-.88-.36l-2.24-2.24v6.22c0,.34-.12.63-.35.86s-.52.35-.86.35Z"/>
</svg>
