<?xml version="1.0" encoding="UTF-8"?>
<svg id="_圖層_1" data-name="圖層_1" xmlns="http://www.w3.org/2000/svg" version="1.1" viewBox="0 0 24 24">
  <!-- Generator: Adobe Illustrator 30.2.1, SVG Export Plug-In . SVG Version: 2.1.1 Build 1)  -->
  <path d="M23.22,3.45c-.5-.5-1.18-.78-1.89-.78h-2.67v-1.33c0-.35-.14-.69-.39-.94-.25-.25-.59-.39-.94-.39s-.69.14-.94.39-.39.59-.39.94v1.33h-8v-1.33c0-.35-.14-.69-.39-.94-.25-.25-.59-.39-.94-.39s-.69.14-.94.39c-.25.25-.39.59-.39.94v1.33h-2.67c-.71,0-1.39.28-1.89.78-.5.5-.78,1.18-.78,1.89v16c0,.71.28,1.39.78,1.89.5.5,1.18.78,1.89.78h18.67c.71,0,1.39-.28,1.89-.78.5-.5.78-1.18.78-1.89V5.33c0-.71-.28-1.39-.78-1.89ZM21.33,21.33H2.67v-10.67h18.67v10.67ZM21.33,8H2.67v-2.67h18.67v2.67Z"/>
  <path d="M6.67,14.67h.01c.35,0,.69-.14.94-.39.25-.25.39-.59.39-.94s-.14-.69-.39-.94c-.25-.25-.59-.39-.94-.39h-.01c-.35,0-.69.14-.94.39-.25.25-.39.59-.39.94s.14.69.39.94c.25.25.59.39.94.39Z"/>
  <path d="M6.67,18.67h.01c.35,0,.69-.14.94-.39.25-.25.39-.59.39-.94s-.14-.69-.39-.94c-.25-.25-.59-.39-.94-.39h-.01c-.35,0-.69.14-.94.39-.25.25-.39.59-.39.94s.14.69.39.94c.25.25.59.39.94.39Z"/>
  <path d="M12,14.67h.01c.35,0,.69-.14.94-.39s.39-.59.39-.94-.14-.69-.39-.94-.59-.39-.94-.39h-.01c-.35,0-.69.14-.94.39-.25.25-.39.59-.39.94s.14.69.39.94c.25.25.59.39.94.39Z"/>
  <path d="M12,18.67h.01c.35,0,.69-.14.94-.39s.39-.59.39-.94-.14-.69-.39-.94-.59-.39-.94-.39h-.01c-.35,0-.69.14-.94.39-.25.25-.39.59-.39.94s.14.69.39.94c.25.25.59.39.94.39Z"/>
  <path d="M17.33,14.67h.01c.35,0,.69-.14.94-.39.25-.25.39-.59.39-.94s-.14-.69-.39-.94c-.25-.25-.59-.39-.94-.39h-.01c-.35,0-.69.14-.94.39-.25.25-.39.59-.39.94s.14.69.39.94c.25.25.59.39.94.39Z"/>
  <path d="M17.33,18.67h.01c.35,0,.69-.14.94-.39.25-.25.39-.59.39-.94s-.14-.69-.39-.94c-.25-.25-.59-.39-.94-.39h-.01c-.35,0-.69.14-.94.39-.25.25-.39.59-.39.94s.14.69.39.94c.25.25.59.39.94.39Z"/>
</svg>