<?xml version="1.0" encoding="UTF-8"?>
<svg id="_圖層_1" xmlns="http://www.w3.org/2000/svg" version="1.1" viewBox="0 0 24 24">
  <!-- Generator: Adobe Illustrator 30.2.1, SVG Export Plug-In . SVG Version: 2.1.1 Build 1)  -->
  <path d="M6,9.56c0,.34.14.67.38.91s.56.38.91.38.67-.14.91-.38.38-.56.38-.91-.14-.67-.38-.91-.56-.38-.91-.38-.67.14-.91.38-.38.56-.38.91Z"/>
  <path d="M15.43,9.56c0,.34.14.67.38.91s.56.38.91.38.67-.14.91-.38c.24-.24.38-.56.38-.91s-.14-.67-.38-.91-.56-.38-.91-.38-.67.14-.91.38c-.24.24-.38.56-.38.91Z"/>
  <path d="M12,0C5.38,0,0,5.38,0,12s5.38,12,12,12,12-5.38,12-12S18.62,0,12,0ZM19.04,19.04c-.91.91-1.98,1.63-3.17,2.13-1.22.52-2.53.78-3.87.78s-2.65-.26-3.88-.78c-1.19-.5-2.25-1.22-3.17-2.13-.91-.91-1.63-1.98-2.13-3.17-.52-1.22-.78-2.53-.78-3.87s.26-2.65.78-3.88c.5-1.19,1.22-2.25,2.13-3.17.91-.91,1.98-1.63,3.17-2.13,1.22-.52,2.53-.78,3.87-.78s2.65.26,3.88.78c1.19.5,2.25,1.22,3.17,2.13.91.91,1.63,1.98,2.13,3.17.52,1.22.78,2.53.78,3.87s-.26,2.65-.78,3.88c-.5,1.19-1.22,2.25-2.13,3.17Z"/>
  <path d="M16.07,12.56h-1.29c-.11,0-.21.09-.21.2-.11,1.32-1.22,2.38-2.56,2.38s-2.47-1.05-2.56-2.38c0-.11-.11-.2-.21-.2h-1.29s-.06,0-.09.02c-.03,0-.05.03-.08.05-.02.02-.03.05-.05.08v.09c.12,2.25,1.99,4.05,4.28,4.05s4.17-1.8,4.28-4.05v-.09s-.03-.05-.05-.08c-.02-.02-.05-.03-.08-.05-.03,0-.06-.02-.09-.02Z"/>
</svg>