<?xml version="1.0" encoding="UTF-8"?>
<svg id="_圖層_1" data-name="圖層_1" xmlns="http://www.w3.org/2000/svg" version="1.1" viewBox="0 0 24 24">
  <!-- Generator: Adobe Illustrator 30.2.1, SVG Export Plug-In . SVG Version: 2.1.1 Build 1)  -->
  <circle cx="7.8" cy="7.8" r="4.2"/>
  <path d="M21,9.9c0,1.82-1.48,3.3-3.3,3.3-.88,0-1.71-.35-2.33-.97-.62-.62-.97-1.46-.97-2.33,0-1.82,1.48-3.3,3.3-3.3s3.3,1.48,3.3,3.3Z"/>
  <path d="M7.8,13.2c1.64,0,4.31.51,6.06,1.53.72.73,1.14,1.52,1.14,2.31v3.36H0v-3.36c0-2.55,5.2-3.84,7.8-3.84Z"/>
  <path d="M24,20.4h-7.8v-3.36c0-.85-.31-1.63-.79-2.33.92-.21,1.83-.31,2.53-.31,2.24,0,6.06,1.07,6.06,3.2v2.8Z"/>
</svg>