<?xml version="1.0" encoding="UTF-8"?>
<svg id="_圖層_1" data-name="圖層_1" xmlns="http://www.w3.org/2000/svg" version="1.1" viewBox="0 0 24 24">
  <!-- Generator: Adobe Illustrator 30.2.1, SVG Export Plug-In . SVG Version: 2.1.1 Build 1)  -->
  <rect y="11.14" width="4.57" height="12.57"/>
  <path d="M21.71,18h-8l-2.39-.83.38-1.07,2.01.77h3.22c.74,0,1.35-.61,1.35-1.35,0-.56-.35-1.06-.88-1.27l-8.3-3.1h-2.25v10.31l8,2.26,9.14-3.43c-.01-1.26-1.02-2.29-2.29-2.29Z"/>
  <path d="M18.45,12.58c1.28.51,2.13,1.75,2.13,3.13h2.29V6L14.86.29,6.86,6v2.86h2.29l9.3,3.73ZM15.43,6.57h1.14v1.14h-1.14v-1.14ZM15.43,8.86h1.14v1.14h-1.14v-1.14ZM13.14,6.57h1.14v1.14h-1.14v-1.14ZM13.14,8.86h1.14v1.14h-1.14v-1.14Z"/>
</svg>