<?xml version="1.0" encoding="UTF-8"?>
<svg id="_圖層_1" data-name="圖層_1" xmlns="http://www.w3.org/2000/svg" version="1.1" viewBox="0 0 24 24">
  <!-- Generator: Adobe Illustrator 30.2.1, SVG Export Plug-In . SVG Version: 2.1.1 Build 1)  -->
  <path d="M20.49,3.51C18.23,1.26,15.18,0,12,0c-3.18,0-6.23,1.27-8.48,3.52S0,8.82,0,12v10.08c0,.51.2,1,.56,1.36.36.36.85.56,1.36.56h10.08c3.18,0,6.23-1.26,8.49-3.51,2.25-2.25,3.51-5.3,3.51-8.49s-1.26-6.23-3.51-8.49ZM17.6,20.38c-1.66,1.11-3.61,1.7-5.6,1.7H1.92v-10.08c0-1.99.59-3.94,1.7-5.6s2.68-2.95,4.52-3.71c1.84-.76,3.87-.96,5.82-.57,1.96.39,3.75,1.35,5.16,2.76,1.41,1.41,2.37,3.21,2.76,5.16.39,1.96.19,3.98-.57,5.82-.76,1.84-2.05,3.42-3.71,4.52Z"/>
  <path d="M13.44,12.48c0,.28-.08.56-.24.8-.16.24-.38.42-.65.53-.26.11-.55.14-.83.08-.28-.06-.54-.19-.74-.39s-.34-.46-.39-.74c-.06-.28-.03-.57.08-.83.11-.26.29-.49.53-.65.24-.16.52-.24.8-.24.38,0,.75.15,1.02.42.27.27.42.64.42,1.02Z"/>
  <path d="M8.16,12.48c0,.28-.08.56-.24.8-.16.24-.38.42-.65.53-.26.11-.55.14-.83.08-.28-.06-.54-.19-.74-.39s-.34-.46-.39-.74c-.06-.28-.03-.57.08-.83.11-.26.29-.49.53-.65.24-.16.52-.24.8-.24.38,0,.75.15,1.02.42.27.27.42.64.42,1.02Z"/>
  <path d="M18.72,12.48c0,.28-.08.56-.24.8-.16.24-.38.42-.65.53-.26.11-.55.14-.83.08-.28-.06-.54-.19-.74-.39s-.34-.46-.39-.74c-.06-.28-.03-.57.08-.83.11-.26.29-.49.53-.65.24-.16.52-.24.8-.24.38,0,.75.15,1.02.42.27.27.42.64.42,1.02Z"/>
</svg>