<?xml version="1.0" encoding="UTF-8"?>
<svg id="_圖層_1" xmlns="http://www.w3.org/2000/svg" version="1.1" viewBox="0 0 20 20">
  <!-- Generator: Adobe Illustrator 30.2.1, SVG Export Plug-In . SVG Version: 2.1.1 Build 1)  -->
  <path d="M8.9,0C7.48,0,6.08.34,4.82.99c-1.26.65-2.35,1.59-3.16,2.75S.3,6.23.1,7.63c-.2,1.41-.06,2.84.4,4.18s1.24,2.55,2.27,3.53c1.03.98,2.27,1.69,3.63,2.1,1.36.4,2.8.46,4.19.2,1.39-.26,2.7-.87,3.82-1.75l3.82,3.82c.2.19.46.3.74.29s.54-.11.73-.3.3-.45.3-.73-.1-.54-.29-.74l-3.82-3.82c1.03-1.31,1.68-2.89,1.86-4.54.18-1.66-.11-3.34-.84-4.83-.73-1.51-1.87-2.77-3.28-3.65C12.21.49,10.58.03,8.91.03V0ZM2.09,8.89c0-1.81.72-3.53,2-4.81s3-2,4.81-2,3.53.72,4.81,2,2,3,2,4.81-.72,3.53-2,4.81c-1.28,1.28-3,2-4.81,2s-3.53-.72-4.81-2c-1.28-1.28-2-3-2-4.81Z"/>
</svg>