<?xml version="1.0" encoding="utf-8"?>
<!-- Generator: Adobe Illustrator 27.4.1, SVG Export Plug-In . SVG Version: 6.00 Build 0)  -->
<svg version="1.1" id="圖層_1" xmlns="http://www.w3.org/2000/svg" xmlns:xlink="http://www.w3.org/1999/xlink" x="0px" y="0px"
	 viewBox="0 0 36 36" style="enable-background:new 0 0 36 36;" xml:space="preserve">
<g>
	<path d="M34.8,1.2c-0.4-0.4-0.8-0.6-1.3-0.8C33.1,0.1,32.6,0,32,0H4C3.4,0,2.9,0.1,2.4,0.3C2,0.5,1.5,0.8,1.2,1.2
		C0.4,1.9,0,2.9,0,4v28c0,2.2,1.8,4,4,4h28c2.2,0,4-1.8,4-4V4C36,2.9,35.6,1.9,34.8,1.2z M32,34.2H4c-1.2,0-2.2-1-2.2-2.2v-4.3
		l6.9-6.9l4,4.1c0.2,0.2,0.4,0.2,0.6,0.2c0.2,0,0.5-0.1,0.6-0.2l8.7-8.8l11.6,12.3V32C34.2,33.2,33.2,34.2,32,34.2z M22,14.3
		L13.3,23l-4-4.1c-0.2-0.2-0.4-0.3-0.6-0.3c-0.2,0-0.4,0.1-0.6,0.2l-6.3,6.3L1.7,4c0-1.2,1-2.2,2.2-2.2h28c1.2,0,2.2,1,2.2,2.2v21.9
		l-11-11.6C23,14.1,22.8,14,22.6,14S22.1,14.1,22,14.3L22,14.3z"/>
	<path d="M12.7,4.7c-2.5,0-4.5,2-4.5,4.5s2,4.5,4.5,4.5s4.5-2,4.5-4.5S15.2,4.7,12.7,4.7z M12.7,11.7c-1.4,0-2.5-1.1-2.5-2.5
		s1.1-2.5,2.5-2.5s2.5,1.1,2.5,2.5S14.1,11.7,12.7,11.7z"/>
</g>
</svg>
