<?xml version="1.0" encoding="UTF-8"?>
<svg id="_圖層_1" xmlns="http://www.w3.org/2000/svg" version="1.1" viewBox="0 0 20 20">
  <!-- Generator: Adobe Illustrator 30.2.1, SVG Export Plug-In . SVG Version: 2.1.1 Build 1)  -->
  <path d="M10,0C4.48,0,0,4.48,0,10s4.48,10,10,10,10-4.48,10-10S15.52,0,10,0ZM13.6,12.2c.15.21.23.45.21.71-.03.25-.14.48-.34.66-.18.17-.43.26-.68.25,0,0,0,0,0,0h-.01s0,0,0,0c-.25-.02-.49-.11-.67-.29l-2.12-2.12-2.21,2.21c-.21.15-.45.23-.71.21-.26-.02-.48-.14-.66-.34-.17-.18-.26-.43-.25-.69.01-.25.11-.49.29-.67l2.12-2.12-2.21-2.21c-.15-.21-.23-.45-.21-.71.03-.25.14-.48.34-.66.18-.17.43-.26.69-.25s.49.11.67.29l2.12,2.12,2.21-2.21c.2-.14.44-.23.68-.21.24.01.47.11.65.3s.29.45.3.71c0,.27-.11.52-.3.71l-2.12,2.12,2.21,2.21Z"/>
  <polygon points="12.79 13.84 12.78 13.83 12.77 13.84 12.79 13.84"/>
</svg>