<?xml version="1.0" encoding="UTF-8"?>
<svg id="_圖層_1" data-name="圖層_1" xmlns="http://www.w3.org/2000/svg" version="1.1" viewBox="0 0 24 24">
  <!-- Generator: Adobe Illustrator 30.2.1, SVG Export Plug-In . SVG Version: 2.1.1 Build 1)  -->
  <path d="M23.64,2.96c-.11-.09-.24-.15-.38-.17-.14-.03-.28-.03-.42,0l-7.05,1.76-7.08-3.54c-.2-.1-.42-.12-.64-.07L.7,2.8c-.2.05-.38.17-.5.33C.07,3.29,0,3.49,0,3.69v16.62c0,.14.03.28.09.4s.15.24.26.32c.11.09.24.15.38.18.14.03.28.03.42,0l7.05-1.76,7.08,3.54c.13.06.27.1.41.1.08,0,.15,0,.22-.03l7.38-1.85c.2-.05.38-.17.5-.33.13-.16.2-.36.2-.57V3.69c0-.14-.03-.28-.09-.41-.06-.13-.15-.24-.26-.32ZM9.23,3.34l5.54,2.77v14.55l-5.54-2.77V3.34ZM1.85,4.41l5.54-1.38v14.71l-5.54,1.38V4.41ZM22.15,19.59l-5.54,1.38V6.26l5.54-1.38v14.71Z"/>
</svg>