<?xml version="1.0" encoding="UTF-8"?>
<svg id="_圖層_1" data-name="圖層_1" xmlns="http://www.w3.org/2000/svg" version="1.1" viewBox="0 0 24 24">
  <!-- Generator: Adobe Illustrator 30.2.1, SVG Export Plug-In . SVG Version: 2.1.1 Build 1)  -->
  <path d="M21.5,9.83c-.66-.66-1.55-1.03-2.48-1.03h-.47v-2.34c0-1.75-.68-3.4-1.92-4.63C14.2-.61,9.81-.61,7.37,1.83c-1.24,1.24-1.92,2.88-1.92,4.63v2.34h-.47c-.93,0-1.82.37-2.48,1.03-.66.66-1.03,1.55-1.03,2.48v8.19c0,.93.37,1.82,1.03,2.48.66.66,1.55,1.03,2.48,1.03h14.03c.93,0,1.82-.37,2.48-1.03.66-.66,1.03-1.55,1.03-2.48v-8.19c0-.93-.37-1.82-1.03-2.48ZM9.19,6.46c0-.75.29-1.45.82-1.99,1.05-1.04,2.92-1.05,3.97,0,.53.53.82,1.23.82,1.98v2.34h-5.61v-2.34ZM13.17,18.15c0,.31-.12.61-.34.83-.22.22-.52.34-.83.34s-.61-.12-.83-.34-.34-.52-.34-.83v-3.51c0-.31.12-.61.34-.83.22-.22.52-.34.83-.34s.61.12.83.34.34.52.34.83v3.51Z"/>
</svg>