<?xml version="1.0" encoding="UTF-8"?>
<svg id="_圖層_1" data-name="圖層_1" xmlns="http://www.w3.org/2000/svg" version="1.1" viewBox="0 0 87 25">
  <!-- Generator: Adobe Illustrator 29.4.0, SVG Export Plug-In . SVG Version: 2.1.0 Build 152)  -->
  <defs>
    <style>
      .st0 {
        fill: #fff;
      }
    </style>
  </defs>
  <path class="st0" d="M3.26,12.45s.58.02.58.59v3.06s-.06.64.64.64h2.98s.52-.07.52-.56v-3.16s.03-.56.57-.56h2.66s.57.02.57.57v11.17s-.06.51-.58.51h-2.11s-.54-.01-.54-.63v-2.16s0-.51.47-.59c0,0,.54.02.14-.37-.39-.39-2.78-2.54-2.78-2.54,0,0-.42-.51-1.02.1-.6.6-2.5,2.33-2.5,2.33,0,0-.59.47,0,.49,0,0,.41.02.47.54v2.26s.07.58-.7.58H.61s-.48,0-.56-.53v-11.15s.01-.53.54-.58h2.66Z"/>
  <path class="st0" d="M24.68,15.82h2.21s.62-.04.62.63v3.88s.03,1.07.14,1.27.32.68,1.14.63c0,0,.66-.04.96-.55.3-.51.32-1.21.32-1.21v-4.13s.06-.49.53-.52h2.3s.49,0,.58.52v7.81s-.01.47-.5.55h-2.15s-.53-.02-.53-.65c0,0,.04-.45-.11-.5,0,0-.1-.08-.24.11-.14.19-1.1,1.17-2.47,1.22-1.37.06-2.27-.24-2.94-1.3,0,0-.31-.5-.4-1.29-.09-.79-.05-1.82-.05-1.82v-4.12s.06-.53.58-.53h0Z"/>
  <path class="st0" d="M67.2,15.82h2.21s.62-.04.62.63v3.88s.03,1.07.14,1.27c.11.21.32.68,1.14.63,0,0,.66-.04.96-.55.3-.51.32-1.21.32-1.21v-4.13s.06-.49.53-.52h2.3s.49,0,.58.52v7.81s0,.47-.5.55h-2.15s-.53-.02-.53-.65c0,0,.04-.45-.11-.5,0,0-.1-.08-.24.11-.14.19-1.1,1.17-2.47,1.22-1.37.06-2.27-.24-2.94-1.3,0,0-.31-.5-.4-1.29-.09-.79-.05-1.82-.05-1.82v-4.12s.06-.53.58-.53h0Z"/>
  <path class="st0" d="M57.43,13.51h7.93s.44.01.55.48v1.65s-.04.47-.58.5c-.54.04-4.38,0-4.38,0,0,0-.52-.03-.58.53v1.09s.01.53.64.53h3.56s.48.01.55.5v1.47s-.08.5-.64.5h-3.48s-.51-.06-.62.49v2.85s.03.59-.69.59h-2.55s-.49.05-.55-.64v-9.96s-.05-.67.87-.58h0Z"/>
  <path class="st0" d="M78.04,15.82h2.16s.44.08.49.55v.38s.06.57.53,0c.47-.57,1.54-1.37,3.44-1.07,1.9.31,2.12,1.99,2.24,3.07.12,1.07,0,5.43,0,5.43,0,0-.05.51-.59.51h-2.32s-.49-.01-.5-.67v-4.28s.08-1.54-1.18-1.47c-1.26.06-1.33,1.23-1.35,1.5-.02.27-.03,4.24-.03,4.24,0,0,.04.68-.55.68h-2.33s-.51-.04-.51-.59v-7.75s.04-.53.51-.53h0Z"/>
  <path class="st0" d="M12.84,20.29c0-1.36.46-2.47,1.37-3.35.91-.88,2.15-1.31,3.7-1.31,1.78,0,3.12.51,4.02,1.55.73.83,1.09,1.85,1.09,3.06,0,1.36-.45,2.48-1.35,3.35-.91.87-2.16,1.31-3.75,1.31-1.43,0-2.58-.36-3.46-1.09-1.08-.9-1.62-2.07-1.62-3.53h0ZM16.25,20.28c0,.79.16,1.37.48,1.75.32.38.72.57,1.2.57s.89-.19,1.21-.56c.32-.37.47-.97.47-1.8,0-.77-.15-1.34-.48-1.72-.32-.38-.71-.57-1.17-.57-.5,0-.91.19-1.23.57-.32.38-.48.97-.48,1.75h0Z"/>
  <path class="st0" d="M7.06,23.26c-.31.24-.71.38-1.14.38-.43,0-.83-.13-1.15-.37-.32-.24-.52-.59-.56-.96-.01-.06,0-.12.05-.17.04-.05.1-.08.16-.09.07,0,.13.01.18.05.05.04.08.1.09.16.03.23.16.46.38.63.23.18.53.27.85.27s.62-.1.84-.28c.22-.17.34-.39.37-.63,0-.06.04-.12.08-.16.05-.04.11-.06.18-.05.06,0,.13.04.17.08.04.05.06.11.06.17-.03.37-.23.71-.55.97h0Z"/>
  <path class="st0" d="M4.92,20.38c.18,0,.32.19.38.46l-.29.16.3.17c-.03.3-.19.53-.37.52-.23,0-.4-.29-.4-.66,0-.36.17-.66.39-.66h0Z"/>
  <path class="st0" d="M6.79,20.36c.18,0,.33.19.38.46l-.29.16.3.17c-.04.3-.19.53-.38.53-.22,0-.4-.29-.4-.66,0-.36.17-.66.39-.66h0Z"/>
  <path class="st0" d="M49.62,15.71c-5.32,0-5.2,4.38-5.13,5.48.04.65.43,1.89,1.51,2.77h0s.17.16.51.35c.56.33,1.26.58,2.13.64.4.05.84.06,1.34.03.51-.01,1.23-.08,1.95-.3h0c.94-.29,1.88-.83,2.36-1.85,0,0,.23-.49-.44-.52-.6-.02-1.21,0-1.82,0h-.61c-.18,0-.33,0-.45.14-.09.1-.21.18-.33.25-.31.19-.67.29-1.03.28-.15,0-.31-.03-.46-.07-1.19-.34-1.52-1.75-.43-1.73h5.47s.55.05.55-.56.19-4.92-5.13-4.92h0ZM50.8,19.56h-2.36s-.5-.04-.43-.5c.07-.45.45-1.36,1.61-1.32,1.16-.03,1.54.87,1.61,1.32.07.46-.43.5-.43.5Z"/>
  <path class="st0" d="M34.38,21.96s0,0,.01-.01c.1-.1.19-.11.32-.12.25-.01.49-.03.73-.04.42-.02.84-.05,1.25-.07.16,0,.37-.05.52.01.14.06.2.29.25.42.07.18.16.35.29.49.34.36.82.53,1.44.53.46,0,.82-.09,1.07-.27.25-.19.38-.39.38-.64s-.12-.44-.36-.62c-.24-.18-.79-.35-1.67-.51-1.43-.27-2.45-.63-3.05-1.07-.61-.45-.92-1.02-.92-1.71,0-.45.16-.88.47-1.29.31-.4.78-.72,1.41-.96.63-.23,1.49-.34,2.59-.34,1.35,0,2.37.21,3.08.63.33.19.61.46.82.77.2.29.47.76.23,1.1-.12.18-.3.17-.5.18-.29.01-.58.03-.87.04-.24.01-.47.02-.7.04-.19,0-.52.08-.68-.03-.14-.09-.19-.27-.27-.41-.09-.15-.2-.29-.34-.39-.26-.18-.62-.27-1.08-.27-.38,0-.66.07-.86.2-.19.14-.29.3-.29.49,0,.14.08.27.24.38.15.12.52.23,1.09.33,1.42.26,2.44.52,3.06.78.62.26,1.07.59,1.34.98.28.39.42.83.42,1.31,0,.57-.19,1.09-.56,1.57-.37.48-.9.84-1.57,1.09-.67.25-1.51.37-2.53.37-1.79,0-3.03-.29-3.72-.87-.33-.27-.6-.6-.8-.97-.1-.19-.18-.39-.24-.59-.06-.18-.14-.37,0-.53h0Z"/>
</svg>