<?xml version="1.0" encoding="UTF-8"?>
<svg id="_圖層_1" data-name="圖層_1" xmlns="http://www.w3.org/2000/svg" version="1.1" viewBox="0 0 77 25">
  <!-- Generator: Adobe Illustrator 29.4.0, SVG Export Plug-In . SVG Version: 2.1.0 Build 152)  -->
  <defs>
    <style>
      .st0 {
        fill: #fff;
      }
    </style>
  </defs>
  <path class="st0" d="M11.15,19.94c-.1-.07-.18-.16-.26-.24-.2-.19-.41-.37-.61-.56-.24-.21-.47-.43-.7-.64-.24-.22-.56-.41-.59-.77-.02-.22.06-.43.14-.63.05-.12.09-.25.13-.38.11-.35.22-.71.31-1.07.15-.55.29-1.11.41-1.66.16-.71.29-1.43.41-2.15.14-.84.24-1.69.31-2.54.08-.94.12-1.88.12-2.82,0-.19.01-.37.02-.55.02-.29,0-.62-.24-.83-.23-.2-.57-.24-.86-.24h-2.9c-.24,0-.72.11-.69-.27,0-.09.02-.18.03-.26.06-.42.09-.86.13-1.29.04-.43.08-.85.12-1.28,0,0,.34-1.21-.86-1.25l-1.53-.05s-.87-.16-.97.52l-.17,2.58s.05,1.12-.95,1.25h-.4c-.19,0-.44-.04-.62.04-.15.06-.29.22-.39.35-.12.16-.18.35-.18.56v1.42s.17.78,1.03.78h.52s.22-.05.22.78c0,0-.69,4.82-1.29,6.33,0,0-.43.82.43,1.29l2.84,1.94s.65.43.38.78c0,0-1.68,1.81-3.65,2.8,0,0-.73.39-.13,1.12l1.42,1.68s.54.63,1.12.04c0,0,3.08-1.96,4.03-3.82l1.65,2.02s.6.64,1.08-.05c0,0,2.14-2.21,1.16-2.93h0ZM6.1,15.81s-.09.14-.28-.05c-.05-.04-.11-.08-.17-.11-.24-.16-.48-.32-.72-.48-.11-.07-.22-.15-.33-.22-.09-.06-.19-.1-.24-.21-.04-.09-.02-.2,0-.29.02-.14.05-.27.07-.4.04-.2.07-.4.12-.6.05-.21.11-.42.15-.63.1-.55.21-1.1.32-1.65.09-.48.18-.96.27-1.43.04-.2.08-.41.12-.61,0,0,.09-1.13.96-1.15h.62c.17,0,.34.07.43.21.07.11.04.23.03.35-.02.21-.04.43-.05.64-.05.58-.11,1.15-.18,1.72-.08.66-.17,1.32-.29,1.99-.11.62-.24,1.23-.41,1.84-.11.38-.24.75-.43,1.1h0Z"/>
  <path class="st0" d="M23.83,11.14h-2.82c-.2,0-.39-.03-.59-.07-.64-.24-.68-1.29-.13-2.07.56-.78.48-.68.72-1.01.31-.44.63-.87.93-1.31.27-.38.54-.76.81-1.14.11-.16.23-.32.34-.49,0,0,.63-.88.63-1.83v-.54s.17-1.42-1.42-1.42h-9.54s-1.15-.1-1.15.86v1.47s-.12.98,1.16.98h5.96s.25.03.1.27l-1.67,2.27s-.9.81-.9,2.13v.54c0,.32,0,.67-.17.95-.15.24-.39.41-.67.44h-3.41s-1-.09-1,.86v1.6s-.01.79,1.01.79h3.29s.91-.05.91.85v5.54s.12.86-.9.86h-2.01s-.96-.02-.74.88l.34,1.57s.14.85,1.57.85c0,0,3.71.05,4.32-.36,0,0,1-.1,1-2.3v-6.89s0-.98.93-.98h3.27s.95-.04.95-.88v-1.47s.12-.96-1.15-.96h0Z"/>
  <path class="st0" d="M48.92,13.06h-6.52c-.09,0-.71.03-.9-.13-.1-.08-.2-.18-.24-.3-.05-.2-.04-.46.1-.63.15-.2.42-.25.66-.25h5.2s1.19.1,1.19-1.12v-4.17s.32-1.48-1.19-1.48h-15.05c-.15,0-.31-.05-.45-.11-.22-.1-.47-.33-.38-.59.1-.3.43-.25.68-.26.35,0,.7-.02,1.06-.03.48-.01.95-.03,1.43-.05.57-.02,1.14-.04,1.71-.06.63-.02,1.26-.05,1.89-.07.66-.03,1.32-.05,1.98-.09.66-.03,1.31-.06,1.97-.1.62-.04,1.25-.07,1.87-.11.56-.04,2.27-.18,2.58-.21.28-.03,1.17-.21,1.31-.31.14-.1.23-.19.32-.34.05-.07.07-.17.08-.25.02-.17-.06-.31-.14-.46-.07-.13-.39-.76-.48-.93,0,0-.45-.8-1.8-.55,0,0-13.83,1.12-16.72.9,0,0-1.19-.03-1.19,1.06,0,0,.19,10.28-.19,11.92,0,0-.58,4.72-2.15,7.35,0,0-.77,1.38.74,1.6l2.31.06s.96,0,1.25-1.22l1.22-5.07s.29-1.06,1.12-1.06h2.66s.58.09.58.45c-.05.25-.23,1.14-.8,2.17-.6,1.04-1.65,2.24-3.47,3.21-.03.02-.2.1-.22.11,0,0-.99.46-.4.95l2.05,1.66s.55.64,1.37-.02c0,0,.68-.47,1.49-1.21.72-.64,1.65-1.61,2.26-2.8,0,0,.38-.64,1.31-.64h4.72s1.28-.16,1.28.87c0,0,.03,1.16-1.32,1.16l-2.73-.06s-1.19-.23-1,.93l.26,1.28s.19.93,1.48.93c0,0,5.26.29,6.06-1.57,0,0,.61-1.19.71-2.44l.25-2.34s.35-1.38-.96-1.38h-8.18s-.9-.1-.74-.77c0,0,.1-.45.71-.45h9.24s1.38.16,1.38-.96v-.87s.19-1.12-1.28-1.12h0ZM31.31,12.96s-.04-.03-.06-.05c-.12-.12-.19-.28-.19-.45,0-.19.03-.34.14-.51.2-.29.54-.22.84-.22.27,0,5.09-.04,5.32.04.19.07.33.22.4.4.1.23.04.56-.16.73-.22.18-.43.16-.71.16-.55,0-4.9,0-5.04-.01-.19,0-.38.02-.54-.09h0ZM38.43,9.14h-6.24c-.44,0-.95.13-1.23-.34-.1-.16-.1-.39-.08-.58.04-.39.41-.66.78-.67.9-.01,1.8.01,2.71.01s1.76,0,2.64.01h2.53c.9,0,4.23-.04,5.01-.02.74.01.9,1.02.42,1.46-.08.08-.18.08-.28.1-.31.05-5.81.02-6.25.02Z"/>
  <path class="st0" d="M76.65,21.96V1.65c0-1.24-1.53-1.07-1.53-1.07h-12.32c-1.06,0-1.09,1.04-1.09,1.04v8.66c0,.52-.21.21-.21.21l-.47-1.79c-.15-.41-.6-.23-.6-.23l-1.19.26c-.47.08-.03-.68-.03-.68,1.3-2.2,2.05-4.54,2.05-4.54.15-.34-.15-.54-.15-.54l-2.1-.52c-.42-.13-.57.31-.57.31-.05.44-1.22,3.21-1.22,3.21-.18.54-.6,0-.6,0-.27-.27.05-.65.05-.65.59-.93,1.66-3.86,1.66-3.86.13-.26-.05-.49-.05-.49l-2.25-.93c-.42-.15-.47.31-.47.31.05.08-1.35,3.76-1.35,3.76-.6-.26-.73.26-.73.26-.22.35-.44.71-.66,1.07-.14.22-.3.44-.35.69-.02.11-.01.24.06.33.11.16,1.35.99,1.6,1.21.34.28.67.57.99.86.46.41.12,1.07-.16,1.47-.26.37-.58.97-1.07,1.02-.25.03-.5.02-.76.05-.77.09-.52.65-.52.65.13.34.43,1.73.43,1.73.05.65.56.6.56.6l1.68-.26c.65,0,.56.48.56.48l-.05.69c-.09.65-.3.56-.3.56l-1.86-.26c-.65-.09-.56.91-.56.91-.05.82-.48,5.4-.48,5.4-.22.99.65,1.04.65,1.04l.95.22c.95.17,1.04-.56,1.04-.56l.22-2.81c0-.39.11-1.77.17-1.85.07-.1.17-.04.19.06.04.16.03,1.07.03,1.33v4.26c0,.29.02.71.3.88.18.11.49.05.69.05.34,0,.68-.01,1.02-.03.24,0,.5-.02.71-.16.14-.1.24-.26.22-.44v-5.96c0-.95.21-.52.21-.52,0,0,.52,3.54.52,3.54.05.31.25.6.59.63.18.01.35-.04.51-.1.17-.06.35-.07.53-.1.52,0,.52.39.52.39v1.94c0,.82.65.82.65.82h1.55c.82,0,.91-.65.91-.65v-8.69c0-.6.65-.56.65-.56.52,0,.48.6.48.6v3.16c0,1.38,1.08,1.51,1.08,1.51h5.39c.56,0,.52-.65.52-.65v-1.73c0-.52-.52-.56-.52-.56h-2.63c-.95,0-.86-.86-.86-.86v-.87c0-.65.69-.6.69-.6h3.15c.95,0,.82.73.82.73v5.66c-.05.35-.71.4-.96.43-.53.06-1.07.06-1.6.04-.19,0-.42-.06-.61-.03-.65.1-.67.68-.67,1.2v1.17c0,.73.52.87.52.87.66.24,1.39.32,2.08.4.91.1,1.81.13,2.68-.23.54-.23,1.04-.58,1.35-1.09.26-.44.3-.99.3-1.5h0ZM58.03,10.56c-.58.06-.44-.12-.44-.12l.73-.88c.24.29.24.73.24.73-.03.29-.53.26-.53.26ZM61.49,16.9l-.2-1.17c-.15-.56-.44-.38-.44-.38l-1.53.38c-.59.18-.5-.62-.5-.62l-.06-1.09c-.03-.82.24-.7.24-.7.38,0,.38.64.38.64.09.53,1.76.15,1.76.15.53-.12.56.44.56.44l.03,1.73c0,1.23-.24.62-.24.62ZM67.33,11.52h-2.32s-.2.02-.2-.18v-.96s-.05-.23.22-.23h2.35s.19-.03.19.18v1.05s.03.13-.24.13h0ZM70.29,4.2l-.87,2.78c-.16.46-.5.36-.5.36h-.64c-.48,0-.31-.16-.31-.16l.71-.29c.42-.13.19-.47.19-.47-.1-.44-.96-2.2-.96-2.2-.21-.42-.63-.21-.63-.21l-1.69.78c-.49.19-.28.58-.28.58.37.58.77,1.67.77,1.67.1.35-.24.28-.24.28h-.57c-.47,0-.43-.31-.43-.31v-3.16c0-.36.51-.28.51-.28h7.79c.44,0,.44.33.44.33v3.12c0,.37-.28.3-.28.3h-.56c-.32,0-.24-.17-.24-.17l.57-1.93c.14-.4-.14-.53-.14-.53l-2.11-.76c-.39-.12-.5.25-.5.25h0ZM73.33,11.52h-2.32s-.2.02-.2-.18v-.96s-.05-.23.22-.23h2.35s.19-.03.19.18v1.05s.03.13-.24.13Z"/>
</svg>